SplineFontDB: 2.0
FontName: DejaVuSerifCondensed-BoldItalic
FullName: DejaVu Serif Condensed Bold Italic
FamilyName: DejaVu Serif Condensed
Weight: Bold
Copyright: Copyright (c) 2003 by Bitstream, Inc. All Rights Reserved.\nDejaVu changes are in public domain\n
Version: 2.24
ItalicAngle: -11
UnderlinePosition: -85
UnderlineWidth: 90
Ascent: 1556
Descent: 492
Order2: 1
NeedsXUIDChange: 1
FSType: 0
OS2Version: 0
OS2_WeightWidthSlopeOnly: 0
OS2_UseTypoMetrics: 0
PfmFamily: 17
TTFWeight: 700
TTFWidth: 4
LineGap: 0
VLineGap: 0
Panose: 2 6 8 6 5 3 5 11 2 4
OS2TypoAscent: 1556
OS2TypoAOffset: 0
OS2TypoDescent: -492
OS2TypoDOffset: 0
OS2TypoLinegap: 410
OS2WinAscent: 1923
OS2WinAOffset: 0
OS2WinDescent: 483
OS2WinDOffset: 0
HheadAscent: 1923
HheadAOffset: 0
HheadDescent: -483
HheadDOffset: 0
OS2Vendor: 'PfEd'
Lookup: 6 0 0 "'ccmp' Contextual Chaining Substitution"  {"'ccmp' Contextual Chaining Substitution"  } ['ccmp' ('DFLT' <'dflt' > 'cyrl' <'MKD ' 'SRB ' 'dflt' > 'grek' <'dflt' > 'latn' <'AZE ' 'CRT ' 'GAG ' 'ISM ' 'KAZ ' 'KRK ' 'KSM ' 'LSM ' 'NSM ' 'SKS ' 'SSM ' 'TAT ' 'TRK ' 'dflt' > ) ]
Lookup: 1 0 0 "'locl' Localized Forms in Cyrillic - Serbian"  {"'locl' Localized Forms in Cyrillic - Serbian"  } ['locl' ('cyrl' <'MKD ' 'SRB ' > ) ]
Lookup: 1 0 0 "'locl' Localized Forms in Latin - Sami"  {"'locl' Localized Forms in Latin - Sami"  } ['locl' ('latn' <'ISM ' 'KSM ' 'LSM ' 'NSM ' 'SKS ' 'SSM ' > ) ]
Lookup: 4 0 1 "'liga' Standard Ligatures"  {"'liga' Standard Ligatures"  } ['liga' ('DFLT' <'dflt' > 'cyrl' <'MKD ' 'SRB ' 'dflt' > 'grek' <'dflt' > 'latn' <'AZE ' 'CRT ' 'GAG ' 'ISM ' 'KAZ ' 'KRK ' 'KSM ' 'LSM ' 'NSM ' 'SKS ' 'SSM ' 'TAT ' 'TRK ' 'dflt' > ) ]
Lookup: 4 0 1 "'liga' Standard Ligatures - Without dotless i"  {"'liga' Standard Ligatures - Without dotless i"  } ['liga' ('DFLT' <'dflt' > 'cyrl' <'MKD ' 'SRB ' 'dflt' > 'grek' <'dflt' > 'latn' <'ISM ' 'KSM ' 'LSM ' 'NSM ' 'SKS ' 'SSM ' 'dflt' > ) ]

StartChar: .notdef
Encoding: 0 -1 0
AltUni2: 000000.ffffffff.0
Width: 1106
Flags: W
Fore
91.7998 -362 m 1,0,-1
 91.7998 1444 l 1,1,-1
 1013.4 1444 l 1,2,-1
 1013.4 -362 l 1,3,-1
 91.7998 -362 l 1,0,-1
195.3 -248 m 1,4,-1
 910.8 -248 l 1,5,-1
 910.8 1329 l 1,6,-1
 195.3 1329 l 1,7,-1
 195.3 -248 l 1,4,-1
EndSplineSet
EndChar
StartChar: exclam
Encoding: 33 33 33
Width: 809
Flags: W
Fore
134.282 162 m 0,0,1
 147.929 240 147.929 240 207.675 296 c 128,-1,2
 267.423 352 267.423 352 337.622 352 c 0,3,4
 407.822 352 407.822 352 448.425 296 c 128,-1,5
 489.028 240 489.028 240 475.383 162 c 0,6,7
 461.563 83 461.563 83 401.366 27 c 128,-1,8
 341.168 -29 341.168 -29 270.969 -29 c 0,9,10
 200.769 -29 200.769 -29 160.616 27 c 128,-1,11
 120.463 83 120.463 83 134.282 162 c 0,0,1
368.932 1493 m 1,12,-1
 706.432 1493 l 1,13,-1
 452.029 651 l 1,14,-1
 418.791 461 l 1,15,-1
 293.69 461 l 1,16,-1
 326.93 651 l 1,17,-1
 368.932 1493 l 1,12,-1
EndSplineSet
EndChar
StartChar: quotedbl
Encoding: 34 34 34
Width: 960
Flags: W
Fore
388.8 1493 m 1,0,-1
 388.8 938 l 1,1,-1
 175.5 938 l 1,2,-1
 175.5 1493 l 1,3,-1
 388.8 1493 l 1,0,-1
784.8 1493 m 1,4,-1
 784.8 938 l 1,5,-1
 571.5 938 l 1,6,-1
 571.5 1493 l 1,7,-1
 784.8 1493 l 1,4,-1
EndSplineSet
EndChar
StartChar: numbersign
Encoding: 35 35 35
Width: 1544
Flags: W
Fore
921.6 872 m 1,0,-1
 684 872 l 1,1,-1
 621 598 l 1,2,-1
 858.6 598 l 1,3,-1
 921.6 872 l 1,0,-1
819.9 1470 m 1,4,-1
 733.5 1085 l 1,5,-1
 971.1 1085 l 1,6,-1
 1058.4 1470 l 1,7,-1
 1257.3 1470 l 1,8,-1
 1170 1085 l 1,9,-1
 1419.3 1085 l 1,10,-1
 1419.3 872 l 1,11,-1
 1122.3 872 l 1,12,-1
 1060.2 598 l 1,13,-1
 1315.8 598 l 1,14,-1
 1315.8 383 l 1,15,-1
 1013.4 383 l 1,16,-1
 927 0 l 1,17,-1
 728.1 0 l 1,18,-1
 814.5 383 l 1,19,-1
 576.9 383 l 1,20,-1
 490.5 0 l 1,21,-1
 289.8 0 l 1,22,-1
 376.2 383 l 1,23,-1
 125.1 383 l 1,24,-1
 125.1 598 l 1,25,-1
 420.3 598 l 1,26,-1
 483.3 872 l 1,27,-1
 228.6 872 l 1,28,-1
 228.6 1085 l 1,29,-1
 532.8 1085 l 1,30,-1
 619.2 1470 l 1,31,-1
 819.9 1470 l 1,4,-1
EndSplineSet
EndChar
StartChar: dollar
Encoding: 36 36 36
Width: 1282
Flags: W
Fore
75.6084 59 m 1,0,-1
 126.516 350 l 1,1,-1
 234.516 350 l 1,2,3
 226.373 216 226.373 216 285.478 150 c 128,-1,4
 344.581 84 344.581 84 474.182 84 c 2,5,-1
 486.781 84 l 1,6,-1
 557.634 489 l 1,7,8
 343.154 544 343.154 544 262.574 639 c 128,-1,9
 181.994 734 181.994 734 210.509 897 c 0,10,11
 241.999 1077 241.999 1077 370.356 1180.5 c 128,-1,12
 498.713 1284 498.713 1284 697.762 1290 c 1,13,-1
 744.821 1559 l 1,14,-1
 853.721 1559 l 1,15,-1
 806.662 1290 l 1,16,17
 906.408 1284 906.408 1284 994.905 1262.5 c 128,-1,18
 1083.39 1241 1083.39 1241 1163.87 1202 c 1,19,-1
 1116.28 930 l 1,20,-1
 1007.38 930 l 1,21,22
 1013.27 1046 1013.27 1046 955.71 1110.5 c 128,-1,23
 898.145 1175 898.145 1175 786.894 1177 c 1,24,-1
 721.815 805 l 1,25,26
 953.595 746 953.595 746 1034.29 646.5 c 128,-1,27
 1114.98 547 1114.98 547 1083.49 367 c 0,28,29
 1051.13 182 1051.13 182 919.341 79.5 c 128,-1,30
 787.562 -23 787.562 -23 575.913 -29 c 1,31,-1
 528.679 -299 l 1,32,-1
 419.779 -299 l 1,33,-1
 467.013 -29 l 1,34,35
 368.362 -27 368.362 -27 270.511 -5 c 128,-1,36
 172.66 17 172.66 17 75.6084 59 c 1,0,-1
678.169 1178 m 1,37,38
 599.744 1167 599.744 1167 547.847 1125 c 128,-1,39
 495.949 1083 495.949 1083 485.277 1022 c 0,40,41
 473.032 952 473.032 952 503.759 909 c 128,-1,42
 534.486 866 534.486 866 618.688 838 c 1,43,-1
 678.169 1178 l 1,37,38
595.682 84 m 1,44,45
 688.506 95 688.506 95 742.916 138.5 c 128,-1,46
 797.326 182 797.326 182 810.271 256 c 0,47,48
 823.218 330 823.218 330 787.965 378 c 128,-1,49
 752.712 426 752.712 426 660.935 457 c 1,50,-1
 595.682 84 l 1,44,45
EndSplineSet
EndChar
StartChar: percent
Encoding: 37 37 37
Width: 1751
Flags: W
Fore
515.623 1419 m 0,0,1
 458.023 1419 458.023 1419 420.664 1349.5 c 128,-1,2
 383.307 1280 383.307 1280 354.266 1114 c 0,3,4
 325.051 947 325.051 947 338.005 877 c 128,-1,5
 350.959 807 350.959 807 408.559 807 c 0,6,7
 467.059 807 467.059 807 504.505 877 c 128,-1,8
 541.951 947 541.951 947 571.166 1114 c 0,9,10
 600.206 1280 600.206 1280 587.164 1349.5 c 128,-1,11
 574.123 1419 574.123 1419 515.623 1419 c 0,0,1
533.293 1520 m 0,12,13
 705.193 1520 705.193 1520 778.261 1415.5 c 128,-1,14
 851.33 1311 851.33 1311 816.866 1114 c 0,15,16
 782.402 917 782.402 917 672.685 812 c 128,-1,17
 562.965 707 562.965 707 391.065 707 c 0,18,19
 220.065 707 220.065 707 147.084 812 c 128,-1,20
 74.1025 917 74.1025 917 108.566 1114 c 0,21,22
 143.03 1311 143.03 1311 252.66 1415.5 c 128,-1,23
 362.293 1520 362.293 1520 533.293 1520 c 0,12,13
1354.09 1520 m 1,24,-1
 1508.89 1520 l 1,25,-1
 397.307 -29 l 1,26,-1
 242.507 -29 l 1,27,-1
 1354.09 1520 l 1,24,-1
1359.43 784 m 0,28,29
 1531.33 784 1531.33 784 1603.95 679.5 c 128,-1,30
 1676.57 575 1676.57 575 1642.28 379 c 0,31,32
 1607.82 182 1607.82 182 1498.46 76.5 c 128,-1,33
 1389.1 -29 1389.1 -29 1217.21 -29 c 0,34,35
 1046.21 -29 1046.21 -29 973.313 76.5 c 128,-1,36
 900.423 182 900.423 182 934.884 379 c 0,37,38
 969.174 575 969.174 575 1078.8 679.5 c 128,-1,39
 1188.43 784 1188.43 784 1359.43 784 c 0,28,29
1341.95 684 m 0,40,41
 1283.45 684 1283.45 684 1246.09 614.5 c 128,-1,42
 1208.73 545 1208.73 545 1179.68 379 c 0,43,44
 1150.47 212 1150.47 212 1163.87 142 c 128,-1,45
 1177.27 72 1177.27 72 1234.87 72 c 0,46,47
 1293.37 72 1293.37 72 1330.82 142 c 128,-1,48
 1368.27 212 1368.27 212 1397.48 379 c 0,49,50
 1426.53 545 1426.53 545 1413.49 614.5 c 128,-1,51
 1400.45 684 1400.45 684 1341.95 684 c 0,40,41
EndSplineSet
EndChar
StartChar: ampersand
Encoding: 38 38 38
Width: 1664
Flags: W
Fore
1500.38 0 m 1,0,-1
 1069.28 0 l 1,1,-1
 977.895 131 l 1,2,3
 873.9 51 873.9 51 758.007 11 c 128,-1,5
 642.105 -29 642.105 -29 513.405 -29 c 0,6,7
 243.405 -29 243.405 -29 113.247 99 c 0,8,9
 13.2119 197.38 13.2119 197.38 13.2119 352.47 c 0,10,11
 13.2119 399.17 13.2119 399.17 22.2754 451 c 0,12,13
 50.7959 614 50.7959 614 148.851 729.5 c 128,-1,15
 246.906 845 246.906 845 427.932 928 c 1,16,17
 393.75 995 393.75 995 381.474 1056 c 0,18,19
 374.697 1089.66 374.697 1089.66 374.697 1122.11 c 0,20,21
 374.697 1148.45 374.697 1148.45 379.161 1174 c 0,22,23
 407.853 1338 407.853 1338 547.524 1429 c 128,-1,25
 687.195 1520 687.195 1520 911.295 1520 c 0,26,27
 977.895 1520 977.895 1520 1064.44 1508 c 128,-1,29
 1150.99 1496 1150.99 1496 1258.57 1473 c 1,30,-1
 1203.98 1161 l 1,31,-1
 1087.88 1161 l 1,32,33
 1088.51 1175.29 1088.51 1175.29 1088.51 1188.68 c 0,34,35
 1088.51 1291.57 1088.51 1291.57 1051.16 1342 c 0,36,37
 1008.93 1399 1008.93 1399 912.627 1399 c 0,38,39
 821.727 1399 821.727 1399 761.13 1351 c 128,-1,40
 700.533 1303 700.533 1303 686.187 1221 c 0,41,42
 684.297 1210.22 684.297 1210.22 684.297 1198.35 c 0,43,44
 684.297 1105.68 684.297 1105.68 799.353 947 c 0,45,46
 813.852 927 813.852 927 821.277 918 c 1,47,-1
 1150.96 436 l 1,48,49
 1216.85 504 1216.85 504 1263.02 593 c 128,-1,51
 1309.19 682 1309.19 682 1337.06 795 c 1,52,-1
 1358.05 915 l 1,53,-1
 1644.25 915 l 1,54,-1
 1623.26 795 l 1,55,-1
 1464.86 795 l 1,56,57
 1424.02 649 1424.02 649 1363.3 536 c 128,-1,59
 1302.58 423 1302.58 423 1220.76 336 c 1,60,-1
 1368.55 121 l 1,61,-1
 1521.55 121 l 1,62,-1
 1500.38 0 l 1,0,-1
910.44 229 m 1,63,-1
 504.81 817 l 1,64,65
 443.592 750 443.592 750 405.18 674.5 c 128,-1,67
 366.768 599 366.768 599 352.251 516 c 0,68,69
 344.034 469.02 344.034 469.02 344.034 426.67 c 0,70,71
 344.034 316.7 344.034 316.7 399.465 238 c 0,72,73
 476.244 129 476.244 129 623.844 129 c 0,74,75
 694.044 129 694.044 129 764.487 153.5 c 128,-1,77
 834.921 178 834.921 178 910.44 229 c 1,63,-1
EndSplineSet
EndChar
StartChar: quotesingle
Encoding: 39 39 39
Width: 564
Flags: W
Fore
388.8 1493 m 1,0,-1
 388.8 938 l 1,1,-1
 175.5 938 l 1,2,-1
 175.5 1493 l 1,3,-1
 388.8 1493 l 1,0,-1
EndSplineSet
EndChar
StartChar: parenleft
Encoding: 40 40 40
Width: 872
Flags: W
Fore
611.792 -319 m 1,0,1
 330.359 -194 330.359 -194 221.721 39 c 128,-1,2
 113.082 272 113.082 272 173.611 618 c 0,3,4
 234.143 964 234.143 964 421.979 1194 c 128,-1,5
 609.815 1424 609.815 1424 939.807 1556 c 1,6,-1
 918.819 1436 l 1,7,8
 759.82 1340 759.82 1340 664.294 1151.5 c 128,-1,9
 568.768 963 568.768 963 508.412 618 c 0,10,11
 448.232 274 448.232 274 477.807 85.5 c 128,-1,12
 507.38 -103 507.38 -103 632.784 -199 c 1,13,-1
 611.792 -319 l 1,0,1
EndSplineSet
EndChar
StartChar: parenright
Encoding: 41 41 41
Width: 872
Flags: W
Fore
-70.4082 -319 m 1,0,-1
 -49.416 -199 l 1,1,2
 109.579 -103 109.579 -103 205.106 85.5 c 128,-1,3
 300.633 274 300.633 274 360.812 618 c 0,4,5
 421.168 963 421.168 963 391.594 1151.5 c 128,-1,6
 362.021 1340 362.021 1340 236.615 1436 c 1,7,-1
 257.607 1556 l 1,8,9
 541.416 1424 541.416 1424 649.229 1194 c 128,-1,10
 757.042 964 757.042 964 696.512 618 c 0,11,12
 635.982 272 635.982 272 445.37 39 c 128,-1,13
 254.76 -194 254.76 -194 -70.4082 -319 c 1,0,-1
EndSplineSet
EndChar
StartChar: asterisk
Encoding: 42 42 42
Width: 963
Flags: W
Fore
923.4 1212 m 1,0,-1
 599.4 1044 l 1,1,-1
 923.4 874 l 1,2,-1
 835.2 719 l 1,3,-1
 540 958 l 1,4,-1
 564.3 569 l 1,5,-1
 399.6 569 l 1,6,-1
 423.9 958 l 1,7,-1
 128.7 719 l 1,8,-1
 40.5 874 l 1,9,-1
 365.4 1044 l 1,10,-1
 40.5 1212 l 1,11,-1
 128.7 1370 l 1,12,-1
 423.9 1128 l 1,13,-1
 399.6 1520 l 1,14,-1
 564.3 1520 l 1,15,-1
 540 1128 l 1,16,-1
 835.2 1370 l 1,17,-1
 923.4 1212 l 1,0,-1
EndSplineSet
EndChar
StartChar: plus
Encoding: 43 43 43
Width: 1544
Flags: W
Fore
875.7 1284 m 1,0,-1
 875.7 758 l 1,1,-1
 1349.1 758 l 1,2,-1
 1349.1 528 l 1,3,-1
 875.7 528 l 1,4,-1
 875.7 2 l 1,5,-1
 668.7 2 l 1,6,-1
 668.7 528 l 1,7,-1
 195.3 528 l 1,8,-1
 195.3 758 l 1,9,-1
 668.7 758 l 1,10,-1
 668.7 1284 l 1,11,-1
 875.7 1284 l 1,0,-1
EndSplineSet
EndChar
StartChar: comma
Encoding: 44 44 44
Width: 641
Flags: W
Fore
-8.50195 -197 m 1,0,1
 99.7939 -113 99.7939 -113 162.088 -9 c 128,-1,2
 224.381 95 224.381 95 248.524 233 c 2,3,-1
 263.568 319 l 1,4,-1
 520.068 319 l 1,5,-1
 518.669 311 l 2,6,7
 480.007 90 480.007 90 368.854 -69.5 c 128,-1,8
 257.7 -229 257.7 -229 65.832 -338 c 1,9,-1
 -8.50195 -197 l 1,0,1
EndSplineSet
EndChar
StartChar: hyphen
Encoding: 45 45 45
Width: 765
Flags: W
Fore
123.517 684 m 1,0,-1
 688.717 684 l 1,1,-1
 641.483 414 l 1,2,-1
 76.2832 414 l 1,3,-1
 123.517 684 l 1,0,-1
EndSplineSet
EndChar
StartChar: period
Encoding: 46 46 46
Width: 641
Flags: W
Fore
149.488 162 m 0,0,1
 163.133 240 163.133 240 223.33 296 c 128,-1,2
 283.526 352 283.526 352 353.727 352 c 0,3,4
 424.826 352 424.826 352 465.431 296 c 128,-1,5
 506.033 240 506.033 240 492.389 162 c 0,6,7
 478.567 83 478.567 83 418.369 27 c 128,-1,8
 358.174 -29 358.174 -29 287.074 -29 c 0,9,10
 216.874 -29 216.874 -29 176.27 27 c 128,-1,11
 135.667 83 135.667 83 149.488 162 c 0,0,1
EndSplineSet
EndChar
StartChar: slash
Encoding: 47 47 47
Width: 673
Flags: W
Fore
620.614 1493 m 1,0,-1
 820.414 1493 l 1,1,-1
 51.6855 -190 l 1,2,-1
 -147.214 -190 l 1,3,-1
 620.614 1493 l 1,0,-1
EndSplineSet
EndChar
StartChar: zero
Encoding: 48 48 48
Width: 1282
Flags: W
Fore
526.676 88 m 0,0,1
 634.676 88 634.676 88 693.795 197 c 128,-1,2
 752.913 306 752.913 306 829.712 745 c 0,3,4
 905.985 1181 905.985 1181 885.356 1292 c 128,-1,5
 864.725 1403 864.725 1403 756.725 1403 c 0,6,7
 648.725 1403 648.725 1403 589.605 1294 c 128,-1,8
 530.487 1185 530.487 1185 453.512 745 c 0,9,10
 376.713 306 376.713 306 397.694 197 c 128,-1,11
 418.676 88 418.676 88 526.676 88 c 0,0,1
506.207 -29 m 0,12,13
 237.106 -29 237.106 -29 128.908 170.5 c 128,-1,14
 20.709 370 20.709 370 86.3125 745 c 0,15,16
 151.916 1120 151.916 1120 330.005 1320 c 128,-1,17
 508.093 1520 508.093 1520 777.193 1520 c 0,18,19
 1045.39 1520 1045.39 1520 1153.5 1320 c 128,-1,20
 1261.62 1120 1261.62 1120 1196.01 745 c 0,21,22
 1130.41 370 1130.41 370 952.407 170.5 c 128,-1,23
 774.407 -29 774.407 -29 506.207 -29 c 0,12,13
EndSplineSet
EndChar
StartChar: one
Encoding: 49 49 49
Width: 1282
Flags: W
Fore
119.944 0 m 1,0,-1
 141.112 121 l 1,1,-1
 393.112 121 l 1,2,-1
 604.442 1329 l 1,3,-1
 292.353 1145 l 1,4,-1
 318.419 1294 l 1,5,-1
 695.456 1520 l 1,6,-1
 978.957 1520 l 1,7,-1
 734.212 121 l 1,8,-1
 987.111 121 l 1,9,-1
 965.943 0 l 1,10,-1
 119.944 0 l 1,0,-1
EndSplineSet
EndChar
StartChar: two
Encoding: 50 50 50
Width: 1282
Flags: W
Fore
306.68 1124 m 1,0,-1
 198.68 1124 l 1,1,-1
 255.011 1446 l 1,2,3
 371.283 1483 371.283 1483 482.069 1501.5 c 128,-1,4
 592.856 1520 592.856 1520 702.656 1520 c 0,5,6
 959.157 1520 959.157 1520 1082.32 1403.5 c 128,-1,7
 1205.5 1287 1205.5 1287 1169.11 1079 c 0,8,9
 1143.22 931 1143.22 931 1043.46 813.5 c 128,-1,10
 943.704 696 943.704 696 692.339 535 c 1,11,-1
 270.178 262 l 1,12,-1
 906.48 262 l 1,13,-1
 937.269 438 l 1,14,-1
 1060.57 438 l 1,15,-1
 983.943 0 l 1,16,-1
 -9.65625 0 l 1,17,-1
 33.0303 244 l 1,18,-1
 258.696 397 l 2,19,20
 547.51 592 547.51 592 656.077 729 c 128,-1,21
 764.644 866 764.644 866 796.658 1049 c 0,22,23
 826.924 1222 826.924 1222 778.406 1312.5 c 128,-1,24
 729.888 1403 729.888 1403 606.588 1403 c 0,25,26
 500.388 1403 500.388 1403 423.979 1331.5 c 128,-1,27
 347.571 1260 347.571 1260 306.68 1124 c 1,0,-1
EndSplineSet
EndChar
StartChar: three
Encoding: 51 51 51
Width: 1282
Flags: W
Fore
281.646 1450 m 1,0,1
 406.569 1485 406.569 1485 521.231 1502.5 c 128,-1,2
 635.894 1520 635.894 1520 742.093 1520 c 0,3,4
 985.095 1520 985.095 1520 1098.26 1423.5 c 128,-1,5
 1211.43 1327 1211.43 1327 1179.94 1147 c 0,6,7
 1156.32 1012 1156.32 1012 1066.92 928 c 128,-1,8
 977.535 844 977.535 844 828.459 815 c 1,9,10
 998.532 784 998.532 784 1067.09 682 c 128,-1,11
 1135.65 580 1135.65 580 1104.68 403 c 0,12,13
 1068.12 194 1068.12 194 899.663 82.5 c 128,-1,14
 731.207 -29 731.207 -29 448.606 -29 c 0,15,16
 342.407 -29 342.407 -29 232.956 -9 c 128,-1,17
 123.505 11 123.505 11 7.20215 51 c 1,18,-1
 64.584 379 l 1,19,-1
 173.484 379 l 1,20,21
 158.541 237 158.541 237 215.709 162.5 c 128,-1,22
 272.876 88 272.876 88 397.075 88 c 0,23,24
 533.876 88 533.876 88 623.358 172.5 c 128,-1,25
 712.841 257 712.841 257 739.957 412 c 0,26,27
 768.298 574 768.298 574 705.843 662 c 128,-1,28
 643.388 750 643.388 750 500.287 750 c 2,29,-1
 440.888 750 l 1,30,-1
 461.88 870 l 1,31,-1
 508.68 870 l 2,32,33
 640.98 870 640.98 870 719.477 938 c 128,-1,34
 797.973 1006 797.973 1006 821.589 1141 c 0,35,36
 843.807 1268 843.807 1268 793.066 1335.5 c 128,-1,37
 742.324 1403 742.324 1403 625.324 1403 c 0,38,39
 519.124 1403 519.124 1403 445.741 1338.5 c 128,-1,40
 372.357 1274 372.357 1274 338.239 1151 c 1,41,-1
 229.339 1151 l 1,42,-1
 281.646 1450 l 1,0,1
EndSplineSet
EndChar
StartChar: four
Encoding: 52 52 52
Width: 1282
Flags: W
Fore
1043.34 0 m 1,0,-1
 303.544 0 l 1,1,-1
 324.712 121 l 1,2,-1
 524.512 121 l 1,3,-1
 572.096 393 l 1,4,-1
 11.3955 393 l 1,5,-1
 31.5146 508 l 1,6,-1
 771.056 1520 l 1,7,-1
 1109.46 1520 l 1,8,-1
 934.866 522 l 1,9,-1
 1165.27 522 l 1,10,-1
 1142.69 393 l 1,11,-1
 912.294 393 l 1,12,-1
 864.712 121 l 1,13,-1
 1064.51 121 l 1,14,-1
 1043.34 0 l 1,0,-1
594.663 522 m 1,15,-1
 721.497 1247 l 1,16,-1
 194.163 522 l 1,17,-1
 594.663 522 l 1,15,-1
EndSplineSet
EndChar
StartChar: five
Encoding: 53 53 53
Width: 1282
Flags: W
Fore
1172.63 1493 m 1,0,-1
 1126.8 1231 l 1,1,-1
 407.696 1231 l 1,2,-1
 350.315 903 l 1,3,4
 418.637 954 418.637 954 496.085 980 c 128,-1,5
 573.534 1006 573.534 1006 654.534 1006 c 0,6,7
 902.934 1006 902.934 1006 1022.53 866.5 c 128,-1,8
 1142.13 727 1142.13 727 1100.14 487 c 0,9,10
 1057.46 243 1057.46 243 889.662 107 c 128,-1,11
 721.868 -29 721.868 -29 462.668 -29 c 0,12,13
 352.868 -29 352.868 -29 247.918 -9 c 128,-1,14
 142.967 11 142.967 11 32.4141 53 c 1,15,-1
 89.4453 379 l 1,16,-1
 197.445 379 l 1,17,18
 177.129 232 177.129 232 227.982 160 c 128,-1,19
 278.837 88 278.837 88 403.037 88 c 0,20,21
 535.337 88 535.337 88 616.47 186.5 c 128,-1,22
 697.601 285 697.601 285 732.939 487 c 0,23,24
 767.753 686 767.753 686 722.435 784.5 c 128,-1,25
 677.117 883 677.117 883 550.217 883 c 0,26,27
 481.816 883 481.816 883 422.756 851.5 c 128,-1,28
 363.694 820 363.694 820 306.248 754 c 1,29,-1
 216.248 754 l 1,30,-1
 345.531 1493 l 1,31,-1
 1172.63 1493 l 1,0,-1
EndSplineSet
EndChar
StartChar: six
Encoding: 54 54 54
Width: 1282
Flags: W
Fore
478.005 885 m 1,0,1
 545.602 937 545.602 937 622.6 963 c 128,-1,2
 699.599 989 699.599 989 785.099 989 c 0,3,4
 991.197 989 991.197 989 1085.2 855 c 128,-1,5
 1179.22 721 1179.22 721 1138.28 487 c 0,6,7
 1095.07 240 1095.07 240 939.24 105.5 c 128,-1,8
 783.407 -29 783.407 -29 539.507 -29 c 0,9,10
 264.106 -29 264.106 -29 154.634 155.5 c 128,-1,11
 45.1611 340 45.1611 340 107.79 698 c 0,12,13
 178.992 1105 178.992 1105 372.793 1312.5 c 128,-1,14
 566.593 1520 566.593 1520 876.193 1520 c 0,15,16
 957.195 1520 957.195 1520 1047.27 1505 c 128,-1,17
 1137.35 1490 1137.35 1490 1238.29 1460 c 1,18,-1
 1192.11 1196 l 1,19,-1
 1083.21 1196 l 1,20,21
 1078.56 1298 1078.56 1298 1025.19 1350.5 c 128,-1,22
 971.82 1403 971.82 1403 872.824 1403 c 0,23,24
 712.624 1403 712.624 1403 619.731 1281 c 128,-1,25
 526.838 1159 526.838 1159 478.005 885 c 1,0,1
539.275 88 m 0,26,27
 631.976 88 631.976 88 686.883 175.5 c 128,-1,28
 741.791 263 741.791 263 779.577 479 c 0,29,30
 817.365 695 817.365 695 793.073 782.5 c 128,-1,31
 768.78 870 768.78 870 676.08 870 c 0,32,33
 583.38 870 583.38 870 528.923 782.5 c 128,-1,34
 474.466 695 474.466 695 436.678 479 c 0,35,36
 398.891 263 398.891 263 422.732 175.5 c 128,-1,37
 446.575 88 446.575 88 539.275 88 c 0,26,27
EndSplineSet
EndChar
StartChar: seven
Encoding: 55 55 55
Width: 1282
Flags: W
Fore
1215.66 1239 m 1,0,-1
 444.507 0 l 1,1,-1
 261.807 0 l 1,2,-1
 1013.49 1210 l 1,3,-1
 350.187 1210 l 1,4,-1
 314.847 1008 l 1,5,-1
 191.547 1008 l 1,6,-1
 276.394 1493 l 1,7,-1
 1260.09 1493 l 1,8,-1
 1215.66 1239 l 1,0,-1
EndSplineSet
EndChar
StartChar: eight
Encoding: 56 56 56
Width: 1282
Flags: W
Fore
865.46 795 m 1,0,1
 1020.58 766 1020.58 766 1085.99 664 c 128,-1,2
 1151.4 562 1151.4 562 1122.53 397 c 0,3,4
 1086.5 191 1086.5 191 927.297 81 c 128,-1,5
 768.106 -29 768.106 -29 504.407 -29 c 0,6,7
 240.707 -29 240.707 -29 119.551 81 c 128,-1,8
 -1.60547 191 -1.60547 191 34.4326 397 c 0,9,10
 63.2979 562 63.2979 562 164.842 664 c 128,-1,11
 266.386 766 266.386 766 430.76 795 c 1,12,13
 295.757 831 295.757 831 240.341 915.5 c 128,-1,14
 184.923 1000 184.923 1000 207.665 1130 c 0,15,16
 240.905 1320 240.905 1320 386.198 1420 c 128,-1,17
 531.493 1520 531.493 1520 775.394 1520 c 0,18,19
 1018.39 1520 1018.39 1520 1129.15 1420 c 128,-1,20
 1239.9 1320 1239.9 1320 1206.67 1130 c 0,21,22
 1183.92 1000 1183.92 1000 1098.49 915.5 c 128,-1,23
 1013.06 831 1013.06 831 865.46 795 c 1,0,1
857.666 1126 m 0,24,25
 885.307 1284 885.307 1284 861.515 1343.5 c 128,-1,26
 837.725 1403 837.725 1403 754.925 1403 c 0,27,28
 671.225 1403 671.225 1403 627.065 1343.5 c 128,-1,29
 582.906 1284 582.906 1284 555.266 1126 c 0,30,31
 527.8 969 527.8 969 551.314 910.5 c 128,-1,32
 574.831 852 574.831 852 658.531 852 c 0,33,34
 742.23 852 742.23 852 786.215 910.5 c 128,-1,35
 830.199 969 830.199 969 857.666 1126 c 0,24,25
768.206 414 m 0,36,37
 800.222 597 800.222 597 770.442 666 c 128,-1,38
 740.663 735 740.663 735 638.063 735 c 0,39,40
 534.563 735 534.563 735 481.092 666 c 128,-1,41
 427.621 597 427.621 597 395.605 414 c 0,42,43
 363.243 229 363.243 229 392.758 158.5 c 128,-1,44
 422.275 88 422.275 88 524.876 88 c 0,45,46
 626.575 88 626.575 88 681.208 158.5 c 128,-1,47
 735.843 229 735.843 229 768.206 414 c 0,36,37
EndSplineSet
EndChar
StartChar: nine
Encoding: 57 57 57
Width: 1282
Flags: W
Fore
743.225 1403 m 0,0,1
 650.524 1403 650.524 1403 596.067 1315.5 c 128,-1,2
 541.609 1228 541.609 1228 503.822 1012 c 0,3,4
 466.034 796 466.034 796 489.877 708.5 c 128,-1,5
 513.72 621 513.72 621 606.42 621 c 0,6,7
 699.12 621 699.12 621 754.027 708.5 c 128,-1,8
 808.935 796 808.935 796 846.723 1012 c 0,9,10
 884.509 1228 884.509 1228 860.217 1315.5 c 128,-1,11
 835.925 1403 835.925 1403 743.225 1403 c 0,0,1
804.845 608 m 1,12,13
 736.174 555 736.174 555 659.087 528.5 c 128,-1,14
 582.001 502 582.001 502 497.401 502 c 0,15,16
 292.201 502 292.201 502 198.106 635.5 c 128,-1,17
 104.011 769 104.011 769 145.122 1004 c 0,18,19
 188.509 1252 188.509 1252 343.351 1386 c 128,-1,20
 498.193 1520 498.193 1520 742.093 1520 c 0,21,22
 1017.5 1520 1017.5 1520 1127.33 1335 c 128,-1,23
 1237.17 1150 1237.17 1150 1174.71 793 c 0,24,25
 1103.51 386 1103.51 386 909.711 178.5 c 128,-1,26
 715.907 -29 715.907 -29 406.307 -29 c 0,27,28
 325.307 -29 325.307 -29 235.231 -14 c 128,-1,29
 145.155 1 145.155 1 44.2041 31 c 1,30,-1
 90.3887 295 l 1,31,-1
 199.289 295 l 1,32,33
 203.943 193 203.943 193 257.31 140.5 c 128,-1,34
 310.676 88 310.676 88 410.575 88 c 0,35,36
 568.976 88 568.976 88 662.406 210.5 c 128,-1,37
 755.836 333 755.836 333 804.845 608 c 1,12,13
EndSplineSet
EndChar
StartChar: colon
Encoding: 58 58 58
Width: 680
Flags: W
Fore
226.144 813 m 0,0,1
 239.964 892 239.964 892 299.711 948 c 128,-1,2
 359.457 1004 359.457 1004 429.657 1004 c 0,3,4
 499.857 1004 499.857 1004 540.373 947.5 c 128,-1,5
 580.89 891 580.89 891 567.244 813 c 0,6,7
 553.598 735 553.598 735 494.026 680 c 128,-1,8
 434.455 625 434.455 625 363.355 625 c 0,9,10
 292.255 625 292.255 625 252.376 680 c 128,-1,11
 212.498 735 212.498 735 226.144 813 c 0,0,1
112.256 162 m 0,12,13
 125.902 240 125.902 240 185.648 296 c 128,-1,14
 245.395 352 245.395 352 315.595 352 c 0,15,16
 385.795 352 385.795 352 426.398 296 c 128,-1,17
 467.002 240 467.002 240 453.356 162 c 0,18,19
 439.536 83 439.536 83 379.339 27 c 128,-1,20
 319.143 -29 319.143 -29 248.942 -29 c 0,21,22
 178.743 -29 178.743 -29 138.589 27 c 128,-1,23
 98.4355 83 98.4355 83 112.256 162 c 0,12,13
EndSplineSet
EndChar
StartChar: semicolon
Encoding: 59 59 59
Width: 680
Flags: W
Fore
252.473 813 m 0,0,1
 266.293 892 266.293 892 326.04 948 c 128,-1,2
 385.786 1004 385.786 1004 455.986 1004 c 0,3,4
 526.186 1004 526.186 1004 566.702 947.5 c 128,-1,5
 607.219 891 607.219 891 593.572 813 c 0,6,7
 579.927 735 579.927 735 520.355 680 c 128,-1,8
 460.783 625 460.783 625 389.683 625 c 0,9,10
 318.583 625 318.583 625 278.706 680 c 128,-1,11
 238.827 735 238.827 735 252.473 813 c 0,0,1
-44.1445 -188 m 1,12,13
 64.876 -105 64.876 -105 127.082 -1.5 c 128,-1,14
 189.288 102 189.288 102 213.432 240 c 2,15,-1
 228.826 328 l 1,16,-1
 485.326 328 l 1,17,18
 445.964 103 445.964 103 333.923 -59 c 128,-1,19
 221.883 -221 221.883 -221 30.9141 -330 c 1,20,-1
 -44.1445 -188 l 1,12,13
EndSplineSet
EndChar
StartChar: less
Encoding: 60 60 60
Width: 1544
Flags: W
Fore
1349.1 979 m 1,0,-1
 468 641 l 1,1,-1
 1349.1 305 l 1,2,-1
 1349.1 66 l 1,3,-1
 195.3 530 l 1,4,-1
 195.3 756 l 1,5,-1
 1349.1 1219 l 1,6,-1
 1349.1 979 l 1,0,-1
EndSplineSet
EndChar
StartChar: equal
Encoding: 61 61 61
Width: 1544
Flags: W
Fore
195.3 528 m 1,0,-1
 1349.1 528 l 1,1,-1
 1349.1 301 l 1,2,-1
 195.3 301 l 1,3,-1
 195.3 528 l 1,0,-1
195.3 983 m 1,4,-1
 1349.1 983 l 1,5,-1
 1349.1 756 l 1,6,-1
 195.3 756 l 1,7,-1
 195.3 983 l 1,4,-1
EndSplineSet
EndChar
StartChar: greater
Encoding: 62 62 62
Width: 1544
Flags: W
Fore
195.3 979 m 1,0,-1
 195.3 1219 l 1,1,-1
 1349.1 756 l 1,2,-1
 1349.1 530 l 1,3,-1
 195.3 66 l 1,4,-1
 195.3 305 l 1,5,-1
 1076.4 641 l 1,6,-1
 195.3 979 l 1,0,-1
EndSplineSet
EndChar
StartChar: question
Encoding: 63 63 63
Width: 1080
Flags: W
Fore
205.721 162 m 0,0,1
 219.367 240 219.367 240 279.563 296 c 128,-1,2
 339.761 352 339.761 352 409.961 352 c 0,3,4
 481.061 352 481.061 352 521.663 296 c 128,-1,5
 562.267 240 562.267 240 548.621 162 c 0,6,7
 534.801 83 534.801 83 474.604 27 c 128,-1,8
 414.407 -29 414.407 -29 343.307 -29 c 0,9,10
 273.106 -29 273.106 -29 232.504 27 c 128,-1,11
 191.9 83 191.9 83 205.721 162 c 0,0,1
243.297 1452 m 1,12,13
 360.844 1486 360.844 1486 464.619 1503 c 128,-1,14
 568.394 1520 568.394 1520 662.894 1520 c 0,15,16
 889.693 1520 889.693 1520 991.863 1409.5 c 128,-1,17
 1094.03 1299 1094.03 1299 1058.17 1094 c 0,18,19
 1022.83 892 1022.83 892 884.998 775.5 c 128,-1,20
 747.168 659 747.168 659 523.52 641 c 1,21,-1
 487.655 436 l 1,22,-1
 362.555 436 l 1,23,-1
 414.863 735 l 1,24,25
 548.386 778 548.386 778 622.98 870 c 128,-1,26
 697.574 962 697.574 962 724.517 1116 c 0,27,28
 749.708 1260 749.708 1260 707.666 1333.5 c 128,-1,29
 665.625 1407 665.625 1407 558.524 1407 c 0,30,31
 459.524 1407 459.524 1407 394.429 1341 c 128,-1,32
 329.332 1275 329.332 1275 298.489 1145 c 1,33,-1
 189.59 1145 l 1,34,-1
 243.297 1452 l 1,12,13
EndSplineSet
EndChar
StartChar: at
Encoding: 64 64 64
Width: 1843
Flags: W
Fore
1138.15 504 m 2,0,-1
 1151.45 580 l 2,1,2
 1174.01 709 1174.01 709 1131.95 787.5 c 128,-1,3
 1089.88 866 1089.88 866 998.982 866 c 0,4,5
 909.882 866 909.882 866 840.124 778.5 c 128,-1,6
 770.366 691 770.366 691 744.475 543 c 0,7,8
 718.583 395 718.583 395 757.638 307 c 128,-1,9
 796.693 219 796.693 219 885.794 219 c 0,10,11
 976.688 219 976.688 219 1046.05 296.5 c 128,-1,12
 1115.41 374 1115.41 374 1138.15 504 c 2,0,-1
1091.97 240 m 1,13,14
 1039.77 168 1039.77 168 968.778 130 c 128,-1,15
 897.776 92 897.776 92 816.776 92 c 0,16,17
 644.876 92 644.876 92 567.769 212 c 128,-1,18
 490.662 332 490.662 332 527.574 543 c 0,19,20
 564.488 754 564.488 754 683.494 873.5 c 128,-1,21
 802.499 993 802.499 993 974.403 993 c 0,22,23
 1055.4 993 1055.4 993 1113.1 955 c 128,-1,24
 1170.8 917 1170.8 917 1197.98 846 c 1,25,-1
 1219.85 971 l 1,26,-1
 1416.95 971 l 1,27,-1
 1287.14 229 l 1,28,29
 1422.67 268 1422.67 268 1513.33 385 c 128,-1,30
 1604 502 1604 502 1634.8 678 c 0,31,32
 1659.81 821 1659.81 821 1630.77 938 c 128,-1,33
 1601.75 1055 1601.75 1055 1516.84 1151 c 0,34,35
 1447.69 1229 1447.69 1229 1343.43 1271 c 128,-1,36
 1239.18 1313 1239.18 1313 1113.18 1313 c 0,37,38
 996.183 1313 996.183 1313 888.356 1278 c 128,-1,39
 780.535 1243 780.535 1243 683.864 1174 c 0,40,41
 537.52 1068 537.52 1068 439.979 904 c 128,-1,42
 342.438 740 342.438 740 307.975 543 c 0,43,44
 280.858 388 280.858 388 300.454 250.5 c 128,-1,45
 320.05 113 320.05 113 382.481 12 c 0,46,47
 457.963 -107 457.963 -107 572.841 -168 c 128,-1,48
 687.72 -229 687.72 -229 834.42 -229 c 0,49,50
 944.217 -229 944.217 -229 1052.77 -195 c 128,-1,51
 1161.32 -161 1161.32 -161 1265.73 -94 c 1,52,-1
 1300.59 -188 l 1,53,54
 1170.69 -272 1170.69 -272 1038.7 -314 c 128,-1,55
 906.705 -356 906.705 -356 777.102 -356 c 0,56,57
 602.501 -356 602.501 -356 467.723 -293 c 128,-1,58
 332.944 -230 332.944 -230 240.688 -104 c 0,59,60
 148.979 20 148.979 20 118.532 185.5 c 128,-1,61
 88.0859 351 88.0859 351 121.675 543 c 0,62,63
 155.265 735 155.265 735 243.529 900 c 128,-1,64
 331.795 1065 331.795 1065 467.062 1190 c 0,65,66
 604.305 1316 604.305 1316 762.302 1378 c 128,-1,67
 920.295 1440 920.295 1440 1104.79 1440 c 0,68,69
 1265 1440 1265 1440 1387.92 1391.5 c 128,-1,70
 1510.83 1343 1510.83 1343 1597.18 1245 c 1,71,72
 1697.46 1134 1697.46 1134 1732.02 992 c 128,-1,73
 1766.58 850 1766.58 850 1736.14 676 c 0,74,75
 1687.86 400 1687.86 400 1518.71 246 c 128,-1,76
 1349.58 92 1349.58 92 1093.98 92 c 2,77,-1
 1066.08 92 l 1,78,-1
 1091.97 240 l 1,13,14
EndSplineSet
EndChar
StartChar: A
Encoding: 65 65 65
Width: 1430
Flags: W
AnchorPoint: "below" 564.206 0 basechar 0
AnchorPoint: "above" 838.35 1465 basechar 0
Fore
-144.993 0 m 1,0,-1
 -123.826 121 l 1,1,-1
 -14.0264 121 l 1,2,-1
 731.794 1493 l 1,3,-1
 946.89 1493 l 1,4,-1
 1213.58 121 l 1,5,-1
 1341.38 121 l 1,6,-1
 1320.21 0 l 1,7,-1
 691.106 0 l 1,8,-1
 712.273 121 l 1,9,-1
 843.674 121 l 1,10,-1
 786.331 426 l 1,11,-1
 281.431 426 l 1,12,-1
 115.573 121 l 1,13,-1
 275.773 121 l 1,14,-1
 254.606 0 l 1,15,-1
 -144.993 0 l 1,0,-1
346.699 547 m 1,16,-1
 763.398 547 l 1,17,-1
 656.291 1118 l 1,18,-1
 346.699 547 l 1,16,-1
EndSplineSet
EndChar
StartChar: B
Encoding: 66 66 66
Width: 1557
Flags: W
AnchorPoint: "above" 904.194 1465 basechar 0
AnchorPoint: "below" 647.906 0 basechar 0
Fore
-44.1943 0 m 1,0,-1
 -23.0264 121 l 1,1,-1
 148.873 121 l 1,2,-1
 367.727 1372 l 1,3,-1
 195.826 1372 l 1,4,-1
 216.993 1493 l 1,5,-1
 1013.49 1493 l 2,6,7
 1259.19 1493 1259.19 1493 1366.4 1401 c 128,-1,8
 1473.61 1309 1473.61 1309 1441.24 1124 c 0,9,10
 1417.98 991 1417.98 991 1319.27 913 c 128,-1,11
 1220.58 835 1220.58 835 1049.69 815 c 1,12,13
 1248.51 794 1248.51 794 1339.19 695 c 128,-1,14
 1429.88 596 1429.88 596 1401.18 432 c 0,15,16
 1362.34 210 1362.34 210 1193.22 105 c 128,-1,17
 1024.11 0 1024.11 0 702.807 0 c 2,18,-1
 -44.1943 0 l 1,0,-1
626.405 870 m 1,19,-1
 744.306 870 l 2,20,21
 899.105 870 899.105 870 984.735 932.5 c 128,-1,22
 1070.37 995 1070.37 995 1092.94 1124 c 0,23,24
 1115.68 1254 1115.68 1254 1053.56 1313 c 128,-1,25
 991.422 1372 991.422 1372 832.127 1372 c 2,26,-1
 714.227 1372 l 1,27,-1
 626.405 870 l 1,19,-1
495.373 121 m 1,28,-1
 624.073 121 l 2,29,30
 795.974 121 795.974 121 892.069 197 c 128,-1,31
 988.164 273 988.164 273 1015.98 432 c 0,32,33
 1043.97 592 1043.97 592 974.088 671 c 128,-1,34
 904.212 750 904.212 750 734.113 750 c 2,35,-1
 605.413 750 l 1,36,-1
 495.373 121 l 1,28,-1
EndSplineSet
EndChar
StartChar: C
Encoding: 67 67 67
Width: 1467
Flags: W
AnchorPoint: "below" 669.681 0 basechar 0
AnchorPoint: "above" 943.65 1465 basechar 0
Fore
1317.51 426 m 1,0,1
 1223.99 195 1223.99 195 1066.7 83 c 128,-1,2
 909.405 -29 909.405 -29 677.207 -29 c 0,3,4
 337.007 -29 337.007 -29 175.932 179.5 c 128,-1,5
 14.8584 388 14.8584 388 77.3125 745 c 0,6,7
 139.941 1103 139.941 1103 373.968 1311.5 c 128,-1,8
 607.993 1520 607.993 1520 948.195 1520 c 0,9,10
 1067.89 1520 1067.89 1520 1191.9 1488 c 128,-1,11
 1315.9 1456 1315.9 1456 1449.42 1391 c 1,12,-1
 1385.22 1024 l 1,13,-1
 1270.92 1024 l 1,14,15
 1268.71 1212 1268.71 1212 1192.37 1305.5 c 128,-1,16
 1116.03 1399 1116.03 1399 963.927 1399 c 0,17,18
 767.725 1399 767.725 1399 644.246 1238.5 c 128,-1,19
 520.769 1078 520.769 1078 462.512 745 c 128,-1,20
 404.257 412 404.257 412 471.666 252 c 128,-1,21
 539.076 92 539.076 92 737.076 92 c 0,22,23
 871.176 92 871.176 92 970.749 175 c 128,-1,24
 1070.32 258 1070.32 258 1138.41 426 c 1,25,-1
 1317.51 426 l 1,0,1
EndSplineSet
EndChar
StartChar: D
Encoding: 68 68 68
Width: 1598
Flags: W
AnchorPoint: "below" 647.906 0 basechar 0
AnchorPoint: "above" 922.05 1465 basechar 0
Fore
495.373 121 m 1,0,-1
 620.474 121 l 2,1,2
 831.073 121 831.073 121 954.963 271 c 0,3,4
 1078.86 421 1078.86 421 1136.06 748 c 0,5,6
 1192.91 1073 1192.91 1073 1121.88 1222.5 c 0,7,8
 1050.82 1372 1050.82 1372 839.326 1372 c 2,9,-1
 714.227 1372 l 1,10,-1
 495.373 121 l 1,0,-1
-44.1943 0 m 1,11,-1
 -23.0264 121 l 1,12,-1
 148.873 121 l 1,13,-1
 367.727 1372 l 1,14,-1
 195.826 1372 l 1,15,-1
 216.993 1493 l 1,16,-1
 906.39 1493 l 2,17,18
 1268.19 1493 1268.19 1493 1426.3 1301 c 0,19,20
 1584.41 1109 1584.41 1109 1521.26 748 c 0,21,22
 1457.76 385 1457.76 385 1231.93 192.5 c 0,23,24
 1006.11 0 1006.11 0 645.206 0 c 2,25,-1
 -44.1943 0 l 1,11,-1
EndSplineSet
EndChar
StartChar: E
Encoding: 69 69 69
Width: 1404
Flags: W
AnchorPoint: "below" 602.906 0 basechar 0
AnchorPoint: "above" 877.05 1465 basechar 0
Fore
-44.1943 0 m 1,0,-1
 -23.0264 121 l 1,1,-1
 148.873 121 l 1,2,-1
 367.727 1372 l 1,3,-1
 195.826 1372 l 1,4,-1
 216.993 1493 l 1,5,-1
 1424.79 1493 l 1,6,-1
 1363.21 1141 l 1,7,-1
 1239.01 1141 l 1,8,-1
 1276.62 1356 l 1,9,-1
 711.428 1356 l 1,10,-1
 627.63 877 l 1,11,-1
 979.533 877 l 1,12,-1
 1012.77 1067 l 1,13,-1
 1136.07 1067 l 1,14,-1
 1045.8 551 l 1,15,-1
 922.5 551 l 1,16,-1
 955.737 741 l 1,17,-1
 603.838 741 l 1,18,-1
 498.173 137 l 1,19,-1
 1080.48 137 l 1,20,-1
 1118.09 352 l 1,21,-1
 1241.39 352 l 1,22,-1
 1179.81 0 l 1,23,-1
 -44.1943 0 l 1,0,-1
EndSplineSet
EndChar
StartChar: F
Encoding: 70 70 70
Width: 1308
Flags: W
AnchorPoint: "above" 850.195 1465 basechar 0
AnchorPoint: "below" 300.507 0 basechar 0
Fore
-44.1943 0 m 1,0,-1
 -23.0264 121 l 1,1,-1
 148.873 121 l 1,2,-1
 367.727 1372 l 1,3,-1
 195.826 1372 l 1,4,-1
 216.993 1493 l 1,5,-1
 1414.89 1493 l 1,6,-1
 1353.31 1141 l 1,7,-1
 1230.01 1141 l 1,8,-1
 1267.62 1356 l 1,9,-1
 713.228 1356 l 1,10,-1
 629.43 877 l 1,11,-1
 970.533 877 l 1,12,-1
 1003.77 1067 l 1,13,-1
 1127.07 1067 l 1,14,-1
 1036.8 551 l 1,15,-1
 913.5 551 l 1,16,-1
 946.737 741 l 1,17,-1
 605.638 741 l 1,18,-1
 497.174 121 l 1,19,-1
 708.674 121 l 1,20,-1
 687.507 0 l 1,21,-1
 -44.1943 0 l 1,0,-1
EndSplineSet
EndChar
StartChar: G
Encoding: 71 71 71
Width: 1574
Flags: W
AnchorPoint: "below" 687.681 0 basechar 0
AnchorPoint: "above" 961.65 1465 basechar 0
Fore
1316.82 1024 m 1,0,1
 1310.96 1222 1310.96 1222 1231.95 1310.5 c 128,-1,2
 1152.93 1399 1152.93 1399 981.027 1399 c 0,3,4
 772.225 1399 772.225 1399 647.021 1241.5 c 128,-1,5
 521.818 1084 521.818 1084 462.512 745 c 0,6,7
 403.731 409 403.731 409 469.604 250.5 c 128,-1,8
 535.476 92 535.476 92 733.476 92 c 0,9,10
 809.076 92 809.076 92 877.199 111 c 128,-1,11
 945.324 130 945.324 130 1005.08 168 c 1,12,-1
 1076.8 578 l 1,13,-1
 914.796 578 l 1,14,-1
 935.793 698 l 1,15,-1
 1419.99 698 l 1,16,-1
 1319.75 125 l 1,17,18
 1154.91 47 1154.91 47 997.506 9 c 128,-1,19
 840.106 -29 840.106 -29 682.606 -29 c 0,20,21
 337.007 -29 337.007 -29 175.67 178 c 128,-1,22
 14.333 385 14.333 385 77.3125 745 c 0,23,24
 140.467 1106 140.467 1106 374.229 1313 c 128,-1,25
 607.993 1520 607.993 1520 953.595 1520 c 0,26,27
 1097.59 1520 1097.59 1520 1231.5 1488 c 128,-1,28
 1365.4 1456 1365.4 1456 1495.32 1391 c 1,29,-1
 1431.12 1024 l 1,30,-1
 1316.82 1024 l 1,0,1
EndSplineSet
EndChar
StartChar: H
Encoding: 72 72 72
Width: 1741
Flags: W
AnchorPoint: "below" 742.406 0 basechar 0
AnchorPoint: "above" 1016.55 1465 basechar 0
Fore
-44.1943 0 m 1,0,-1
 -23.0264 121 l 1,1,-1
 148.873 121 l 1,2,-1
 367.727 1372 l 1,3,-1
 195.826 1372 l 1,4,-1
 216.993 1493 l 1,5,-1
 908.19 1493 l 1,6,-1
 887.026 1372 l 1,7,-1
 714.227 1372 l 1,8,-1
 626.405 870 l 1,9,-1
 1161.01 870 l 1,10,-1
 1248.82 1372 l 1,11,-1
 1076.92 1372 l 1,12,-1
 1098.09 1493 l 1,13,-1
 1789.29 1493 l 1,14,-1
 1768.12 1372 l 1,15,-1
 1595.32 1372 l 1,16,-1
 1376.48 121 l 1,17,-1
 1549.28 121 l 1,18,-1
 1528.11 0 l 1,19,-1
 836.906 0 l 1,20,-1
 858.073 121 l 1,21,-1
 1029.98 121 l 1,22,-1
 1137.04 733 l 1,23,-1
 602.438 733 l 1,24,-1
 495.373 121 l 1,25,-1
 668.174 121 l 1,26,-1
 647.007 0 l 1,27,-1
 -44.1943 0 l 1,0,-1
EndSplineSet
EndChar
StartChar: I
Encoding: 73 73 73
Width: 862
Flags: W
AnchorPoint: "below" 300.507 0 basechar 0
AnchorPoint: "above" 574.65 1465 basechar 0
Fore
-44.1943 0 m 1,0,-1
 -23.0264 121 l 1,1,-1
 148.873 121 l 1,2,-1
 367.727 1372 l 1,3,-1
 195.826 1372 l 1,4,-1
 216.993 1493 l 1,5,-1
 908.19 1493 l 1,6,-1
 887.026 1372 l 1,7,-1
 714.227 1372 l 1,8,-1
 495.373 121 l 1,9,-1
 668.174 121 l 1,10,-1
 647.007 0 l 1,11,-1
 -44.1943 0 l 1,0,-1
EndSplineSet
EndChar
StartChar: J
Encoding: 74 74 74
Width: 872
Flags: W
AnchorPoint: "below" 113.144 -430 basechar 0
AnchorPoint: "above" 587.25 1465 basechar 0
Fore
-290.961 -358 m 1,0,-1
 -249.849 -123 l 1,1,-1
 -132.849 -123 l 1,2,3
 -143.895 -217 -143.895 -217 -116.942 -261 c 0,4,5
 -89.9893 -305 -89.9893 -305 -21.5898 -305 c 0,6,7
 65.7109 -305 65.7109 -305 113.394 -230.5 c 0,8,9
 161.077 -156 161.077 -156 196.939 49 c 2,10,-1
 428.39 1372 l 1,11,-1
 233.089 1372 l 1,12,-1
 254.257 1493 l 1,13,-1
 969.759 1493 l 1,14,-1
 948.591 1372 l 1,15,-1
 776.689 1372 l 1,16,-1
 543.841 41 l 2,17,18
 501.33 -202 501.33 -202 371.486 -314 c 0,19,20
 241.643 -426 241.643 -426 1.34277 -426 c 0,21,22
 -73.3574 -426 -73.3574 -426 -145.982 -409 c 0,23,24
 -218.609 -392 -218.609 -392 -290.961 -358 c 1,0,-1
EndSplineSet
EndChar
StartChar: K
Encoding: 75 75 75
Width: 1602
Flags: W
AnchorPoint: "above" 1046.42 1460 basechar 0
AnchorPoint: "below" 791.007 0 basechar 0
Fore
-44.1943 0 m 1,0,-1
 -23.0264 121 l 1,1,-1
 148.873 121 l 1,2,-1
 367.727 1372 l 1,3,-1
 195.826 1372 l 1,4,-1
 216.993 1493 l 1,5,-1
 908.19 1493 l 1,6,-1
 887.026 1372 l 1,7,-1
 714.227 1372 l 1,8,-1
 618.882 827 l 1,9,-1
 1283.92 1372 l 1,10,-1
 1139.92 1372 l 1,11,-1
 1161.09 1493 l 1,12,-1
 1662.39 1493 l 1,13,-1
 1641.22 1372 l 1,14,-1
 1462.12 1372 l 1,15,-1
 899.078 911 l 1,16,-1
 1416.98 121 l 1,17,-1
 1549.28 121 l 1,18,-1
 1528.11 0 l 1,19,-1
 1072.71 0 l 1,20,-1
 601.039 725 l 1,21,-1
 495.373 121 l 1,22,-1
 668.174 121 l 1,23,-1
 647.007 0 l 1,24,-1
 -44.1943 0 l 1,0,-1
EndSplineSet
EndChar
StartChar: L
Encoding: 76 76 76
Width: 1296
Flags: W
AnchorPoint: "below" 593.906 0 basechar 0
AnchorPoint: "above" 556.796 1465 basechar 0
Fore
-44.1943 0 m 1,0,-1
 -23.0264 121 l 1,1,-1
 148.873 121 l 1,2,-1
 367.727 1372 l 1,3,-1
 195.826 1372 l 1,4,-1
 216.993 1493 l 1,5,-1
 908.19 1493 l 1,6,-1
 887.026 1372 l 1,7,-1
 714.227 1372 l 1,8,-1
 498.173 137 l 1,9,-1
 1027.38 137 l 1,10,-1
 1068.66 373 l 1,11,-1
 1190.16 373 l 1,12,-1
 1124.91 0 l 1,13,-1
 -44.1943 0 l 1,0,-1
EndSplineSet
EndChar
StartChar: M
Encoding: 77 77 77
Width: 2040
Flags: W
AnchorPoint: "below" 845.007 0 basechar 0
AnchorPoint: "above" 1100.42 1460 basechar 0
Fore
-53.1943 0 m 1,0,-1
 -32.0264 121 l 1,1,-1
 138.974 121 l 1,2,-1
 357.826 1372 l 1,3,-1
 186.826 1372 l 1,4,-1
 207.993 1493 l 1,5,-1
 762.394 1493 l 1,6,-1
 978.201 535 l 1,7,-1
 1530.99 1493 l 1,8,-1
 2084.49 1493 l 1,9,-1
 2063.32 1372 l 1,10,-1
 1891.42 1372 l 1,11,-1
 1672.58 121 l 1,12,-1
 1844.48 121 l 1,13,-1
 1823.31 0 l 1,14,-1
 1132.11 0 l 1,15,-1
 1153.28 121 l 1,16,-1
 1324.28 121 l 1,17,-1
 1523.53 1260 l 1,18,-1
 924.714 219 l 1,19,-1
 697.019 219 l 1,20,-1
 464.232 1260 l 1,21,-1
 264.974 121 l 1,22,-1
 435.974 121 l 1,23,-1
 414.807 0 l 1,24,-1
 -53.1943 0 l 1,0,-1
EndSplineSet
EndChar
StartChar: N
Encoding: 78 78 78
Width: 1684
Flags: W
AnchorPoint: "below" 696.507 0 basechar 0
AnchorPoint: "above" 970.65 1465 basechar 0
Fore
-49.5938 0 m 1,0,-1
 -28.4268 121 l 1,1,-1
 143.474 121 l 1,2,-1
 362.326 1372 l 1,3,-1
 190.427 1372 l 1,4,-1
 211.594 1493 l 1,5,-1
 631.894 1493 l 1,6,-1
 1257.88 436 l 1,7,-1
 1421.62 1372 l 1,8,-1
 1250.62 1372 l 1,9,-1
 1271.79 1493 l 1,10,-1
 1741.59 1493 l 1,11,-1
 1720.42 1372 l 1,12,-1
 1548.52 1372 l 1,13,-1
 1308.51 0 l 1,14,-1
 1072.71 0 l 1,15,-1
 437.969 1079 l 1,16,-1
 270.373 121 l 1,17,-1
 441.373 121 l 1,18,-1
 420.206 0 l 1,19,-1
 -49.5938 0 l 1,0,-1
EndSplineSet
EndChar
StartChar: O
Encoding: 79 79 79
Width: 1605
Flags: W
AnchorPoint: "below" 673.281 0 basechar 0
AnchorPoint: "above" 947.25 1465 basechar 0
Fore
687.576 92 m 0,0,1
 859.476 92 859.476 92 971.343 253 c 0,2,3
 1083.2 414 1083.2 414 1141.11 745 c 0,4,5
 1199.2 1077 1199.2 1077 1143.66 1238 c 0,6,7
 1088.13 1399 1088.13 1399 916.227 1399 c 0,8,9
 745.225 1399 745.225 1399 632.646 1236.5 c 0,10,11
 520.068 1074 520.068 1074 462.512 745 c 0,12,13
 405.132 417 405.132 417 460.854 254.5 c 0,14,15
 516.576 92 516.576 92 687.576 92 c 0,0,1
666.407 -29 m 0,16,17
 327.106 -29 327.106 -29 170.546 177 c 0,18,19
 13.9834 383 13.9834 383 77.3125 745 c 0,20,21
 140.643 1107 140.643 1107 369.817 1313.5 c 0,22,23
 598.993 1520 598.993 1520 937.395 1520 c 0,24,25
 1276.7 1520 1276.7 1520 1433.25 1314 c 0,26,27
 1589.81 1108 1589.81 1108 1526.31 745 c 0,28,29
 1462.99 383 1462.99 383 1233.9 177 c 0,30,31
 1004.8 -29 1004.8 -29 666.407 -29 c 0,16,17
EndSplineSet
EndChar
StartChar: P
Encoding: 80 80 80
Width: 1386
Flags: W
AnchorPoint: "above" 904.194 1465 basechar 0
AnchorPoint: "below" 300.507 0 basechar 0
Fore
-44.1943 0 m 1,0,-1
 -23.0264 121 l 1,1,-1
 148.873 121 l 1,2,-1
 367.727 1372 l 1,3,-1
 195.826 1372 l 1,4,-1
 216.993 1493 l 1,5,-1
 981.99 1493 l 2,6,7
 1206.09 1493 1206.09 1493 1317.66 1374.5 c 0,8,9
 1429.24 1256 1429.24 1256 1394.42 1057 c 0,10,11
 1359.43 857 1359.43 857 1205.78 737.5 c 128,-1,12
 1052.12 618 1052.12 618 828.92 618 c 2,13,-1
 582.319 618 l 1,14,-1
 495.373 121 l 1,15,-1
 712.273 121 l 1,16,-1
 691.106 0 l 1,17,-1
 -44.1943 0 l 1,0,-1
603.487 739 m 1,18,-1
 704.288 739 l 2,19,20
 821.288 739 821.288 739 906.174 825.5 c 0,21,22
 991.053 912 991.053 912 1016.42 1057 c 0,23,24
 1041.62 1201 1041.62 1201 987.272 1286.5 c 0,25,26
 932.922 1372 932.922 1372 815.026 1372 c 2,27,-1
 714.227 1372 l 1,28,-1
 603.487 739 l 1,18,-1
EndSplineSet
EndChar
StartChar: Q
Encoding: 81 81 81
Width: 1605
Flags: W
AnchorPoint: "below" 641.354 -369 basechar 0
AnchorPoint: "above" 962.199 1465 basechar 0
Fore
693.63 -29 m 1,0,1
 354.483 -23 354.483 -23 200.718 181 c 0,2,3
 91.6377 325.72 91.6377 325.72 91.6377 548.96 c 0,4,5
 91.6377 640.39 91.6377 640.39 109.935 745 c 0,6,7
 173.268 1107 173.268 1107 402.444 1313.5 c 128,-1,8
 631.62 1520 631.62 1520 970.02 1520 c 0,9,10
 1309.32 1520 1309.32 1520 1465.88 1314 c 0,11,12
 1577.26 1167.45 1577.26 1167.45 1577.26 941.43 c 0,13,14
 1577.26 849.75 1577.26 849.75 1558.93 745 c 0,15,16
 1503.31 427 1503.31 427 1320.62 229 c 128,-1,17
 1137.93 31 1137.93 31 856.107 -16 c 1,18,19
 893.835 -73 893.835 -73 957.861 -98 c 0,20,21
 1106.41 -156 1106.41 -156 1227.62 -156 c 2,22,-1
 1401.32 -156 l 1,23,-1
 1358.28 -402 l 1,24,-1
 1204.38 -402 l 2,25,26
 976.779 -402 976.779 -402 836.595 -287 c 0,27,28
 736.641 -205 736.641 -205 693.63 -29 c 1,0,1
720.198 92 m 0,29,30
 892.098 92 892.098 92 1003.97 253 c 128,-1,31
 1115.83 414 1115.83 414 1173.74 745 c 0,32,33
 1203.43 914.72 1203.43 914.72 1203.43 1039.75 c 0,34,35
 1203.43 1159.3 1203.43 1159.3 1176.28 1238 c 0,36,37
 1120.75 1399 1120.75 1399 948.852 1399 c 0,38,39
 777.852 1399 777.852 1399 665.271 1236.5 c 128,-1,40
 552.69 1074 552.69 1074 495.135 745 c 0,41,42
 466.029 578.6 466.029 578.6 466.029 454.79 c 0,43,44
 466.029 334.56 466.029 334.56 493.479 254.5 c 0,45,46
 549.198 92 549.198 92 720.198 92 c 0,29,30
EndSplineSet
EndChar
StartChar: R
Encoding: 82 82 82
Width: 1531
Flags: W
AnchorPoint: "below" 647.906 0 basechar 0
AnchorPoint: "above" 922.05 1465 basechar 0
Fore
975.24 729 m 1,0,1
 1053.06 716 1053.06 716 1099.92 670 c 0,2,3
 1146.77 624 1146.77 624 1172.05 537 c 2,4,-1
 1295.48 121 l 1,5,-1
 1433.18 121 l 1,6,-1
 1412.01 0 l 1,7,-1
 970.11 0 l 1,8,-1
 834.805 451 l 1,9,10
 797.195 591 797.195 591 760.282 629.5 c 0,11,12
 723.367 668 723.367 668 645.967 668 c 2,13,-1
 591.067 668 l 1,14,-1
 495.373 121 l 1,15,-1
 668.174 121 l 1,16,-1
 647.007 0 l 1,17,-1
 -44.1943 0 l 1,18,-1
 -23.0264 121 l 1,19,-1
 148.873 121 l 1,20,-1
 367.727 1372 l 1,21,-1
 195.826 1372 l 1,22,-1
 216.993 1493 l 1,23,-1
 983.79 1493 l 2,24,25
 1217.79 1493 1217.79 1493 1326.86 1388.5 c 0,26,27
 1435.93 1284 1435.93 1284 1402.34 1092 c 0,28,29
 1375.05 936 1375.05 936 1268.77 845.5 c 128,-1,30
 1162.49 755 1162.49 755 975.24 729 c 1,0,1
612.06 788 m 1,31,-1
 729.959 788 l 2,32,33
 855.959 788 855.959 788 937.206 864 c 0,34,35
 1018.45 940 1018.45 940 1043.12 1081 c 128,-1,36
 1067.79 1222 1067.79 1222 1012.96 1297 c 0,37,38
 958.122 1372 958.122 1372 832.127 1372 c 2,39,-1
 714.227 1372 l 1,40,-1
 612.06 788 l 1,31,-1
EndSplineSet
EndChar
StartChar: S
Encoding: 83 83 83
Width: 1331
Flags: W
AnchorPoint: "below" 525.681 0 basechar 0
AnchorPoint: "above" 799.65 1465 basechar 0
Fore
24.377 72 m 1,0,-1
 86.3057 426 l 1,1,-1
 200.606 426 l 1,2,3
 197.315 258 197.315 258 279.995 175 c 128,-1,4
 362.676 92 362.676 92 534.576 92 c 0,5,6
 674.076 92 674.076 92 757.296 151 c 128,-1,7
 840.519 210 840.519 210 860.461 324 c 0,8,9
 876.206 414 876.206 414 835.454 464 c 128,-1,10
 794.701 514 794.701 514 647.423 557 c 2,11,-1
 455.445 612 l 1,12,13
 268.143 668 268.143 668 205.448 767.5 c 128,-1,14
 142.755 867 142.755 867 174.944 1051 c 0,15,16
 213.781 1273 213.781 1273 368.138 1396.5 c 128,-1,17
 522.493 1520 522.493 1520 761.894 1520 c 0,18,19
 879.793 1520 879.793 1520 1003.29 1498 c 128,-1,20
 1126.8 1476 1126.8 1476 1255.9 1432 c 1,21,-1
 1198.17 1102 l 1,22,-1
 1083.87 1102 l 1,23,24
 1084.71 1256 1084.71 1256 1009.02 1327.5 c 128,-1,25
 933.327 1399 933.327 1399 770.424 1399 c 0,26,27
 637.225 1399 637.225 1399 560.266 1347.5 c 128,-1,28
 483.306 1296 483.306 1296 465.462 1194 c 0,29,30
 449.192 1101 449.192 1101 487.508 1052.5 c 128,-1,31
 525.822 1004 525.822 1004 699.426 952 c 1,32,-1
 891.403 897 l 2,33,34
 1069.51 845 1069.51 845 1134.41 735 c 128,-1,35
 1199.32 625 1199.32 625 1165.55 432 c 0,36,37
 1126.02 206 1126.02 206 965.061 88.5 c 128,-1,38
 804.106 -29 804.106 -29 531.407 -29 c 0,39,40
 400.007 -29 400.007 -29 274.781 -4 c 128,-1,41
 149.555 21 149.555 21 24.377 72 c 1,0,-1
EndSplineSet
EndChar
StartChar: T
Encoding: 84 84 84
Width: 1371
Flags: W
AnchorPoint: "below" 561.507 0 basechar 0
AnchorPoint: "above" 835.65 1465 basechar 0
Fore
203.307 0 m 1,0,-1
 224.474 121 l 1,1,-1
 402.674 121 l 1,2,-1
 618.728 1356 l 1,3,-1
 250.628 1356 l 1,4,-1
 209.341 1120 l 1,5,-1
 86.041 1120 l 1,6,-1
 151.294 1493 l 1,7,-1
 1483.29 1493 l 1,8,-1
 1418.04 1120 l 1,9,-1
 1296.54 1120 l 1,10,-1
 1337.82 1356 l 1,11,-1
 967.022 1356 l 1,12,-1
 750.974 121 l 1,13,-1
 930.078 121 l 1,14,-1
 908.91 0 l 1,15,-1
 203.307 0 l 1,0,-1
EndSplineSet
EndChar
StartChar: U
Encoding: 85 85 85
Width: 1607
Flags: W
AnchorPoint: "below" 721.543 0 basechar 0
AnchorPoint: "above" 993.15 1465 basechar 0
Fore
345.963 1372 m 1,0,-1
 174.963 1372 l 1,1,-1
 196.132 1493 l 1,2,-1
 887.332 1493 l 1,3,-1
 866.163 1372 l 1,4,-1
 694.263 1372 l 1,5,-1
 563.581 625 l 2,6,7
 514.772 346 514.772 346 573.566 234.5 c 0,8,9
 632.359 123 632.359 123 822.26 123 c 0,10,11
 1007.66 123 1007.66 123 1105.19 235.5 c 128,-1,12
 1202.72 348 1202.72 348 1251.18 625 c 2,13,-1
 1381.86 1372 l 1,14,-1
 1210.86 1372 l 1,15,-1
 1232.03 1493 l 1,16,-1
 1700.03 1493 l 1,17,-1
 1678.86 1372 l 1,18,-1
 1506.96 1372 l 1,19,-1
 1372.61 604 l 2,20,21
 1312.78 262 1312.78 262 1154.12 116.5 c 128,-1,22
 995.472 -29 995.472 -29 681.368 -29 c 0,23,24
 369.068 -29 369.068 -29 260.685 118 c 0,25,26
 152.303 265 152.303 265 211.957 606 c 2,27,-1
 345.963 1372 l 1,0,-1
EndSplineSet
EndChar
StartChar: V
Encoding: 86 86 86
Width: 1430
Flags: W
AnchorPoint: "below" 584.007 0 basechar 0
AnchorPoint: "above" 840.296 1465 basechar 0
Fore
1586.79 1493 m 1,0,-1
 1565.62 1372 l 1,1,-1
 1453.12 1372 l 1,2,-1
 706.406 0 l 1,3,-1
 492.206 0 l 1,4,-1
 225.526 1372 l 1,5,-1
 98.627 1372 l 1,6,-1
 119.794 1493 l 1,7,-1
 749.794 1493 l 1,8,-1
 728.627 1372 l 1,9,-1
 598.127 1372 l 1,10,-1
 787.809 383 l 1,11,-1
 1326.22 1372 l 1,12,-1
 1166.02 1372 l 1,13,-1
 1187.19 1493 l 1,14,-1
 1586.79 1493 l 1,0,-1
EndSplineSet
EndChar
StartChar: W
Encoding: 87 87 87
Width: 2070
Flags: W
AnchorPoint: "below" 907.983 5 basechar 0
AnchorPoint: "above" 1191.6 1472 basechar 0
Fore
1439.91 0 m 1,0,-1
 1207.71 0 l 1,1,-1
 1093.67 1087 l 1,2,-1
 599.307 0 l 1,3,-1
 367.106 0 l 1,4,-1
 223.727 1372 l 1,5,-1
 93.2266 1372 l 1,6,-1
 114.394 1493 l 1,7,-1
 751.594 1493 l 1,8,-1
 730.427 1372 l 1,9,-1
 586.427 1372 l 1,10,-1
 682.504 455 l 1,11,-1
 1153.89 1493 l 1,12,-1
 1409.49 1493 l 1,13,-1
 1520.13 438 l 1,14,-1
 1945.42 1372 l 1,15,-1
 1785.22 1372 l 1,16,-1
 1806.39 1493 l 1,17,-1
 2222.19 1493 l 1,18,-1
 2201.02 1372 l 1,19,-1
 2063.32 1372 l 1,20,-1
 1439.91 0 l 1,0,-1
EndSplineSet
EndChar
StartChar: X
Encoding: 88 88 88
Width: 1430
Flags: W
AnchorPoint: "above" 840.296 1465 basechar 0
AnchorPoint: "below" 584.007 0 basechar 0
Fore
594.598 575 m 1,0,-1
 235.273 121 l 1,1,-1
 400.873 121 l 1,2,-1
 379.706 0 l 1,3,-1
 -97.2939 0 l 1,4,-1
 -76.127 121 l 1,5,-1
 89.4736 121 l 1,6,-1
 543.065 692 l 1,7,-1
 241.727 1372 l 1,8,-1
 118.427 1372 l 1,9,-1
 139.594 1493 l 1,10,-1
 807.394 1493 l 1,11,-1
 786.227 1372 l 1,12,-1
 638.627 1372 l 1,13,-1
 825.25 952 l 1,14,-1
 1156.12 1372 l 1,15,-1
 999.521 1372 l 1,16,-1
 1020.69 1493 l 1,17,-1
 1488.69 1493 l 1,18,-1
 1467.52 1372 l 1,19,-1
 1301.92 1372 l 1,20,-1
 876.058 836 l 1,21,-1
 1191.98 121 l 1,22,-1
 1318.88 121 l 1,23,-1
 1297.71 0 l 1,24,-1
 627.206 0 l 1,25,-1
 648.373 121 l 1,26,-1
 797.773 121 l 1,27,-1
 594.598 575 l 1,0,-1
EndSplineSet
EndChar
StartChar: Y
Encoding: 89 89 89
Width: 1315
Flags: W
AnchorPoint: "below" 527.307 0 basechar 0
AnchorPoint: "above" 808.2 1472 basechar 0
Fore
186.206 0 m 1,0,-1
 207.373 121 l 1,1,-1
 388.273 121 l 1,2,-1
 475.22 618 l 1,3,-1
 207.526 1372 l 1,4,-1
 93.2266 1372 l 1,5,-1
 114.394 1493 l 1,6,-1
 758.794 1493 l 1,7,-1
 737.627 1372 l 1,8,-1
 588.227 1372 l 1,9,-1
 791.084 803 l 1,10,-1
 1191.22 1372 l 1,11,-1
 1057.12 1372 l 1,12,-1
 1078.29 1493 l 1,13,-1
 1463.49 1493 l 1,14,-1
 1442.32 1372 l 1,15,-1
 1328.02 1372 l 1,16,-1
 832.617 670 l 1,17,-1
 736.573 121 l 1,18,-1
 917.478 121 l 1,19,-1
 896.307 0 l 1,20,-1
 186.206 0 l 1,0,-1
EndSplineSet
EndChar
StartChar: Z
Encoding: 90 90 90
Width: 1345
Flags: W
AnchorPoint: "below" 542.606 0 basechar 0
AnchorPoint: "above" 816.75 1465 basechar 0
Fore
-62.1943 0 m 1,0,-1
 -37.5273 141 l 1,1,-1
 976.923 1356 l 1,2,-1
 333.428 1356 l 1,3,-1
 294.415 1133 l 1,4,-1
 171.115 1133 l 1,5,-1
 234.094 1493 l 1,6,-1
 1400.49 1493 l 1,7,-1
 1375.83 1352 l 1,8,-1
 370.372 137 l 1,9,-1
 1048.98 137 l 1,10,-1
 1085.54 346 l 1,11,-1
 1208.83 346 l 1,12,-1
 1148.31 0 l 1,13,-1
 -62.1943 0 l 1,0,-1
EndSplineSet
EndChar
StartChar: bracketleft
Encoding: 91 91 91
Width: 872
Flags: W
Fore
390.122 1556 m 1,0,-1
 900.423 1556 l 1,1,-1
 879.43 1436 l 1,2,-1
 687.729 1436 l 1,3,-1
 410.271 -150 l 1,4,-1
 601.971 -150 l 1,5,-1
 580.978 -270 l 1,6,-1
 70.6777 -270 l 1,7,-1
 390.122 1556 l 1,0,-1
EndSplineSet
EndChar
StartChar: backslash
Encoding: 92 92 92
Width: 673
Flags: W
Fore
346.114 1493 m 1,0,-1
 525.986 -190 l 1,1,-1
 326.187 -190 l 1,2,-1
 147.214 1493 l 1,3,-1
 346.114 1493 l 1,0,-1
EndSplineSet
EndChar
StartChar: bracketright
Encoding: 93 93 93
Width: 872
Flags: W
Fore
801.422 1556 m 1,0,-1
 481.978 -270 l 1,1,-1
 -29.2217 -270 l 1,2,-1
 -8.22949 -150 l 1,3,-1
 183.471 -150 l 1,4,-1
 460.93 1436 l 1,5,-1
 269.229 1436 l 1,6,-1
 290.222 1556 l 1,7,-1
 801.422 1556 l 1,0,-1
EndSplineSet
EndChar
StartChar: asciicircum
Encoding: 94 94 94
Width: 1544
Flags: W
Fore
875.7 1493 m 1,0,-1
 1358.1 936 l 1,1,-1
 1166.4 936 l 1,2,-1
 772.2 1251 l 1,3,-1
 378 936 l 1,4,-1
 186.3 936 l 1,5,-1
 675 1493 l 1,6,-1
 875.7 1493 l 1,0,-1
EndSplineSet
EndChar
StartChar: underscore
Encoding: 95 95 95
Width: 921
Flags: W
Fore
921.6 -293 m 1,0,-1
 921.6 -483 l 1,1,-1
 0 -483 l 1,2,-1
 0 -293 l 1,3,-1
 921.6 -293 l 1,0,-1
EndSplineSet
EndChar
StartChar: grave
Encoding: 96 96 96
Width: 921
Flags: W
Fore
487.8 1638 m 1,0,-1
 653.4 1262 l 1,1,-1
 505.8 1262 l 1,2,-1
 236.7 1638 l 1,3,-1
 487.8 1638 l 1,0,-1
EndSplineSet
EndChar
StartChar: a
Encoding: 97 97 97
Width: 1194
Flags: W
AnchorPoint: "below" 447.019 0 basechar 0
AnchorPoint: "above" 637.2 1092 basechar 0
Fore
756.873 876 m 17,0,1
 753.864 936 753.864 936 702.564 936 c 0,2,3
 581.893 936 581.893 936 463.974 776 c 0,4,5
 409.551 701.545 409.551 701.545 366.432 455.05 c 0,6,7
 333.982 269.562 333.982 269.562 357.15 198.28 c 128,-1,8
 380.315 127 380.315 127 466.645 127 c 0,9,10
 549.812 127 549.812 127 602.346 210 c 128,-1,11
 654.882 293.006 654.882 293.006 687.421 479 c 2,12,-1
 756.873 876 l 17,0,1
1062.98 1031 m 9,13,-1
 905.157 121 l 1,14,-1
 1025.14 123.265 l 1,15,-1
 1003.58 0 l 1,16,-1
 603.621 0 l 1,17,-1
 627.242 135 l 1,18,19
 528.115 -29 528.115 -29 353.027 -29 c 0,20,21
 179.258 -29 179.258 -29 101.985 98.5 c 128,-1,22
 24.7188 226 24.7188 226 63.5303 447.85 c 0,23,24
 102.652 671.479 102.652 671.479 275.251 864 c 0,25,26
 479.655 1092 479.655 1092 753.255 1092 c 0,27,28
 1023.25 1092 1023.25 1092 1062.98 1031 c 9,13,-1
EndSplineSet
EndChar
StartChar: b
Encoding: 98 98 98
Width: 1288
Flags: W
AnchorPoint: "above" 414.321 1465 basechar 0
AnchorPoint: "below" 472.132 0 basechar 0
Fore
296.748 1436 m 1,0,-1
 159.948 1436 l 1,1,-1
 180.945 1556 l 1,2,-1
 636.345 1556 l 1,3,-1
 526.482 928 l 1,4,5
 581.499 1011 581.499 1011 656.982 1051.5 c 128,-1,6
 732.465 1092 732.465 1092 833.265 1092 c 0,7,8
 1037.57 1092 1037.57 1092 1128.86 942.5 c 0,9,10
 1189.72 842.84 1189.72 842.84 1189.72 693.63 c 0,11,12
 1189.72 619.01 1189.72 619.01 1174.5 532 c 0,13,14
 1128.84 271 1128.84 271 985.149 121 c 0,15,16
 841.455 -29 841.455 -29 637.155 -29 c 0,17,18
 536.355 -29 536.355 -29 475.047 11.5 c 0,19,20
 413.73 52 413.73 52 387.747 135 c 1,21,-1
 364.131 0 l 1,22,-1
 45.5312 0 l 1,23,-1
 296.748 1436 l 1,0,-1
447.93 479 m 2,24,25
 430.506 379.4 430.506 379.4 430.506 309.34 c 0,26,27
 430.506 248.56 430.506 248.56 443.619 210 c 0,28,29
 471.852 127 471.852 127 567.252 127 c 0,30,31
 665.352 127 665.352 127 720.792 215 c 0,32,33
 776.241 303 776.241 303 816.3 532 c 0,34,35
 841.068 673.57 841.068 673.57 841.068 761.06 c 0,36,37
 841.068 815.09 841.068 815.09 831.618 848.5 c 0,38,39
 806.877 936 806.877 936 708.777 936 c 0,40,41
 613.377 936 613.377 936 556.11 853 c 0,42,43
 498.834 770 498.834 770 466.299 584 c 2,44,-1
 447.93 479 l 2,24,25
EndSplineSet
EndChar
StartChar: c
Encoding: 99 99 99
Width: 1122
Flags: W
AnchorPoint: "below" 504.618 0 basechar 0
AnchorPoint: "above" 694.8 1092 basechar 0
Fore
1004.6 332 m 1,0,1
 938.556 150 938.556 150 817.155 60.5 c 128,-1,2
 695.745 -29 695.745 -29 513.945 -29 c 0,3,4
 258.345 -29 258.345 -29 143.658 118 c 0,5,6
 62.1719 222.46 62.1719 222.46 62.1719 387.5 c 0,7,8
 62.1719 454.73 62.1719 454.73 75.6904 532 c 0,9,10
 121.869 796 121.869 796 286.362 944 c 128,-1,11
 450.855 1092 450.855 1092 697.455 1092 c 0,12,13
 797.355 1092 797.355 1092 895.383 1071 c 128,-1,14
 993.411 1050 993.411 1050 1091.36 1008 c 1,15,-1
 1039.75 713 l 1,16,-1
 938.952 713 l 1,17,18
 940.509 735.85 940.509 735.85 940.509 756.7 c 0,19,20
 940.509 859.08 940.509 859.08 902.925 913.5 c 0,21,22
 857.682 979 857.682 979 755.082 979 c 0,23,24
 621.882 979 621.882 979 548.145 879 c 128,-1,25
 474.399 779 474.399 779 431.19 532 c 0,26,27
 408.672 403.31 408.672 403.31 408.672 313.82 c 0,28,29
 408.672 235.73 408.672 235.73 425.817 187.5 c 0,30,31
 462.618 84 462.618 84 586.818 84 c 0,32,33
 683.118 84 683.118 84 752.364 148 c 128,-1,34
 821.61 212 821.61 212 855.198 332 c 1,35,-1
 1004.6 332 l 1,0,1
EndSplineSet
EndChar
StartChar: d
Encoding: 100 100 100
Width: 1288
Flags: W
AnchorPoint: "above" 1003.82 1465 basechar 0
AnchorPoint: "below" 479.332 0 basechar 0
Fore
741.33 479 m 2,0,-1
 759.699 584 l 2,1,2
 776.997 682.86 776.997 682.86 776.997 752.63 c 0,3,4
 776.997 814.12 776.997 814.12 763.56 853 c 0,5,6
 734.877 936 734.877 936 640.377 936 c 0,7,8
 541.377 936 541.377 936 486.018 848.5 c 128,-1,9
 430.659 761 430.659 761 390.6 532 c 0,10,11
 365.976 391.22 365.976 391.22 365.976 303.73 c 0,12,13
 365.976 248.9 365.976 248.9 375.642 215 c 0,14,15
 400.752 127 400.752 127 498.852 127 c 0,16,17
 593.352 127 593.352 127 651.069 210 c 0,18,19
 708.786 293 708.786 293 741.33 479 c 2,0,-1
1248.34 1556 m 1,20,-1
 976.131 0 l 1,21,-1
 657.531 0 l 1,22,-1
 681.147 135 l 1,23,24
 626.13 52 626.13 52 550.197 11.5 c 0,25,26
 474.255 -29 474.255 -29 373.455 -29 c 0,27,28
 170.055 -29 170.055 -29 79.749 121 c 0,29,30
 19.7637 220.63 19.7637 220.63 19.7637 369.22 c 0,31,32
 19.7637 444.35 19.7637 444.35 35.0996 532 c 0,33,34
 80.9365 794 80.9365 794 223.551 943 c 0,35,36
 366.165 1092 366.165 1092 569.565 1092 c 0,37,38
 670.365 1092 670.365 1092 732.132 1051.5 c 128,-1,39
 793.899 1011 793.899 1011 819.882 928 c 1,40,-1
 908.748 1436 l 1,41,-1
 771.948 1436 l 1,42,-1
 792.945 1556 l 1,43,-1
 1248.34 1556 l 1,20,-1
EndSplineSet
EndChar
StartChar: e
Encoding: 101 101 101
Width: 1172
Flags: W
AnchorPoint: "below" 492.918 0 basechar 0
AnchorPoint: "above" 683.1 1092 basechar 0
Fore
774 832 m 0,0,1
 774 979 774 979 662.4 979 c 0,2,3
 576.9 979 576.9 979 526.5 889.5 c 128,-1,4
 476.1 800 476.1 800 430.2 519 c 1,5,6
 450 519 l 0,7,8
 725.4 519 725.4 519 767.7 762 c 0,9,10
 774 800 774 800 774 832 c 0,0,1
408.6 400 m 1,11,12
 403.2 366 403.2 366 403.2 295 c 0,13,14
 404.1 84 404.1 84 588.6 84 c 0,15,16
 692.1 84 692.1 84 766.8 145 c 128,-1,17
 841.5 206 841.5 206 879.3 322 c 1,18,-1
 1028.7 322 l 1,19,20
 958.5 141 958.5 141 828.45 56 c 128,-1,21
 698.4 -29 698.4 -29 491.4 -29 c 0,22,23
 243 -29 243 -29 135.9 116 c 0,24,25
 61.2002 218 61.2002 218 61.2002 379 c 0,26,27
 61.2002 448 61.2002 448 75.5996 529 c 0,28,29
 121.5 796 121.5 796 283.5 944 c 128,-1,30
 445.5 1092 445.5 1092 683.1 1092 c 0,31,32
 855 1092 855 1092 974.25 1017.5 c 128,-1,33
 1093.5 943 1093.5 943 1093.5 808 c 0,34,35
 1093.5 781 1093.5 781 1088.1 752 c 0,36,37
 1031.4 428 1031.4 428 408.6 400 c 1,11,12
EndSplineSet
EndChar
StartChar: f
Encoding: 102 102 102
Width: 792
Flags: W
AnchorPoint: "below" 19.7959 -430 basechar 0
AnchorPoint: "above" 675.312 1465 basechar 0
Fore
-88.4385 -277 m 17,0,1
 -16.4385 -277 -16.4385 -277 26.0225 -219.5 c 128,-1,2
 68.4805 -162 68.4805 -162 91.0488 -33 c 2,3,-1
 261.618 942 l 1,4,-1
 119.418 942 l 1,5,-1
 140.585 1063 l 1,6,-1
 282.784 1063 l 1,7,-1
 306.052 1196 l 2,8,9
 337.017 1373 337.017 1373 454.725 1464.5 c 128,-1,10
 572.432 1556 572.432 1556 769.531 1556 c 0,11,12
 846.031 1556 846.031 1556 917.271 1546.5 c 128,-1,13
 988.506 1537 988.506 1537 1055.38 1518 c 1,14,-1
 1015.5 1290 l 1,15,-1
 914.697 1290 l 1,16,17
 915.939 1304.99 915.939 1304.99 915.939 1318.49 c 0,18,19
 915.939 1375.3 915.939 1375.3 894.041 1406 c 0,20,21
 866.938 1444 866.938 1444 804.839 1444 c 0,22,23
 732.839 1444 732.839 1444 690.379 1386.5 c 128,-1,24
 647.918 1329 647.918 1329 625.354 1200 c 2,25,-1
 601.385 1063 l 1,26,-1
 841.685 1063 l 1,27,-1
 820.519 942 l 1,28,-1
 580.219 942 l 1,29,-1
 410.348 -29 l 2,30,31
 373.724 -238.351 373.724 -238.351 261.676 -297.5 c 0,32,33
 88.3457 -389 88.3457 -389 -108.754 -389 c 1,34,35
 -98.5967 -333 -98.5967 -333 -88.4385 -277 c 17,0,1
EndSplineSet
EndChar
StartChar: g
Encoding: 103 103 103
Width: 1288
Flags: W
AnchorPoint: "below" 479.255 -430 basechar 0
AnchorPoint: "above" 707.4 1092 basechar 0
Fore
888.629 876 m 17,0,1
 883.864 936 883.864 936 825.894 936 c 0,2,3
 662.012 936 662.012 936 559.921 776 c 0,4,5
 495.476 675 495.476 675 456.996 455.05 c 0,6,7
 424.548 269.562 424.548 269.562 452.35 198.28 c 128,-1,8
 480.149 127 480.149 127 577.703 127 c 0,9,10
 671.684 127 671.684 127 729.159 210 c 128,-1,11
 786.638 293.006 786.638 293.006 819.177 479 c 2,12,-1
 888.629 876 l 17,0,1
1228.22 996 m 1,13,-1
 1056.43 14 l 2,14,15
 1013.48 -231.5 1013.48 -231.5 852.262 -332.5 c 0,16,17
 656.225 -455 656.225 -455 425.384 -455 c 0,18,19
 329.984 -455 329.984 -455 234.765 -438.5 c 128,-1,20
 139.555 -422 139.555 -422 41.832 -389 c 1,21,-1
 86.2656 -135 l 1,22,-1
 187.966 -135 l 1,23,24
 187.56 -143.74 187.56 -143.74 187.56 -152.11 c 0,25,26
 187.56 -244.25 187.56 -244.25 236.719 -291 c 0,27,28
 290.348 -342 290.348 -342 406.448 -342 c 0,29,30
 554.048 -342 554.048 -342 628.533 -263.5 c 128,-1,31
 703.016 -185.002 703.016 -185.002 737.83 14 c 2,32,-1
 758.997 135 l 1,33,34
 648.954 -29 648.954 -29 446.726 -29 c 0,35,36
 246.021 -29 246.021 -29 153.314 98.5 c 128,-1,37
 60.6133 226 60.6133 226 99.4238 447.85 c 0,38,39
 146.958 719.565 146.958 719.565 374.528 916 c 0,40,41
 578.424 1092 578.424 1092 878.594 1092 c 0,42,43
 1120.21 1092 1120.21 1092 1228.22 996 c 1,13,-1
EndSplineSet
EndChar
StartChar: h
Encoding: 104 104 104
Width: 1340
Flags: W
AnchorPoint: "below" 543.395 0 basechar 0
AnchorPoint: "above" 435.153 1465 basechar 0
Fore
62.793 0 m 1,0,-1
 314.01 1436 l 1,1,-1
 171.81 1436 l 1,2,-1
 192.807 1556 l 1,3,-1
 653.607 1556 l 1,4,-1
 541.116 913 l 1,5,6
 615.339 1008 615.339 1008 696.483 1050 c 0,7,8
 777.627 1092 777.627 1092 890.127 1092 c 0,9,10
 1051.24 1092 1051.24 1092 1115.13 986.5 c 0,11,12
 1156.05 918.93 1156.05 918.93 1156.05 810.54 c 0,13,14
 1156.05 749.7 1156.05 749.7 1143.15 676 c 2,15,-1
 1046.06 121 l 1,16,-1
 1182.86 121 l 1,17,-1
 1161.69 0 l 1,18,-1
 706.293 0 l 1,19,-1
 826.308 686 l 2,20,21
 838.566 756.1 838.566 756.1 838.566 803.95 c 0,22,23
 838.566 848.26 838.566 848.26 828.054 873.5 c 0,24,25
 806.193 926 806.193 926 729.693 926 c 0,26,27
 633.393 926 633.393 926 574.659 847.5 c 128,-1,28
 515.925 769 515.925 769 486.009 598 c 2,29,-1
 381.393 0 l 1,30,-1
 62.793 0 l 1,0,-1
EndSplineSet
EndChar
StartChar: i
Encoding: 105 105 105
Width: 700
Flags: W
AnchorPoint: "below" 206.795 0 basechar 0
AnchorPoint: "above" 533.371 1584 basechar 0
Fore
271.719 1364 m 0,0,1
 285.885 1445 285.885 1445 345.996 1500.5 c 128,-1,2
 406.107 1556 406.107 1556 479.007 1556 c 0,3,4
 550.107 1556 550.107 1556 590.346 1500.5 c 0,5,6
 620.109 1459.45 620.109 1459.45 620.109 1404.46 c 0,7,8
 620.109 1385.09 620.109 1385.09 616.419 1364 c 0,9,10
 602.595 1285 602.595 1285 542.934 1229.5 c 0,11,12
 483.273 1174 483.273 1174 412.182 1174 c 0,13,14
 339.282 1174 339.282 1174 298.503 1229 c 0,15,16
 268.137 1269.95 268.137 1269.95 268.137 1324.75 c 0,17,18
 268.137 1343.56 268.137 1343.56 271.719 1364 c 0,0,1
402.561 121 m 1,19,-1
 539.361 121 l 1,20,-1
 518.193 0 l 1,21,-1
 62.793 0 l 1,22,-1
 227.592 942 l 1,23,-1
 91.6924 942 l 1,24,-1
 112.86 1063 l 1,25,-1
 567.36 1063 l 1,26,-1
 402.561 121 l 1,19,-1
EndSplineSet
Substitution2: "Single Substitution - Dotless Form" dotlessi
EndChar
StartChar: j
Encoding: 106 106 106
Width: 666
Flags: W
AnchorPoint: "below" 25.5693 -430 basechar 0
AnchorPoint: "above" 549.571 1584 basechar 0
Fore
302.517 1364 m 0,0,1
 316.683 1445 316.683 1445 376.344 1500.5 c 128,-1,2
 436.005 1556 436.005 1556 509.805 1556 c 0,3,4
 580.005 1556 580.005 1556 620.604 1500 c 0,5,6
 650.799 1458.35 650.799 1458.35 650.799 1403.44 c 0,7,8
 650.799 1384.51 650.799 1384.51 647.217 1364 c 0,9,10
 633.393 1285 633.393 1285 573.732 1229.5 c 0,11,12
 514.08 1174 514.08 1174 442.98 1174 c 0,13,14
 370.08 1174 370.08 1174 329.301 1229 c 0,15,16
 298.935 1269.95 298.935 1269.95 298.935 1324.75 c 0,17,18
 298.935 1343.56 298.935 1343.56 302.517 1364 c 0,0,1
265.59 942 m 1,19,-1
 129.69 942 l 1,20,-1
 150.858 1063 l 1,21,-1
 605.358 1063 l 1,22,-1
 397.53 -125 l 2,23,24
 369.009 -288 369.009 -288 250.452 -371.5 c 0,25,26
 131.895 -455 131.895 -455 -70.6055 -455 c 0,27,28
 -124.605 -455 -124.605 -455 -184.059 -445 c 0,29,30
 -243.504 -435 -243.504 -435 -305.883 -416 c 1,31,-1
 -266.346 -190 l 1,32,-1
 -164.817 -191 l 1,33,34
 -169.389 -220.99 -169.389 -220.99 -169.389 -244.72 c 0,35,36
 -169.389 -284.31 -169.389 -284.31 -156.672 -306.5 c 0,37,38
 -136.332 -342 -136.332 -342 -76.9316 -342 c 0,39,40
 -11.2324 -342 -11.2324 -342 23.085 -295 c 0,41,42
 57.4111 -248 57.4111 -248 78.9297 -125 c 2,43,-1
 265.59 942 l 1,19,-1
EndSplineSet
Substitution2: "Single Substitution - Dotless Form" dotlessj
EndChar
StartChar: k
Encoding: 107 107 107
Width: 1277
Flags: W
AnchorPoint: "above" 411.785 1465 basechar 0
AnchorPoint: "below" 543.395 0 basechar 0
Fore
381.393 0 m 1,0,-1
 62.793 0 l 1,1,-1
 314.01 1436 l 1,2,-1
 178.11 1436 l 1,3,-1
 199.107 1556 l 1,4,-1
 653.607 1556 l 1,5,-1
 478.836 557 l 1,6,-1
 932.292 942 l 1,7,-1
 817.992 942 l 1,8,-1
 839.16 1063 l 1,9,-1
 1098.36 1063 l 1,10,-1
 1077.19 942 l 1,11,-1
 787.554 696 l 1,12,-1
 1090.16 121 l 1,13,-1
 1193.66 121 l 1,14,-1
 1172.49 0 l 1,15,-1
 820.593 0 l 1,16,-1
 557.964 500 l 1,17,-1
 453.474 412 l 1,18,-1
 381.393 0 l 1,0,-1
EndSplineSet
EndChar
StartChar: l
Encoding: 108 108 108
Width: 700
Flags: W
AnchorPoint: "above" 411.785 1465 basechar 0
AnchorPoint: "below" 206.795 0 basechar 0
Fore
402.561 121 m 1,0,-1
 539.361 121 l 1,1,-1
 518.193 0 l 1,2,-1
 62.793 0 l 1,3,-1
 314.01 1436 l 1,4,-1
 178.11 1436 l 1,5,-1
 199.107 1556 l 1,6,-1
 653.607 1556 l 1,7,-1
 402.561 121 l 1,0,-1
EndSplineSet
EndChar
StartChar: m
Encoding: 109 109 109
Width: 1950
Flags: W
AnchorPoint: "below" 889.981 0 basechar 0
AnchorPoint: "above" 1081.02 1092 basechar 0
Fore
1178.7 889 m 1,0,1
 1263.85 995 1263.85 995 1349.73 1043.5 c 0,2,3
 1435.62 1092 1435.62 1092 1539.12 1092 c 0,4,5
 1703.82 1092 1703.82 1092 1767.16 988.5 c 0,6,7
 1807.32 922.88 1807.32 922.88 1807.32 814.84 c 0,8,9
 1807.32 752.48 1807.32 752.48 1793.94 676 c 2,10,-1
 1696.85 121 l 1,11,-1
 1833.65 121 l 1,12,-1
 1812.48 0 l 1,13,-1
 1357.08 0 l 1,14,-1
 1466.07 623 l 2,15,16
 1488.87 753.31 1488.87 753.31 1488.87 820.59 c 0,17,18
 1488.87 856.05 1488.87 856.05 1482.53 874 c 0,19,20
 1464.17 926 1464.17 926 1389.47 926 c 0,21,22
 1304.87 926 1304.87 926 1245.39 853.5 c 128,-1,23
 1185.91 781 1185.91 781 1162.47 647 c 2,24,-1
 1049.28 0 l 1,25,-1
 730.683 0 l 1,26,-1
 839.673 623 l 2,27,28
 862.272 752.21 862.272 752.21 862.272 819.45 c 0,29,30
 862.272 855.76 862.272 855.76 855.684 874 c 0,31,32
 836.874 926 836.874 926 763.074 926 c 0,33,34
 677.574 926 677.574 926 618.093 853.5 c 0,35,36
 558.612 781 558.612 781 535.167 647 c 2,37,-1
 421.983 0 l 1,38,-1
 103.383 0 l 1,39,-1
 268.182 942 l 1,40,-1
 132.282 942 l 1,41,-1
 153.441 1063 l 1,42,-1
 607.941 1063 l 1,43,-1
 581.706 913 l 1,44,45
 653.769 1006 653.769 1006 733.293 1049 c 0,46,47
 812.817 1092 812.817 1092 911.817 1092 c 0,48,49
 1028.82 1092 1028.82 1092 1093.06 1042.5 c 128,-1,50
 1157.3 993 1157.3 993 1178.7 889 c 1,0,1
EndSplineSet
EndChar
StartChar: n
Encoding: 110 110 110
Width: 1340
Flags: W
AnchorPoint: "below" 583.981 0 basechar 0
AnchorPoint: "above" 696.6 1092 basechar 0
Fore
103.383 0 m 1,0,-1
 268.182 942 l 1,1,-1
 132.282 942 l 1,2,-1
 153.441 1063 l 1,3,-1
 607.941 1063 l 1,4,-1
 581.706 913 l 1,5,6
 655.92 1008 655.92 1008 737.073 1050 c 0,7,8
 818.217 1092 818.217 1092 930.717 1092 c 0,9,10
 1091.82 1092 1091.82 1092 1155.71 986.5 c 0,11,12
 1196.64 918.93 1196.64 918.93 1196.64 810.53 c 0,13,14
 1196.64 749.7 1196.64 749.7 1183.74 676 c 2,15,-1
 1086.65 121 l 1,16,-1
 1223.45 121 l 1,17,-1
 1202.28 0 l 1,18,-1
 746.883 0 l 1,19,-1
 866.889 686 l 2,20,21
 879.156 756.1 879.156 756.1 879.156 803.95 c 0,22,23
 879.156 848.26 879.156 848.26 868.644 873.5 c 0,24,25
 846.774 926 846.774 926 770.274 926 c 0,26,27
 673.974 926 673.974 926 615.24 847.5 c 0,28,29
 556.515 769 556.515 769 526.599 598 c 2,30,-1
 421.983 0 l 1,31,-1
 103.383 0 l 1,0,-1
EndSplineSet
EndChar
StartChar: o
Encoding: 111 111 111
Width: 1229
Flags: W
AnchorPoint: "below" 522.618 0 basechar 0
AnchorPoint: "above" 712.8 1092 basechar 0
Fore
537.318 84 m 0,0,1
 638.118 84 638.118 84 695.862 180 c 128,-1,2
 753.606 276 753.606 276 798.39 532 c 0,3,4
 827.631 699.18 827.631 699.18 827.631 797.91 c 0,5,6
 827.631 850.37 827.631 850.37 819.378 883.5 c 0,7,8
 795.582 979 795.582 979 693.882 979 c 128,-1,9
 592.182 979 592.182 979 533.907 882.5 c 128,-1,10
 475.623 786 475.623 786 431.19 532 c 0,11,12
 402.516 368.11 402.516 368.11 402.516 269.58 c 0,13,14
 402.516 215.41 402.516 215.41 411.183 181 c 0,15,16
 435.618 84 435.618 84 537.318 84 c 0,0,1
517.545 -29 m 128,-1,18
 264.645 -29 264.645 -29 147.249 120.5 c 0,19,20
 62.8203 228.02 62.8203 228.02 62.8203 393.73 c 0,21,22
 62.8203 458.43 62.8203 458.43 75.6904 532 c 0,23,24
 121.698 795 121.698 795 291.222 943.5 c 128,-1,25
 460.755 1092 460.755 1092 713.655 1092 c 0,26,27
 967.455 1092 967.455 1092 1084.57 943.5 c 0,28,29
 1168.67 836.88 1168.67 836.88 1168.67 671.24 c 0,30,31
 1168.67 606.17 1168.67 606.17 1155.69 532 c 0,32,33
 1109.85 270 1109.85 270 940.149 120.5 c 128,-1,17
 770.445 -29 770.445 -29 517.545 -29 c 128,-1,18
EndSplineSet
EndChar
StartChar: p
Encoding: 112 112 112
Width: 1288
Flags: W
AnchorPoint: "below" 209.419 -430 basechar 0
AnchorPoint: "above" 811.382 1092 basechar 0
Fore
541.611 584 m 2,0,-1
 523.242 479 l 2,1,2
 505.818 379.4 505.818 379.4 505.818 309.34 c 0,3,4
 505.818 248.56 505.818 248.56 518.931 210 c 0,5,6
 547.164 127 547.164 127 642.564 127 c 0,7,8
 740.664 127 740.664 127 796.104 215 c 0,9,10
 851.553 303 851.553 303 891.612 532 c 0,11,12
 916.38 673.56 916.38 673.56 916.38 761.05 c 0,13,14
 916.38 815.09 916.38 815.09 906.93 848.5 c 0,15,16
 882.189 936 882.189 936 784.089 936 c 0,17,18
 688.689 936 688.689 936 631.422 853 c 0,19,20
 574.146 770 574.146 770 541.611 584 c 2,0,-1
285.642 942 m 1,21,-1
 148.842 942 l 1,22,-1
 170.01 1063 l 1,23,-1
 625.41 1063 l 1,24,-1
 601.794 928 l 1,25,26
 656.811 1011 656.811 1011 732.294 1051.5 c 0,27,28
 807.777 1092 807.777 1092 908.577 1092 c 0,29,30
 1112.88 1092 1112.88 1092 1204.17 942.5 c 0,31,32
 1265.04 842.84 1265.04 842.84 1265.04 693.64 c 0,33,34
 1265.04 619.02 1265.04 619.02 1249.81 532 c 0,35,36
 1204.16 271 1204.16 271 1060.46 121 c 0,37,38
 916.767 -29 916.767 -29 712.476 -29 c 0,39,40
 611.676 -29 611.676 -29 550.359 11.5 c 128,-1,41
 489.042 52 489.042 52 463.059 135 c 1,42,-1
 364.923 -426 l 1,43,-1
 46.3232 -426 l 1,44,-1
 285.642 942 l 1,21,-1
EndSplineSet
EndChar
StartChar: q
Encoding: 113 113 113
Width: 1288
Flags: W
AnchorPoint: "below" 816.919 -430 basechar 0
AnchorPoint: "above" 738.481 1092 basechar 0
Fore
1225.69 996 m 1,0,-1
 998.973 -300 l 1,1,-1
 1143.64 -301.753 l 1,2,-1
 1122.25 -424 l 1,3,-1
 658.324 -426 l 1,4,-1
 756.461 135 l 1,5,6
 646.42 -29 646.42 -29 444.189 -29 c 0,7,8
 243.484 -29 243.484 -29 150.777 98.5 c 128,-1,9
 58.0762 226 58.0762 226 96.8867 447.85 c 0,10,11
 144.422 719.565 144.422 719.565 371.99 916 c 0,12,13
 575.888 1092 575.888 1092 876.057 1092 c 0,14,15
 1117.67 1092 1117.67 1092 1225.69 996 c 1,0,-1
886.092 876 m 17,16,17
 881.327 936 881.327 936 823.356 936 c 0,18,19
 659.476 936 659.476 936 557.384 776 c 0,20,21
 492.939 675 492.939 675 454.46 455.05 c 0,22,23
 422.011 269.562 422.011 269.562 449.813 198.28 c 128,-1,24
 477.613 127 477.613 127 575.166 127 c 0,25,26
 669.147 127 669.147 127 726.621 210 c 128,-1,27
 784.102 293.006 784.102 293.006 816.641 479 c 2,28,-1
 886.092 876 l 17,16,17
EndSplineSet
EndChar
StartChar: r
Encoding: 114 114 114
Width: 971
Flags: W
AnchorPoint: "below" 247.381 0 basechar 0
AnchorPoint: "above" 694.8 1092 basechar 0
Fore
1082.55 1075 m 1,0,-1
 1027.09 758 l 1,1,-1
 925.389 758 l 1,2,3
 927.738 779.07 927.738 779.07 927.738 797.46 c 0,4,5
 927.738 853.28 927.738 853.28 906.12 884.5 c 0,6,7
 877.374 926 877.374 926 808.974 926 c 0,8,9
 704.574 926 704.574 926 626.436 824 c 0,10,11
 548.289 722 548.289 722 516.627 541 c 2,12,-1
 421.983 0 l 1,13,-1
 103.383 0 l 1,14,-1
 268.182 942 l 1,15,-1
 122.382 942 l 1,16,-1
 143.541 1063 l 1,17,-1
 607.941 1063 l 1,18,-1
 574.884 874 l 1,19,20
 641.097 985 641.097 985 727.407 1038.5 c 0,21,22
 813.717 1092 813.717 1092 925.317 1092 c 0,23,24
 953.217 1092 953.217 1092 992.484 1087.5 c 0,25,26
 1031.74 1083 1031.74 1083 1082.55 1075 c 1,0,-1
EndSplineSet
EndChar
StartChar: s
Encoding: 115 115 115
Width: 1037
Flags: W
AnchorPoint: "below" 427.219 0 basechar 0
AnchorPoint: "above" 617.4 1092 basechar 0
Fore
50.4004 328 m 1,0,-1
 152.1 328 l 1,1,2
 151.2 313 151.2 313 151.2 299 c 0,3,4
 151.2 201 151.2 201 204.3 142.5 c 128,-1,5
 257.4 84 257.4 84 364.5 84 c 0,6,7
 574.2 84 574.2 84 599.4 229 c 0,8,9
 603 248 603 248 603 276 c 0,10,11
 603 303 603 303 580.05 333 c 128,-1,12
 557.1 363 557.1 363 467.1 389 c 2,13,-1
 342 426 l 2,14,15
 200.7 467 200.7 467 155.7 532 c 128,-1,16
 110.7 597 110.7 597 110.7 677 c 0,17,18
 110.7 711 110.7 711 117 750 c 0,19,20
 147.6 923 147.6 923 270.45 1007.5 c 128,-1,21
 393.3 1092 393.3 1092 589.5 1092 c 128,-1,22
 785.7 1092 785.7 1092 999.9 1028 c 1,23,-1
 952.2 760 l 1,24,-1
 850.5 760 l 1,25,26
 853.2 779 853.2 779 853.2 796 c 0,27,28
 853.2 979 853.2 979 649.8 979 c 0,29,30
 445.5 979 445.5 979 422.1 844 c 0,31,32
 419.4 828 419.4 828 419.4 805 c 0,33,34
 419.4 740 419.4 740 530.1 707 c 2,35,-1
 654.3 670 l 2,36,37
 833.4 617 833.4 617 882.9 550.5 c 128,-1,38
 932.4 484 932.4 484 932.4 398 c 0,39,40
 932.4 363 932.4 363 925.2 322 c 0,41,42
 893.7 142 893.7 142 763.2 56.5 c 128,-1,43
 632.7 -29 632.7 -29 388.8 -29 c 0,44,45
 211.5 -29 211.5 -29 -0.900391 31 c 1,46,-1
 50.4004 328 l 1,0,-1
EndSplineSet
EndChar
StartChar: t
Encoding: 116 116 116
Width: 851
Flags: W
AnchorPoint: "above" 478.98 1465 basechar 0
AnchorPoint: "below" 381.989 0 basechar 0
Fore
228.186 942 m 1,0,-1
 89.5859 942 l 1,1,-1
 110.754 1063 l 1,2,-1
 249.354 1063 l 1,3,-1
 307.08 1393 l 1,4,-1
 625.68 1393 l 1,5,-1
 567.954 1063 l 1,6,-1
 833.454 1063 l 1,7,-1
 812.286 942 l 1,8,-1
 546.786 942 l 1,9,-1
 432.9 291 l 2,10,11
 417.402 202.44 417.402 202.44 417.402 156.51 c 0,12,13
 417.402 130.34 417.402 130.34 422.433 118 c 0,14,15
 436.284 84 436.284 84 488.484 84 c 0,16,17
 546.084 84 546.084 84 581.508 127 c 128,-1,18
 616.932 170 616.932 170 634.473 260 c 1,19,-1
 768.573 260 l 1,20,21
 732.483 100 732.483 100 650.547 35.5 c 0,22,23
 568.62 -29 568.62 -29 395.82 -29 c 0,24,25
 198.72 -29 198.72 -29 140.499 39.5 c 0,26,27
 102.942 83.7002 102.942 83.7002 102.942 175.55 c 0,28,29
 102.942 226.07 102.942 226.07 114.3 291 c 2,30,-1
 228.186 942 l 1,0,-1
EndSplineSet
EndChar
StartChar: u
Encoding: 117 117 117
Width: 1340
Flags: W
AnchorPoint: "below" 545.855 0 basechar 0
AnchorPoint: "above" 733.5 1092 basechar 0
Fore
1236.72 1063 m 1,0,-1
 1071.93 121 l 1,1,-1
 1207.83 121 l 1,2,-1
 1186.66 0 l 1,3,-1
 731.259 0 l 1,4,-1
 757.494 150 l 1,5,6
 684.18 55 684.18 55 603.027 13 c 0,7,8
 521.883 -29 521.883 -29 409.383 -29 c 0,9,10
 248.283 -29 248.283 -29 184.392 76.5 c 0,11,12
 143.46 144.07 143.46 144.07 143.46 252.46 c 0,13,14
 143.46 313.3 143.46 313.3 156.357 387 c 2,15,-1
 253.449 942 l 1,16,-1
 116.649 942 l 1,17,-1
 137.817 1063 l 1,18,-1
 593.217 1063 l 1,19,-1
 484.578 442 l 2,20,21
 462.753 317.25 462.753 317.25 462.753 249.86 c 0,22,23
 462.753 210.29 462.753 210.29 470.277 190.5 c 0,24,25
 490.626 137 490.626 137 569.826 137 c 0,26,27
 666.126 137 666.126 137 724.491 216 c 0,28,29
 782.865 295 782.865 295 812.952 467 c 2,30,-1
 917.217 1063 l 1,31,-1
 1236.72 1063 l 1,0,-1
EndSplineSet
EndChar
StartChar: v
Encoding: 118 118 118
Width: 1071
Flags: W
AnchorPoint: "above" 643.455 1092 basechar 0
AnchorPoint: "below" 451.544 -5 basechar 0
Fore
573.92 0 m 1,0,-1
 318.32 0 l 1,1,-1
 143.811 942 l 1,2,-1
 38.5107 942 l 1,3,-1
 59.6787 1063 l 1,4,-1
 449.379 1063 l 1,5,-1
 595.952 270 l 1,6,7
 619.358 270.429 619.358 270.429 763.818 484 c 0,8,9
 896.465 688.307 896.465 688.307 954.711 942 c 1,10,-1
 849.411 942 l 1,11,-1
 870.978 1065.27 l 1,12,-1
 1084.78 1063 l 1,13,14
 1087.04 814.273 1087.04 814.273 905.76 480 c 0,15,16
 734.4 164 734.4 164 573.92 0 c 1,0,-1
EndSplineSet
EndChar
StartChar: w
Encoding: 119 119 119
Width: 1586
Flags: W
AnchorPoint: "below" 710.719 0 basechar 0
AnchorPoint: "above" 892.503 1092 basechar 0
Fore
1185.02 300 m 1,0,1
 1193.12 308 1193.12 308 1320.02 482 c 0,2,3
 1448.07 664.89 1448.07 664.89 1499.21 942 c 1,4,-1
 1373.71 939.736 l 1,5,-1
 1395.28 1063 l 1,6,-1
 1640.08 1063 l 1,7,8
 1588.68 680.729 1588.68 680.729 1475.71 485 c 0,9,10
 1301.4 180 1301.4 180 1129.22 0 c 1,11,-1
 909.621 0 l 1,12,-1
 823.632 666 l 1,13,-1
 502.82 0 l 1,14,-1
 285.021 0 l 1,15,-1
 160.011 942 l 1,16,-1
 55.6104 942 l 1,17,-1
 76.7783 1063 l 1,18,-1
 469.179 1063 l 1,19,-1
 560.718 367 l 1,20,-1
 896.677 1063 l 1,21,-1
 1086.58 1063 l 1,22,-1
 1185.02 300 l 1,0,1
EndSplineSet
EndChar
StartChar: x
Encoding: 120 120 120
Width: 1098
Flags: W
AnchorPoint: "above" 643.455 1092 basechar 0
AnchorPoint: "below" 450.669 -10 basechar 0
Fore
672.732 678 m 1,0,-1
 986.679 1063 l 1,1,-1
 1115.38 1063 l 1,2,-1
 705.708 563 l 1,3,-1
 912.789 121 l 1,4,-1
 1039.69 121 l 1,5,-1
 1018.52 0 l 1,6,-1
 610.821 0 l 1,7,-1
 423.567 401 l 1,8,-1
 94.2207 0 l 1,9,-1
 -33.5791 0 l 1,10,-1
 388.242 518 l 1,11,-1
 187.911 942 l 1,12,-1
 80.8105 942 l 1,13,-1
 101.979 1063 l 1,14,-1
 491.679 1063 l 1,15,-1
 672.732 678 l 1,0,-1
EndSplineSet
EndChar
StartChar: y
Encoding: 121 121 121
Width: 1071
Flags: W
AnchorPoint: "below" 416.992 -430 basechar 0
AnchorPoint: "above" 634.203 1092 basechar 0
Fore
446.665 -272.994 m 1,0,-1
 190.809 942 l 1,1,-1
 87.3086 942 l 1,2,-1
 108.477 1063 l 1,3,-1
 499.077 1063 l 1,4,-1
 713.719 34.9707 l 1,5,6
 817.249 201.143 817.249 201.143 886.524 388.572 c 128,-1,7
 955.8 576 955.8 576 1024.2 940 c 1,8,-1
 896.15 941 l 1,9,-1
 917.316 1062 l 1,10,-1
 1174.98 1063 l 1,11,12
 1152.81 934.89 1152.81 934.89 1120.29 769.762 c 0,13,14
 1040.4 364 1040.4 364 940.419 176 c 0,15,16
 676.878 -313.837 676.878 -313.837 465.218 -404 c 0,17,18
 345.495 -455 345.495 -455 173.225 -455 c 0,19,20
 88.0625 -455 88.0625 -455 -35.2617 -412 c 1,21,-1
 3.58203 -190 l 1,22,-1
 105.102 -191 l 1,23,24
 101.737 -215.074 101.737 -215.074 101.737 -235.24 c 0,25,26
 101.737 -304.349 101.737 -304.349 143.55 -325.888 c 0,27,28
 162.894 -335.852 162.894 -335.852 201.988 -342 c 0,29,30
 223.416 -345.37 223.416 -345.37 244.945 -345.37 c 0,31,32
 344.72 -345.37 344.72 -345.37 446.665 -272.994 c 1,0,-1
EndSplineSet
EndChar
StartChar: z
Encoding: 122 122 122
Width: 1046
Flags: W
AnchorPoint: "below" 430.818 0 basechar 0
AnchorPoint: "above" 621 1092 basechar 0
Fore
1056.76 944 m 1,0,-1
 426.336 194.816 l 1,1,2
 456.707 183.248 456.707 183.248 482.363 166 c 0,3,4
 596.294 98 596.294 98 667.567 98 c 0,5,6
 775.567 98 775.567 98 937.737 243 c 1,7,-1
 910.089 85 l 1,8,9
 750.203 -83 750.203 -83 606.203 -83 c 0,10,11
 531.777 -79.2334 531.777 -79.2334 416.914 -14.584 c 0,12,13
 287.952 58 287.952 58 237.562 58 c 0,14,15
 187.169 58 187.169 58 134.995 35 c 128,-1,16
 82.8223 12 82.8223 12 61.4727 -2 c 1,17,-1
 -28.1797 0 l 1,18,-1
 -7.01074 121 l 1,19,-1
 621.43 868.794 l 1,20,21
 592.02 880.264 592.02 880.264 567.039 897 c 0,22,23
 453.135 965 453.135 965 381.835 965 c 0,24,25
 273.835 965 273.835 965 111.668 820 c 1,26,-1
 139.31 978 l 1,27,28
 299.198 1146 299.198 1146 443.198 1146 c 0,29,30
 517.619 1142.23 517.619 1142.23 632.485 1077.58 c 0,31,32
 761.441 1005 761.441 1005 811.837 1005 c 0,33,34
 862.232 1005 862.232 1005 914.409 1028 c 128,-1,35
 966.582 1051 966.582 1051 987.93 1065 c 1,36,-1
 1077.58 1063 l 1,37,-1
 1056.76 944 l 1,0,-1
EndSplineSet
EndChar
StartChar: braceleft
Encoding: 123 123 123
Width: 1185
Flags: W
Fore
875.548 -213 m 1,0,-1
 854.38 -334 l 1,1,-1
 721.18 -334 l 2,2,3
 508.78 -334 508.78 -334 439.266 -309.5 c 128,-1,4
 369.752 -285 369.752 -285 335.599 -223 c 0,5,6
 315.797 -187 315.797 -187 314.168 -132 c 128,-1,7
 312.54 -77 312.54 -77 332.133 35 c 2,8,-1
 375.869 285 l 2,9,10
 402.285 436 402.285 436 364.194 493.5 c 128,-1,11
 326.104 551 326.104 551 199.203 551 c 2,12,-1
 144.304 551 l 1,13,-1
 165.472 672 l 1,14,-1
 220.371 672 l 2,15,16
 347.271 672 347.271 672 405.48 729.5 c 128,-1,17
 463.689 787 463.689 787 490.105 938 c 2,18,-1
 533.841 1188 l 2,19,20
 553.436 1300 553.436 1300 574.219 1354.5 c 128,-1,21
 595.004 1409 595.004 1409 627.577 1446 c 0,22,23
 683.248 1507 683.248 1507 761.334 1531.5 c 128,-1,24
 839.42 1556 839.42 1556 1051.82 1556 c 2,25,-1
 1185.02 1556 l 1,26,-1
 1164.02 1436 l 1,27,-1
 1071.32 1436 l 2,28,29
 970.524 1436 970.524 1436 925.407 1389 c 128,-1,30
 880.283 1342 880.283 1342 856.49 1206 c 2,31,-1
 809.257 936 l 2,32,33
 781.441 777 781.441 777 725.081 709.5 c 128,-1,34
 668.723 642 668.723 642 547.375 612 c 1,35,36
 659.326 578 659.326 578 691.431 512 c 128,-1,37
 723.535 446 723.535 446 695.719 287 c 2,38,-1
 648.31 16 l 2,39,40
 624.692 -119 624.692 -119 653.37 -166 c 128,-1,41
 682.048 -213 682.048 -213 782.848 -213 c 2,42,-1
 875.548 -213 l 1,0,-1
EndSplineSet
EndChar
StartChar: bar
Encoding: 124 124 124
Width: 670
Flags: W
Fore
431.1 1565 m 1,0,-1
 431.1 -483 l 1,1,-1
 237.6 -483 l 1,2,-1
 237.6 1565 l 1,3,-1
 431.1 1565 l 1,0,-1
EndSplineSet
EndChar
StartChar: braceright
Encoding: 125 125 125
Width: 1185
Flags: W
Fore
23.248 -213 m 1,0,-1
 114.147 -213 l 2,1,2
 214.048 -213 214.048 -213 259.62 -166 c 128,-1,3
 305.192 -119 305.192 -119 328.81 16 c 2,4,-1
 376.219 287 l 2,5,6
 403.685 444 403.685 444 459.506 511 c 128,-1,7
 515.326 578 515.326 578 640.074 612 c 1,8,9
 528.322 642 528.322 642 495.219 710 c 128,-1,10
 462.116 778 462.116 778 489.757 936 c 2,11,-1
 536.99 1206 l 2,12,13
 560.783 1342 560.783 1342 531.655 1389 c 128,-1,14
 502.526 1436 502.526 1436 402.627 1436 c 2,15,-1
 311.727 1436 l 1,16,-1
 332.72 1556 l 1,17,-1
 464.12 1556 l 2,18,19
 676.521 1556 676.521 1556 746.034 1531.5 c 128,-1,20
 815.549 1507 815.549 1507 849.877 1446 c 0,21,22
 869.504 1409 869.504 1409 871.219 1354.5 c 128,-1,23
 872.936 1300 872.936 1300 853.341 1188 c 2,24,-1
 809.605 938 l 2,25,26
 783.189 787 783.189 787 821.28 729.5 c 128,-1,27
 859.371 672 859.371 672 985.374 672 c 2,28,-1
 1041.17 672 l 1,29,-1
 1020.01 551 l 1,30,-1
 964.206 551 l 2,31,32
 838.203 551 838.203 551 779.994 493.5 c 128,-1,33
 721.784 436 721.784 436 695.369 285 c 2,34,-1
 651.633 35 l 2,35,36
 632.04 -77 632.04 -77 611.168 -132 c 128,-1,37
 590.297 -187 590.297 -187 557.898 -223 c 0,38,39
 502.052 -285 502.052 -285 423.966 -309.5 c 128,-1,40
 345.88 -334 345.88 -334 133.479 -334 c 2,41,-1
 2.0791 -334 l 1,42,-1
 23.248 -213 l 1,0,-1
EndSplineSet
EndChar
StartChar: asciitilde
Encoding: 126 126 126
Width: 1544
Flags: W
Fore
1349.1 831 m 1,0,-1
 1349.1 625 l 1,1,2
 1265.4 539 1265.4 539 1181.25 498 c 128,-1,3
 1097.1 457 1097.1 457 1006.2 457 c 0,4,5
 920.7 457 920.7 457 783.9 515 c 0,6,7
 768.6 521 768.6 521 761.4 524 c 0,8,9
 755.1 527 755.1 527 743.4 532 c 0,10,11
 588.6 598 588.6 598 501.3 598 c 0,12,13
 432 598 432 598 356.85 562 c 128,-1,14
 281.7 526 281.7 526 195.3 453 c 1,15,-1
 195.3 659 l 1,16,17
 281.7 746 281.7 746 364.95 786.5 c 128,-1,18
 448.2 827 448.2 827 538.2 827 c 0,19,20
 623.7 827 623.7 827 759.6 770 c 0,21,22
 775.8 763 775.8 763 783 760 c 2,23,-1
 796.5 754 l 2,24,25
 952.2 686 952.2 686 1043.1 686 c 0,26,27
 1112.4 686 1112.4 686 1187.55 722 c 128,-1,28
 1262.7 758 1262.7 758 1349.1 831 c 1,0,-1
EndSplineSet
EndChar
StartChar: exclamdown
Encoding: 161 161 161
Width: 809
Flags: W
Fore
674.643 1329 m 0,0,1
 660.996 1251 660.996 1251 600.975 1196 c 128,-1,2
 540.953 1141 540.953 1141 470.753 1141 c 0,3,4
 399.653 1141 399.653 1141 359.775 1196 c 128,-1,5
 319.896 1251 319.896 1251 333.543 1329 c 0,6,7
 347.362 1408 347.362 1408 407.109 1464 c 128,-1,8
 466.856 1520 466.856 1520 537.056 1520 c 0,9,10
 607.256 1520 607.256 1520 647.771 1463.5 c 128,-1,11
 688.287 1407 688.287 1407 674.643 1329 c 0,0,1
440.344 0 m 1,12,-1
 102.844 0 l 1,13,-1
 355.445 842 l 1,14,-1
 388.684 1032 l 1,15,-1
 513.784 1032 l 1,16,-1
 480.545 842 l 1,17,-1
 440.344 0 l 1,12,-1
EndSplineSet
EndChar
StartChar: cent
Encoding: 162 162 162
Width: 1282
Flags: W
Fore
589.088 94 m 1,0,-1
 742.162 969 l 1,1,2
 648.688 944 648.688 944 591.956 843.5 c 128,-1,3
 535.225 743 535.225 743 498.312 532 c 0,4,5
 461.399 321 461.399 321 482.606 221 c 128,-1,6
 503.811 121 503.811 121 589.088 94 c 1,0,-1
1075.32 332 m 1,7,8
 1019.06 175 1019.06 175 918.351 85.5 c 128,-1,9
 817.643 -4 817.643 -4 677.52 -23 c 1,10,-1
 629.235 -299 l 1,11,-1
 520.335 -299 l 1,12,-1
 567.569 -29 l 1,13,14
 319.319 -23 319.319 -23 209.049 123.5 c 128,-1,15
 98.7773 270 98.7773 270 144.613 532 c 0,16,17
 190.447 794 190.447 794 351.802 939.5 c 128,-1,18
 513.155 1085 513.155 1085 763.68 1092 c 1,19,-1
 809.865 1356 l 1,20,-1
 918.765 1356 l 1,21,-1
 871.706 1087 l 1,22,23
 924.102 1083 924.102 1083 993.23 1064 c 128,-1,24
 1062.36 1045 1062.36 1045 1162.09 1008 c 1,25,-1
 1110.47 713 l 1,26,-1
 1008.77 713 l 1,27,28
 1017.32 839 1017.32 839 979.101 903.5 c 128,-1,29
 940.887 968 940.887 968 852.812 979 c 1,30,-1
 696.938 88 l 1,31,32
 781.637 104 781.637 104 839.108 165 c 128,-1,33
 896.58 226 896.58 226 925.92 332 c 1,34,-1
 1075.32 332 l 1,7,8
EndSplineSet
EndChar
StartChar: sterling
Encoding: 163 163 163
Width: 1282
Flags: W
Fore
1199.63 1202 m 1,0,-1
 1091.63 1202 l 1,1,2
 1103.19 1299 1103.19 1299 1068.09 1353 c 128,-1,3
 1032.98 1407 1032.98 1407 957.384 1407 c 0,4,5
 852.088 1407 852.088 1407 793.154 1332.5 c 128,-1,6
 734.222 1258 734.222 1258 703.606 1083 c 2,7,-1
 656.722 815 l 1,8,-1
 973.521 815 l 1,9,-1
 952.353 694 l 1,10,-1
 635.554 694 l 1,11,-1
 538.111 137 l 1,12,-1
 916.11 137 l 1,13,-1
 955.998 365 l 1,14,-1
 1079.3 365 l 1,15,-1
 1015.44 0 l 1,16,-1
 -0.65625 0 l 1,17,-1
 20.5117 121 l 1,18,-1
 194.212 121 l 1,19,-1
 294.454 694 l 1,20,-1
 120.754 694 l 1,21,-1
 141.922 815 l 1,22,-1
 315.622 815 l 1,23,-1
 364.081 1092 l 2,24,25
 401.869 1308 401.869 1308 540.562 1414 c 128,-1,26
 679.256 1520 679.256 1520 925.857 1520 c 0,27,28
 984.357 1520 984.357 1520 1064.23 1511 c 128,-1,29
 1144.11 1502 1144.11 1502 1249.14 1485 c 1,30,-1
 1199.63 1202 l 1,0,-1
EndSplineSet
EndChar
StartChar: currency
Encoding: 164 164 164
Width: 1172
Flags: W
Fore
587.7 422 m 0,0,1
 669.6 422 669.6 422 727.2 485.5 c 128,-1,2
 784.8 549 784.8 549 784.8 641 c 0,3,4
 784.8 733 784.8 733 727.65 796.5 c 128,-1,5
 670.5 860 670.5 860 587.7 860 c 0,6,7
 505.8 860 505.8 860 448.2 796.5 c 128,-1,8
 390.6 733 390.6 733 390.6 641 c 0,9,10
 390.6 548 390.6 548 447.3 485 c 128,-1,11
 504 422 504 422 587.7 422 c 0,0,1
392.4 268 m 1,12,-1
 204.3 61 l 1,13,-1
 68.4004 215 l 1,14,-1
 256.5 424 l 1,15,16
 228.6 470 228.6 470 215.55 523.5 c 128,-1,17
 202.5 577 202.5 577 202.5 641 c 0,18,19
 202.5 704 202.5 704 216 758 c 128,-1,20
 229.5 812 229.5 812 256.5 858 c 1,21,-1
 68.4004 1063 l 1,22,-1
 206.1 1221 l 1,23,-1
 392.4 1010 l 1,24,25
 435.6 1040 435.6 1040 484.2 1054.5 c 128,-1,26
 532.8 1069 532.8 1069 587.7 1069 c 0,27,28
 637.2 1069 637.2 1069 686.25 1054.5 c 128,-1,29
 735.3 1040 735.3 1040 786.6 1010 c 1,30,-1
 971.1 1221 l 1,31,-1
 1107.9 1067 l 1,32,-1
 919.8 862 l 1,33,34
 946.8 806 946.8 806 959.85 750.5 c 128,-1,35
 972.9 695 972.9 695 972.9 641 c 0,36,37
 972.9 578 972.9 578 959.85 525.5 c 128,-1,38
 946.8 473 946.8 473 919.8 426 c 1,39,-1
 1107.9 215 l 1,40,-1
 967.5 61 l 1,41,-1
 781.2 272 l 1,42,43
 739.8 242 739.8 242 692.1 227.5 c 128,-1,44
 644.4 213 644.4 213 587.7 213 c 0,45,46
 535.5 213 535.5 213 486.9 227 c 128,-1,47
 438.3 241 438.3 241 392.4 268 c 1,12,-1
EndSplineSet
EndChar
StartChar: yen
Encoding: 165 165 165
Width: 1282
Flags: W
Fore
162.807 0 m 1,0,-1
 183.974 121 l 1,1,-1
 354.974 121 l 1,2,-1
 415.504 467 l 1,3,-1
 52.8037 467 l 1,4,-1
 73.2715 584 l 1,5,-1
 435.972 584 l 1,6,-1
 446.294 643 l 1,7,-1
 415.011 778 l 1,8,-1
 107.211 778 l 1,9,-1
 127.679 895 l 1,10,-1
 385.078 895 l 1,11,-1
 267.826 1372 l 1,12,-1
 144.526 1372 l 1,13,-1
 165.693 1493 l 1,14,-1
 790.294 1493 l 1,15,-1
 769.127 1372 l 1,16,-1
 616.127 1372 l 1,17,-1
 751.933 821 l 1,18,-1
 1078.72 1372 l 1,19,-1
 942.822 1372 l 1,20,-1
 963.99 1493 l 1,21,-1
 1356.39 1493 l 1,22,-1
 1335.22 1372 l 1,23,-1
 1213.72 1372 l 1,24,-1
 931.383 895 l 1,25,-1
 1194.18 895 l 1,26,-1
 1173.71 778 l 1,27,-1
 858.711 778 l 1,28,-1
 790.718 662 l 1,29,-1
 777.071 584 l 1,30,-1
 1139.77 584 l 1,31,-1
 1119.3 467 l 1,32,-1
 756.604 467 l 1,33,-1
 696.073 121 l 1,34,-1
 867.073 121 l 1,35,-1
 845.906 0 l 1,36,-1
 162.807 0 l 1,0,-1
EndSplineSet
EndChar
StartChar: brokenbar
Encoding: 166 166 166
Width: 670
Flags: W
Fore
431.1 1432 m 1,0,-1
 431.1 674 l 1,1,-1
 237.6 674 l 1,2,-1
 237.6 1432 l 1,3,-1
 431.1 1432 l 1,0,-1
431.1 408 m 1,4,-1
 431.1 -350 l 1,5,-1
 237.6 -350 l 1,6,-1
 237.6 408 l 1,7,-1
 431.1 408 l 1,4,-1
EndSplineSet
EndChar
StartChar: section
Encoding: 167 167 167
Width: 963
Flags: W
Fore
949.438 1475 m 1,0,-1
 907.452 1235 l 1,1,-1
 800.354 1235 l 1,2,3
 809.999 1321 809.999 1321 770.722 1364 c 128,-1,4
 731.444 1407 731.444 1407 644.145 1407 c 0,5,6
 571.244 1407 571.244 1407 523.821 1370 c 128,-1,7
 476.398 1333 476.398 1333 464.678 1266 c 0,8,9
 456.456 1219 456.456 1219 474.982 1186 c 128,-1,10
 493.51 1153 493.51 1153 566.287 1106 c 2,11,-1
 675.19 1034 l 1,12,13
 828.146 936 828.146 936 876.901 852 c 128,-1,14
 925.659 768 925.659 768 905.535 653 c 0,15,16
 887.344 549 887.344 549 823.099 475 c 128,-1,17
 758.853 401 758.853 401 648.73 358 c 1,18,19
 715.208 311 715.208 311 738.749 247.5 c 128,-1,20
 762.29 184 762.29 184 746.546 94 c 0,21,22
 722.577 -43 722.577 -43 611.183 -119 c 128,-1,23
 499.787 -195 499.787 -195 319.787 -195 c 0,24,25
 245.087 -195 245.087 -195 165.649 -183.5 c 128,-1,26
 86.2109 -172 86.2109 -172 -1.74023 -150 c 1,27,-1
 40.2451 90 l 1,28,-1
 146.445 90 l 1,29,30
 137.9 0 137.9 0 177.528 -41 c 128,-1,31
 217.155 -82 217.155 -82 312.556 -82 c 0,32,33
 390.855 -82 390.855 -82 439.179 -45 c 128,-1,34
 487.501 -8 487.501 -8 499.572 61 c 0,35,36
 507.794 108 507.794 108 489.718 141 c 128,-1,37
 471.641 174 471.641 174 397.963 221 c 2,38,-1
 289.06 293 l 2,39,40
 137.178 392 137.178 392 87.9736 476 c 128,-1,41
 38.7686 560 38.7686 560 58.7119 674 c 0,42,43
 76.7314 777 76.7314 777 141.251 850 c 128,-1,44
 205.772 923 205.772 923 316.969 967 c 1,45,46
 250.317 1013 250.317 1013 226.051 1077.5 c 128,-1,47
 201.784 1142 201.784 1142 217.354 1231 c 0,48,49
 241.146 1367 241.146 1367 352.63 1443.5 c 128,-1,50
 464.113 1520 464.113 1520 640.513 1520 c 0,51,52
 707.113 1520 707.113 1520 783.4 1508.5 c 128,-1,53
 859.689 1497 859.689 1497 949.438 1475 c 1,0,-1
397.223 901 m 1,54,55
 351.851 868 351.851 868 324.327 829 c 128,-1,56
 296.805 790 296.805 790 288.933 745 c 0,57,58
 278.261 684 278.261 684 310.289 633 c 128,-1,59
 342.317 582 342.317 582 431.17 524 c 2,60,-1
 566.976 436 l 1,61,62
 613.599 471 613.599 471 641.658 510.5 c 128,-1,63
 669.719 550 669.719 550 677.066 592 c 0,64,65
 687.563 652 687.563 652 654.635 703 c 128,-1,66
 621.707 754 621.707 754 531.229 813 c 2,67,-1
 397.223 901 l 1,54,55
EndSplineSet
EndChar
StartChar: dieresis
Encoding: 168 168 168
Width: 921
Flags: W
Fore
301.5 1468 m 0,0,1
 312.3 1528 312.3 1528 359.1 1571 c 128,-1,2
 405.9 1614 405.9 1614 459.9 1614 c 128,-1,3
 513.9 1614 513.9 1614 545.4 1571 c 0,4,5
 576 1528 576 1528 565.2 1468 c 128,-1,6
 554.4 1408 554.4 1408 508.5 1364 c 0,7,8
 462.6 1321 462.6 1321 409.5 1321 c 0,9,10
 355.5 1321 355.5 1321 323.1 1365 c 0,11,12
 291.6 1409 291.6 1409 301.5 1468 c 0,0,1
703.8 1468 m 0,13,14
 714.6 1528 714.6 1528 761.4 1571 c 0,15,16
 807.3 1614 807.3 1614 861.3 1614 c 128,-1,17
 915.3 1614 915.3 1614 947.7 1571 c 128,-1,18
 980.1 1528 980.1 1528 969.3 1468 c 0,19,20
 959.4 1409 959.4 1409 911.7 1365 c 0,21,22
 864.9 1321 864.9 1321 810.9 1321 c 128,-1,23
 756.9 1321 756.9 1321 725.4 1365 c 128,-1,24
 693.9 1409 693.9 1409 703.8 1468 c 0,13,14
EndSplineSet
LCarets2: 1 0 
EndChar
StartChar: copyright
Encoding: 169 169 169
Width: 1843
Flags: W
Fore
921.6 1485 m 0,0,1
 1058.4 1485 1058.4 1485 1176.75 1430 c 128,-1,2
 1295.1 1375 1295.1 1375 1393.2 1266 c 0,3,4
 1491.3 1157 1491.3 1157 1539.9 1026 c 128,-1,5
 1588.5 895 1588.5 895 1588.5 741 c 0,6,7
 1588.5 589 1588.5 589 1539.9 458.5 c 128,-1,8
 1491.3 328 1491.3 328 1393.2 219 c 0,9,10
 1295.1 110 1295.1 110 1176.75 55 c 128,-1,11
 1058.4 0 1058.4 0 921.6 0 c 0,12,13
 784.8 0 784.8 0 666.45 55 c 128,-1,14
 548.1 110 548.1 110 450 219 c 0,15,16
 351.9 328 351.9 328 303.3 458.5 c 128,-1,17
 254.7 589 254.7 589 254.7 741 c 0,18,19
 254.7 895 254.7 895 303.3 1026 c 128,-1,20
 351.9 1157 351.9 1157 450 1266 c 0,21,22
 548.1 1375 548.1 1375 666.45 1430 c 128,-1,23
 784.8 1485 784.8 1485 921.6 1485 c 0,0,1
921.6 1331 m 0,24,25
 812.7 1331 812.7 1331 719.1 1287.5 c 128,-1,26
 625.5 1244 625.5 1244 547.2 1157 c 0,27,28
 469.8 1071 469.8 1071 431.1 967.5 c 128,-1,29
 392.4 864 392.4 864 392.4 741 c 0,30,31
 392.4 619 392.4 619 431.1 515.5 c 128,-1,32
 469.8 412 469.8 412 547.2 326 c 0,33,34
 624.6 240 624.6 240 718.65 197 c 128,-1,35
 812.7 154 812.7 154 921.6 154 c 0,36,37
 1032.3 154 1032.3 154 1125 196.5 c 128,-1,38
 1217.7 239 1217.7 239 1296 326 c 0,39,40
 1373.4 412 1373.4 412 1412.1 515.5 c 128,-1,41
 1450.8 619 1450.8 619 1450.8 741 c 0,42,43
 1450.8 864 1450.8 864 1412.1 967.5 c 128,-1,44
 1373.4 1071 1373.4 1071 1296 1157 c 0,45,46
 1216.8 1245 1216.8 1245 1123.65 1288 c 128,-1,47
 1030.5 1331 1030.5 1331 921.6 1331 c 0,24,25
1251.9 580 m 1,48,49
 1227.6 441 1227.6 441 1145.25 371 c 128,-1,50
 1062.9 301 1062.9 301 923.4 301 c 0,51,52
 754.2 301 754.2 301 649.8 422 c 128,-1,53
 545.4 543 545.4 543 545.4 741 c 0,54,55
 545.4 943 545.4 943 650.7 1063.5 c 128,-1,56
 756 1184 756 1184 932.4 1184 c 0,57,58
 1003.5 1184 1003.5 1184 1075.5 1165.5 c 128,-1,59
 1147.5 1147 1147.5 1147 1225.8 1108 c 1,60,-1
 1225.8 885 l 1,61,-1
 1131.3 885 l 1,62,63
 1120.5 979 1120.5 979 1073.25 1032 c 128,-1,64
 1026 1085 1026 1085 953.1 1085 c 0,65,66
 859.5 1085 859.5 1085 805.95 993.5 c 128,-1,67
 752.4 902 752.4 902 752.4 741 c 0,68,69
 752.4 580 752.4 580 805.5 489.5 c 128,-1,70
 858.6 399 858.6 399 953.1 399 c 0,71,72
 1018.8 399 1018.8 399 1062.9 445 c 128,-1,73
 1107 491 1107 491 1127.7 580 c 1,74,-1
 1251.9 580 l 1,48,49
EndSplineSet
EndChar
StartChar: ordfeminine
Encoding: 170 170 170
Width: 897
Flags: W
Fore
595.485 1136 m 2,0,-1
 607.032 1202 l 2,1,2
 614.637 1245.5 614.637 1245.5 614.637 1280.98 c 0,3,4
 614.637 1336.85 614.637 1336.85 595.773 1372.82 c 0,5,6
 571.068 1420.31 571.068 1420.31 521.379 1420.31 c 0,7,8
 509.229 1420.31 509.229 1420.31 495.585 1417.47 c 0,9,10
 427.509 1403.3 427.509 1403.3 372.645 1318.88 c 0,11,12
 317.79 1234.45 317.79 1234.45 295.371 1106.3 c 0,13,14
 285.453 1049.62 285.453 1049.62 285.453 1004.79 c 0,15,16
 285.453 948.27 285.453 948.27 301.221 910.6 c 0,17,18
 324.594 854.77 324.594 854.77 375.165 854.77 c 0,19,20
 385.767 854.77 385.767 854.77 397.575 857.23 c 0,21,22
 467.019 871.68 467.019 871.68 521.397 947.66 c 0,23,24
 575.892 1024 575.892 1024 595.485 1136 c 2,0,-1
533.034 779 m 17,25,-1
 555.597 908 l 1,26,27
 514.728 839 514.728 839 459.387 795.83 c 0,28,29
 404.46 752.7 404.46 752.7 342.576 739.82 c 0,30,31
 311.535 733.35 311.535 733.35 284.652 733.35 c 0,32,33
 197.82 733.35 197.82 733.35 154.467 800.79 c 0,34,35
 118.143 857.29 118.143 857.29 118.143 952.43 c 0,36,37
 118.143 1006 118.143 1006 129.654 1071.81 c 0,38,39
 161.613 1254.52 161.613 1254.52 254.673 1373.59 c 0,40,41
 347.724 1492.67 347.724 1492.67 479.061 1520 c 0,42,43
 501.489 1524.67 501.489 1524.67 521.478 1524.67 c 0,44,45
 556.677 1524.67 556.677 1524.67 584.361 1510.21 c 0,46,47
 628.263 1488 628.263 1488 647.271 1432 c 1,48,-1
 662.841 1521 l 1,49,-1
 807.741 1521 l 1,50,-1
 704.169 929 l 1,51,-1
 807.669 929 l 25,52,-1
 781.434 779 l 25,53,-1
 533.034 779 l 17,25,-1
36.0361 639 m 1,54,-1
 754.236 639 l 1,55,-1
 730.62 504 l 1,56,-1
 12.4199 504 l 1,57,-1
 36.0361 639 l 1,54,-1
EndSplineSet
EndChar
StartChar: guillemotleft
Encoding: 171 171 171
Width: 1152
Flags: W
Fore
1060.34 1069 m 1,0,-1
 1034.63 922 l 1,1,-1
 763.2 600 l 1,2,-1
 922.14 279 l 1,3,-1
 896.252 131 l 1,4,-1
 541.505 516 l 1,5,-1
 570.896 684 l 1,6,-1
 1060.34 1069 l 1,0,-1
646.348 1069 m 1,7,-1
 620.632 922 l 1,8,-1
 348.3 600 l 1,9,-1
 508.144 279 l 1,10,-1
 482.252 131 l 1,11,-1
 127.505 516 l 1,12,-1
 156.896 684 l 1,13,-1
 646.348 1069 l 1,7,-1
EndSplineSet
EndChar
StartChar: logicalnot
Encoding: 172 172 172
Width: 1544
Flags: W
Fore
195.3 903 m 1,0,-1
 1349.1 903 l 1,1,-1
 1349.1 287 l 1,2,-1
 1143 287 l 1,3,-1
 1143 676 l 1,4,-1
 195.3 676 l 1,5,-1
 195.3 903 l 1,0,-1
EndSplineSet
EndChar
StartChar: sfthyphen
Encoding: 173 173 173
Width: 765
Flags: W
Fore
123.517 684 m 1,0,-1
 688.717 684 l 1,1,-1
 641.483 414 l 1,2,-1
 76.2832 414 l 1,3,-1
 123.517 684 l 1,0,-1
EndSplineSet
EndChar
StartChar: registered
Encoding: 174 174 174
Width: 1843
Flags: W
Fore
1049.4 754 m 1,0,1
 1084.5 743 1084.5 743 1111.5 716.5 c 128,-1,2
 1138.5 690 1138.5 690 1155.6 649 c 2,3,-1
 1245.6 434 l 1,4,-1
 1299.6 434 l 1,5,-1
 1299.6 352 l 1,6,-1
 1098.9 352 l 1,7,-1
 993.6 606 l 1,8,9
 964.8 674 964.8 674 938.25 695.5 c 128,-1,10
 911.7 717 911.7 717 862.2 717 c 2,11,-1
 838.8 717 l 1,12,-1
 838.8 434 l 1,13,-1
 916.2 434 l 1,14,-1
 916.2 352 l 1,15,-1
 584.1 352 l 1,16,-1
 584.1 434 l 1,17,-1
 661.5 434 l 1,18,-1
 661.5 1077 l 1,19,-1
 584.1 1077 l 1,20,-1
 584.1 1159 l 1,21,-1
 991.8 1159 l 2,22,23
 1099.8 1159 1099.8 1159 1161.9 1104 c 128,-1,24
 1224 1049 1224 1049 1224 954 c 0,25,26
 1224 865 1224 865 1179.45 814 c 128,-1,27
 1134.9 763 1134.9 763 1049.4 754 c 1,0,1
838.8 799 m 1,28,-1
 899.1 799 l 2,29,30
 970.2 799 970.2 799 1008.45 835 c 128,-1,31
 1046.7 871 1046.7 871 1046.7 938 c 0,32,33
 1046.7 1005 1046.7 1005 1008.45 1041 c 128,-1,34
 970.2 1077 970.2 1077 899.1 1077 c 2,35,-1
 838.8 1077 l 1,36,-1
 838.8 799 l 1,28,-1
921.6 1485 m 0,37,38
 1058.4 1485 1058.4 1485 1176.75 1430 c 128,-1,39
 1295.1 1375 1295.1 1375 1393.2 1266 c 0,40,41
 1491.3 1157 1491.3 1157 1539.9 1026 c 128,-1,42
 1588.5 895 1588.5 895 1588.5 741 c 0,43,44
 1588.5 589 1588.5 589 1539.9 458.5 c 128,-1,45
 1491.3 328 1491.3 328 1393.2 219 c 0,46,47
 1295.1 110 1295.1 110 1176.75 55 c 128,-1,48
 1058.4 0 1058.4 0 921.6 0 c 0,49,50
 784.8 0 784.8 0 666.45 55 c 128,-1,51
 548.1 110 548.1 110 450 219 c 0,52,53
 351.9 328 351.9 328 303.3 458.5 c 128,-1,54
 254.7 589 254.7 589 254.7 741 c 0,55,56
 254.7 895 254.7 895 303.3 1026 c 128,-1,57
 351.9 1157 351.9 1157 450 1266 c 0,58,59
 548.1 1375 548.1 1375 666.45 1430 c 128,-1,60
 784.8 1485 784.8 1485 921.6 1485 c 0,37,38
921.6 1331 m 0,61,62
 812.7 1331 812.7 1331 719.1 1287.5 c 128,-1,63
 625.5 1244 625.5 1244 547.2 1157 c 0,64,65
 469.8 1071 469.8 1071 431.1 967.5 c 128,-1,66
 392.4 864 392.4 864 392.4 741 c 0,67,68
 392.4 619 392.4 619 431.1 515.5 c 128,-1,69
 469.8 412 469.8 412 547.2 326 c 0,70,71
 624.6 240 624.6 240 718.65 197 c 128,-1,72
 812.7 154 812.7 154 921.6 154 c 0,73,74
 1032.3 154 1032.3 154 1125 196.5 c 128,-1,75
 1217.7 239 1217.7 239 1296 326 c 0,76,77
 1373.4 412 1373.4 412 1412.1 515.5 c 128,-1,78
 1450.8 619 1450.8 619 1450.8 741 c 0,79,80
 1450.8 864 1450.8 864 1412.1 967.5 c 128,-1,81
 1373.4 1071 1373.4 1071 1296 1157 c 0,82,83
 1216.8 1245 1216.8 1245 1123.65 1288 c 128,-1,84
 1030.5 1331 1030.5 1331 921.6 1331 c 0,61,62
EndSplineSet
EndChar
StartChar: macron
Encoding: 175 175 175
Width: 921
Flags: W
Fore
319.5 1548 m 1,0,-1
 886.5 1548 l 1,1,-1
 854.1 1360 l 1,2,-1
 287.1 1360 l 1,3,-1
 319.5 1548 l 1,0,-1
EndSplineSet
LCarets2: 1 0 
EndChar
StartChar: degree
Encoding: 176 176 176
Width: 921
Flags: W
Fore
460.8 1534 m 0,0,1
 520.2 1534 520.2 1534 575.1 1508.5 c 128,-1,2
 630 1483 630 1483 673.2 1436 c 1,3,4
 715.5 1388 715.5 1388 737.55 1328 c 128,-1,5
 759.6 1268 759.6 1268 759.6 1200 c 0,6,7
 759.6 1133 759.6 1133 737.55 1072.5 c 128,-1,8
 715.5 1012 715.5 1012 675 967 c 0,9,10
 631.8 919 631.8 919 576 893.5 c 128,-1,11
 520.2 868 520.2 868 459 868 c 0,12,13
 332.1 868 332.1 868 246.15 963.5 c 128,-1,14
 160.2 1059 160.2 1059 160.2 1200 c 0,15,16
 160.2 1341 160.2 1341 247.05 1437.5 c 128,-1,17
 333.9 1534 333.9 1534 460.8 1534 c 0,0,1
460.8 1372 m 0,18,19
 396 1372 396 1372 351 1322 c 128,-1,20
 306 1272 306 1272 306 1200 c 0,21,22
 306 1128 306 1128 350.55 1079 c 128,-1,23
 395.1 1030 395.1 1030 460.8 1030 c 0,24,25
 525.6 1030 525.6 1030 570.6 1079.5 c 128,-1,26
 615.6 1129 615.6 1129 615.6 1200 c 0,27,28
 615.6 1272 615.6 1272 570.15 1322 c 128,-1,29
 524.7 1372 524.7 1372 460.8 1372 c 0,18,19
EndSplineSet
EndChar
StartChar: plusminus
Encoding: 177 177 177
Width: 1544
Flags: W
Fore
195.3 227 m 1,0,-1
 1349.1 227 l 1,1,-1
 1349.1 0 l 1,2,-1
 195.3 0 l 1,3,-1
 195.3 227 l 1,0,-1
875.7 1284 m 1,4,-1
 875.7 926 l 1,5,-1
 1349.1 926 l 1,6,-1
 1349.1 698 l 1,7,-1
 875.7 698 l 1,8,-1
 875.7 340 l 1,9,-1
 668.7 340 l 1,10,-1
 668.7 698 l 1,11,-1
 195.3 698 l 1,12,-1
 195.3 926 l 1,13,-1
 668.7 926 l 1,14,-1
 668.7 1284 l 1,15,-1
 875.7 1284 l 1,4,-1
EndSplineSet
EndChar
StartChar: twosuperior
Encoding: 178 178 178
Width: 807
Flags: W
Fore
201.039 1284 m 1,0,-1
 116.439 1284 l 1,1,-1
 150.553 1479 l 1,2,3
 218.853 1499 218.853 1499 288.639 1509.5 c 128,-1,4
 358.426 1520 358.426 1520 430.426 1520 c 0,5,6
 593.326 1520 593.326 1520 672.13 1456 c 128,-1,7
 750.933 1392 750.933 1392 730.99 1278 c 0,8,9
 716.644 1196 716.644 1196 656.311 1131.5 c 128,-1,10
 595.977 1067 595.977 1067 438.932 977 c 2,11,-1
 195.016 838 l 1,12,-1
 567.615 838 l 1,13,-1
 584.409 934 l 1,14,-1
 674.409 934 l 1,15,-1
 630.674 684 l 1,16,-1
 4.27441 684 l 1,17,-1
 27.541 817 l 1,18,-1
 158.337 901 l 2,19,20
 348.154 1024 348.154 1024 405.4 1094 c 128,-1,21
 462.646 1164 462.646 1164 478.916 1257 c 0,22,23
 493.611 1341 493.611 1341 464.571 1388.5 c 128,-1,24
 435.53 1436 435.53 1436 369.831 1436 c 0,25,26
 313.131 1436 313.131 1436 266.721 1394.5 c 128,-1,27
 220.311 1353 220.311 1353 201.039 1284 c 1,0,-1
EndSplineSet
EndChar
StartChar: threesuperior
Encoding: 179 179 179
Width: 807
Flags: W
Fore
167.604 1481 m 1,0,1
 250.126 1500 250.126 1500 318.926 1510 c 128,-1,2
 387.726 1520 387.726 1520 445.325 1520 c 0,3,4
 607.325 1520 607.325 1520 681.841 1467.5 c 128,-1,5
 756.356 1415 756.356 1415 738.862 1315 c 0,6,7
 726.267 1243 726.267 1243 670.794 1196 c 128,-1,8
 615.322 1149 615.322 1149 520.723 1133 c 1,9,10
 625.924 1117 625.924 1117 672.015 1061.5 c 128,-1,11
 718.105 1006 718.105 1006 701.835 913 c 0,12,13
 680.493 791 680.493 791 577.934 729.5 c 128,-1,14
 475.375 668 475.375 668 294.475 668 c 0,15,16
 222.475 668 222.475 668 152.312 678.5 c 128,-1,17
 82.1484 689 82.1484 689 13.9971 711 c 1,18,-1
 48.9854 911 l 1,19,-1
 135.386 911 l 1,20,21
 127.69 831 127.69 831 159.48 791.5 c 128,-1,22
 191.269 752 191.269 752 262.369 752 c 0,23,24
 341.569 752 341.569 752 390.942 795 c 128,-1,25
 440.314 838 440.314 838 454.66 920 c 0,26,27
 468.656 1000 468.656 1000 432.166 1043.5 c 128,-1,28
 395.676 1087 395.676 1087 313.776 1087 c 2,29,-1
 276.876 1087 l 1,30,-1
 291.57 1171 l 1,31,-1
 319.471 1171 l 2,32,33
 392.37 1171 392.37 1171 437.469 1205 c 128,-1,34
 482.567 1239 482.567 1239 493.763 1303 c 0,35,36
 504.784 1366 504.784 1366 475.808 1401 c 128,-1,37
 446.831 1436 446.831 1436 382.031 1436 c 0,38,39
 322.631 1436 322.631 1436 280.245 1399.5 c 128,-1,40
 237.859 1363 237.859 1363 222.163 1299 c 1,41,-1
 135.588 1298 l 1,42,-1
 167.604 1481 l 1,0,1
EndSplineSet
EndChar
StartChar: acute
Encoding: 180 180 180
Width: 921
Flags: W
Fore
717.3 1638 m 1,0,-1
 968.4 1638 l 1,1,-1
 566.1 1262 l 1,2,-1
 418.5 1262 l 1,3,-1
 717.3 1638 l 1,0,-1
EndSplineSet
LCarets2: 1 0 
EndChar
StartChar: mu
Encoding: 181 181 181
Width: 1349
Flags: W
Fore
1280.45 1063 m 1,0,-1
 1115.65 121 l 1,1,-1
 1252.45 121 l 1,2,-1
 1231.28 0 l 1,3,-1
 775.881 0 l 1,4,-1
 797.751 125 l 1,5,6
 733.725 42 733.725 42 678.465 6.5 c 0,7,8
 623.205 -29 623.205 -29 556.605 -29 c 0,9,10
 528.705 -29 528.705 -29 503.91 -19 c 0,11,12
 479.106 -9 479.106 -9 453.078 12 c 1,13,-1
 376.452 -426 l 1,14,-1
 57.8516 -426 l 1,15,-1
 297.18 942 l 1,16,-1
 160.38 942 l 1,17,-1
 181.548 1063 l 1,18,-1
 636.948 1063 l 1,19,-1
 532.683 467 l 2,20,21
 507.771 324.61 507.771 324.61 507.771 251.34 c 0,22,23
 507.771 211.4 507.771 211.4 515.169 192 c 0,24,25
 536.148 137 536.148 137 615.348 137 c 0,26,27
 710.748 137 710.748 137 769.203 216.5 c 0,28,29
 827.667 296 827.667 296 857.583 467 c 2,30,-1
 961.848 1063 l 1,31,-1
 1280.45 1063 l 1,0,-1
EndSplineSet
EndChar
StartChar: paragraph
Encoding: 182 182 182
Width: 1172
Flags: W
Fore
708.525 1493 m 2,0,-1
 1208.03 1493 l 1,1,-1
 1186.16 1368 l 1,2,-1
 1084.46 1368 l 1,3,-1
 810.674 -197 l 1,4,-1
 673.874 -197 l 1,5,-1
 947.655 1368 l 1,6,-1
 800.959 1368 l 1,7,-1
 527.174 -197 l 1,8,-1
 390.374 -197 l 1,9,-1
 538.375 649 l 1,10,11
 347.849 666 347.849 666 260.98 776.5 c 128,-1,12
 174.111 887 174.111 887 206.301 1071 c 0,13,14
 239.539 1261 239.539 1261 376.833 1377 c 128,-1,15
 514.126 1493 514.126 1493 708.525 1493 c 2,0,-1
EndSplineSet
EndChar
StartChar: periodcentered
Encoding: 183 183 183
Width: 641
Flags: W
Fore
149.312 711 m 0,0,1
 162.958 789 162.958 789 223.155 845 c 128,-1,2
 283.352 901 283.352 901 353.552 901 c 0,3,4
 424.651 901 424.651 901 465.255 845 c 128,-1,5
 505.857 789 505.857 789 492.212 711 c 0,6,7
 478.567 633 478.567 633 418.458 577.5 c 128,-1,8
 358.349 522 358.349 522 287.248 522 c 0,9,10
 217.049 522 217.049 522 176.357 577.5 c 128,-1,11
 135.667 633 135.667 633 149.312 711 c 0,0,1
EndSplineSet
EndChar
StartChar: cedilla
Encoding: 184 184 184
Width: 921
Flags: W
Fore
569.677 0 m 1,0,1
 614.279 -64 614.279 -64 631.295 -118.5 c 128,-1,2
 648.312 -173 648.312 -173 639.213 -225 c 0,3,4
 624.169 -311 624.169 -311 558.246 -356 c 128,-1,5
 492.323 -401 492.323 -401 383.424 -401 c 0,6,7
 340.224 -401 340.224 -401 295.461 -394.5 c 128,-1,8
 250.698 -388 250.698 -388 206.173 -375 c 1,9,-1
 232.563 -219 l 1,10,11
 270.09 -236 270.09 -236 306.765 -245 c 128,-1,12
 343.44 -254 343.44 -254 375.841 -254 c 0,13,14
 429.841 -254 429.841 -254 462.302 -230.5 c 128,-1,15
 494.763 -207 494.763 -207 502.635 -162 c 0,16,17
 507.533 -134 507.533 -134 498.457 -101 c 128,-1,18
 489.38 -68 489.38 -68 455.377 0 c 1,19,-1
 569.677 0 l 1,0,1
EndSplineSet
LCarets2: 1 0 
EndChar
StartChar: onesuperior
Encoding: 185 185 185
Width: 807
Flags: W
Fore
72.6738 684 m 1,0,-1
 89.1182 778 l 1,1,-1
 236.719 778 l 1,2,-1
 343.958 1391 l 1,3,-1
 161.59 1290 l 1,4,-1
 179.958 1395 l 1,5,-1
 401.626 1520 l 1,6,-1
 605.926 1520 l 1,7,-1
 476.119 778 l 1,8,-1
 623.719 778 l 1,9,-1
 607.274 684 l 1,10,-1
 72.6738 684 l 1,0,-1
EndSplineSet
EndChar
StartChar: ordmasculine
Encoding: 186 186 186
Width: 921
Flags: W
Fore
36.4463 639 m 1,0,-1
 754.646 639 l 1,1,-1
 731.029 504 l 1,2,-1
 12.8291 504 l 1,3,-1
 36.4463 639 l 1,0,-1
427.735 823 m 0,4,5
 496.136 823 496.136 823 538.707 894 c 128,-1,6
 581.277 965 581.277 965 609.793 1128 c 0,7,8
 638.484 1292 638.484 1292 620.755 1363 c 128,-1,9
 603.025 1434 603.025 1434 534.625 1434 c 0,10,11
 465.325 1434 465.325 1434 423.38 1364 c 128,-1,12
 381.434 1294 381.434 1294 352.394 1128 c 0,13,14
 323.528 963 323.528 963 340.982 893 c 128,-1,15
 358.436 823 358.436 823 427.735 823 c 0,4,5
412.691 737 m 0,16,17
 221.891 737 221.891 737 132.535 841 c 128,-1,18
 43.1787 945 43.1787 945 75.1934 1128 c 0,19,20
 107.208 1311 107.208 1311 233.04 1415.5 c 128,-1,21
 358.87 1520 358.87 1520 549.671 1520 c 0,22,23
 740.471 1520 740.471 1520 829.739 1415.5 c 128,-1,24
 919.008 1311 919.008 1311 886.993 1128 c 0,25,26
 854.979 945 854.979 945 729.235 841 c 128,-1,27
 603.49 737 603.49 737 412.691 737 c 0,16,17
EndSplineSet
EndChar
StartChar: guillemotright
Encoding: 187 187 187
Width: 1152
Flags: W
Fore
255.748 1069 m 1,0,-1
 610.495 684 l 1,1,-1
 581.104 516 l 1,2,-1
 91.6523 131 l 1,3,-1
 117.544 279 l 1,4,-1
 388.8 600 l 1,5,-1
 230.032 922 l 1,6,-1
 255.748 1069 l 1,0,-1
669.748 1069 m 1,7,-1
 1024.5 684 l 1,8,-1
 995.103 516 l 1,9,-1
 505.652 131 l 1,10,-1
 531.544 279 l 1,11,-1
 803.7 600 l 1,12,-1
 644.032 922 l 1,13,-1
 669.748 1069 l 1,7,-1
EndSplineSet
EndChar
StartChar: questiondown
Encoding: 191 191 191
Width: 1080
Flags: W
Fore
874.279 1329 m 0,0,1
 860.633 1251 860.633 1251 800.611 1196 c 128,-1,2
 740.589 1141 740.589 1141 670.39 1141 c 0,3,4
 599.289 1141 599.289 1141 559.411 1196 c 128,-1,5
 519.533 1251 519.533 1251 533.179 1329 c 0,6,7
 546.999 1408 546.999 1408 606.746 1464 c 128,-1,8
 666.493 1520 666.493 1520 736.693 1520 c 0,9,10
 806.894 1520 806.894 1520 847.408 1463.5 c 128,-1,11
 887.925 1407 887.925 1407 874.279 1329 c 0,0,1
836.703 39 m 1,12,13
 719.156 5 719.156 5 615.381 -12 c 128,-1,14
 511.606 -29 511.606 -29 417.106 -29 c 0,15,16
 190.307 -29 190.307 -29 88.1387 81.5 c 128,-1,17
 -14.0312 192 -14.0312 192 21.833 397 c 0,18,19
 57.1709 599 57.1709 599 195.002 715.5 c 128,-1,20
 332.832 832 332.832 832 556.48 850 c 1,21,-1
 592.345 1055 l 1,22,-1
 717.445 1055 l 1,23,-1
 665.137 756 l 1,24,25
 532.515 713 532.515 713 457.382 620.5 c 128,-1,26
 382.251 528 382.251 528 355.483 375 c 0,27,28
 330.117 230 330.117 230 372.246 157 c 128,-1,29
 414.375 84 414.375 84 522.375 84 c 0,30,31
 620.476 84 620.476 84 685.571 150 c 128,-1,32
 750.668 216 750.668 216 782.41 346 c 1,33,-1
 890.41 346 l 1,34,-1
 836.703 39 l 1,12,13
EndSplineSet
EndChar
StartChar: Aring
Encoding: 197 197 197
Width: 1430
Flags: W
Fore
707.724 1616 m 0,0,1
 698.276 1562 698.276 1562 726.642 1523.5 c 128,-1,2
 755.007 1485 755.007 1485 802.706 1485 c 0,3,4
 852.206 1485 852.206 1485 893.592 1523.5 c 128,-1,5
 934.974 1562 934.974 1562 944.424 1616 c 0,6,7
 953.874 1670 953.874 1670 925.506 1708.5 c 128,-1,8
 897.142 1747 897.142 1747 848.542 1747 c 0,9,10
 800.842 1747 800.842 1747 759.006 1708.5 c 128,-1,11
 717.17 1670 717.17 1670 707.724 1616 c 0,0,1
-180.683 0 m 1,12,-1
 -159.515 121 l 1,13,-1
 -49.7148 121 l 1,14,-1
 638.338 1384 l 1,15,16
 592.61 1421 592.61 1421 574.845 1481.5 c 128,-1,17
 557.078 1542 557.078 1542 570.024 1616 c 0,18,19
 590.493 1733 590.493 1733 680.338 1817 c 128,-1,20
 770.183 1901 770.183 1901 875.483 1901 c 0,21,22
 981.684 1901 981.684 1901 1042.14 1817 c 128,-1,23
 1102.59 1733 1102.59 1733 1082.12 1616 c 0,24,25
 1069.18 1542 1069.18 1542 1031.41 1483 c 128,-1,26
 993.636 1424 993.636 1424 932.634 1384 c 1,27,-1
 1177.88 121 l 1,28,-1
 1305.68 121 l 1,29,-1
 1284.52 0 l 1,30,-1
 655.417 0 l 1,31,-1
 676.586 121 l 1,32,-1
 807.985 121 l 1,33,-1
 750.644 426 l 1,34,-1
 245.743 426 l 1,35,-1
 79.8857 121 l 1,36,-1
 240.086 121 l 1,37,-1
 218.917 0 l 1,38,-1
 -180.683 0 l 1,12,-1
311.011 547 m 1,39,-1
 727.71 547 l 1,40,-1
 622.403 1118 l 1,41,-1
 311.011 547 l 1,39,-1
EndSplineSet
EndChar
StartChar: AE
Encoding: 198 198 198
Width: 1906
Flags: W
AnchorPoint: "above" 1220.09 1465 basechar 0
AnchorPoint: "below" 963.81 0 basechar 0
Fore
325.648 545 m 1,0,-1
 744.148 545 l 1,1,-1
 888.826 1372 l 1,2,-1
 821.326 1372 l 1,3,-1
 325.648 545 l 1,0,-1
477.807 0 m 1,4,-1
 498.974 121 l 1,5,-1
 669.974 121 l 1,6,-1
 722.98 424 l 1,7,-1
 253.181 424 l 1,8,-1
 71.4736 121 l 1,9,-1
 219.073 121 l 1,10,-1
 197.906 0 l 1,11,-1
 -187.294 0 l 1,12,-1
 -166.127 121 l 1,13,-1
 -63.5264 121 l 1,14,-1
 688.127 1372 l 1,15,-1
 507.227 1372 l 1,16,-1
 528.394 1493 l 1,17,-1
 1924.29 1493 l 1,18,-1
 1862.71 1141 l 1,19,-1
 1738.51 1141 l 1,20,-1
 1776.12 1356 l 1,21,-1
 1234.32 1356 l 1,22,-1
 1150.53 877 l 1,23,-1
 1480.83 877 l 1,24,-1
 1514.07 1067 l 1,25,-1
 1635.57 1067 l 1,26,-1
 1545.3 551 l 1,27,-1
 1423.8 551 l 1,28,-1
 1457.04 741 l 1,29,-1
 1126.74 741 l 1,30,-1
 1021.08 137 l 1,31,-1
 1581.78 137 l 1,32,-1
 1619.39 352 l 1,33,-1
 1740.89 352 l 1,34,-1
 1679.31 0 l 1,35,-1
 477.807 0 l 1,4,-1
EndSplineSet
EndChar
StartChar: Eth
Encoding: 208 208 208
Width: 1611
Flags: W
Fore
507.974 121 m 1,0,-1
 633.073 121 l 2,1,2
 843.674 121 843.674 121 966.573 270.5 c 128,-1,3
 1089.49 420 1089.49 420 1146.86 748 c 0,4,5
 1203.89 1074 1203.89 1074 1133.21 1223 c 128,-1,6
 1062.52 1372 1062.52 1372 851.927 1372 c 2,7,-1
 726.826 1372 l 1,8,-1
 635.506 850 l 1,9,-1
 934.308 850 l 1,10,-1
 910.341 713 l 1,11,-1
 611.539 713 l 1,12,-1
 507.974 121 l 1,0,-1
-32.4941 0 m 1,13,-1
 -11.3262 121 l 1,14,-1
 161.474 121 l 1,15,-1
 265.039 713 l 1,16,-1
 73.3398 713 l 1,17,-1
 97.3066 850 l 1,18,-1
 289.006 850 l 1,19,-1
 380.326 1372 l 1,20,-1
 207.526 1372 l 1,21,-1
 228.693 1493 l 1,22,-1
 919.89 1493 l 2,23,24
 1279.89 1493 1279.89 1493 1437.64 1301.5 c 128,-1,25
 1595.39 1110 1595.39 1110 1532.06 748 c 0,26,27
 1468.56 385 1468.56 385 1243.63 192.5 c 128,-1,28
 1018.71 0 1018.71 0 658.706 0 c 2,29,-1
 -32.4941 0 l 1,13,-1
EndSplineSet
EndChar
StartChar: multiply
Encoding: 215 215 215
Width: 1544
Flags: W
Fore
1306.8 1081 m 1,0,-1
 910.8 641 l 1,1,-1
 1306.8 201 l 1,2,-1
 1168.2 47 l 1,3,-1
 772.2 487 l 1,4,-1
 376.2 47 l 1,5,-1
 237.6 201 l 1,6,-1
 634.5 641 l 1,7,-1
 237.6 1081 l 1,8,-1
 376.2 1237 l 1,9,-1
 772.2 797 l 1,10,-1
 1168.2 1237 l 1,11,-1
 1306.8 1081 l 1,0,-1
EndSplineSet
EndChar
StartChar: Oslash
Encoding: 216 216 216
Width: 1605
Flags: W
AnchorPoint: "below" 673.281 0 basechar 0
AnchorPoint: "above" 929.574 1465 basechar 0
Fore
434.877 479 m 1,0,-1
 1162.79 1157 l 1,1,2
 1145.81 1276 1145.81 1276 1083.21 1337.5 c 128,-1,3
 1020.63 1399 1020.63 1399 916.227 1399 c 0,4,5
 745.225 1399 745.225 1399 632.646 1236.5 c 128,-1,6
 520.068 1074 520.068 1074 462.512 745 c 0,7,8
 449.217 669 449.217 669 442.171 603 c 128,-1,9
 435.125 537 435.125 537 434.877 479 c 1,0,-1
441.912 334 m 1,10,11
 461.068 212 461.068 212 522.122 152 c 128,-1,12
 583.176 92 583.176 92 687.576 92 c 0,13,14
 863.076 92 863.076 92 975.087 259 c 128,-1,15
 1087.11 426 1087.11 426 1149.73 784 c 0,16,17
 1161.11 849 1161.11 849 1164.54 899.5 c 128,-1,18
 1167.97 950 1167.97 950 1163.8 993 c 1,19,-1
 441.912 334 l 1,10,11
1457.91 1280 m 1,20,21
 1520.71 1176 1520.71 1176 1537.86 1042.5 c 128,-1,22
 1555 909 1555 909 1526.31 745 c 0,23,24
 1462.99 383 1462.99 383 1233.9 177 c 128,-1,25
 1004.8 -29 1004.8 -29 666.407 -29 c 0,26,27
 524.207 -29 524.207 -29 411.779 10 c 128,-1,28
 299.353 49 299.353 49 217.598 127 c 1,29,-1
 -1.86523 -78 l 1,30,-1
 -67.1201 12 l 1,31,-1
 148.043 213 l 1,32,33
 83.9873 315 83.9873 315 66.3926 448.5 c 128,-1,34
 48.7969 582 48.7969 582 77.3125 745 c 0,35,36
 140.643 1107 140.643 1107 369.817 1313.5 c 128,-1,37
 598.993 1520 598.993 1520 937.395 1520 c 0,38,39
 1081.39 1520 1081.39 1520 1194.35 1481.5 c 128,-1,40
 1307.32 1443 1307.32 1443 1387.45 1366 c 1,41,-1
 1605.66 1569 l 1,42,-1
 1670.92 1479 l 1,43,-1
 1457.91 1280 l 1,20,21
EndSplineSet
EndChar
StartChar: Thorn
Encoding: 222 222 222
Width: 1395
Flags: W
Fore
-44.1943 0 m 1,0,-1
 -23.0264 121 l 1,1,-1
 148.873 121 l 1,2,-1
 367.727 1372 l 1,3,-1
 195.826 1372 l 1,4,-1
 216.993 1493 l 1,5,-1
 950.49 1493 l 1,6,-1
 929.322 1372 l 1,7,-1
 714.227 1372 l 1,8,-1
 684.486 1202 l 1,9,-1
 931.086 1202 l 2,10,11
 1155.19 1202 1155.19 1202 1266.76 1083.5 c 128,-1,12
 1378.32 965 1378.32 965 1343.51 766 c 0,13,14
 1308.7 567 1308.7 567 1155.04 447.5 c 128,-1,15
 1001.38 328 1001.38 328 778.186 328 c 2,16,-1
 531.586 328 l 1,17,-1
 495.373 121 l 1,18,-1
 712.273 121 l 1,19,-1
 691.106 0 l 1,20,-1
 -44.1943 0 l 1,0,-1
552.755 449 m 1,21,-1
 653.555 449 l 2,22,23
 770.555 449 770.555 449 855.35 535 c 128,-1,24
 940.149 621 940.149 621 965.511 766 c 0,25,26
 990.702 910 990.702 910 936.36 995.5 c 128,-1,27
 882.019 1081 882.019 1081 764.119 1081 c 2,28,-1
 663.319 1081 l 1,29,-1
 552.755 449 l 1,21,-1
EndSplineSet
EndChar
StartChar: germandbls
Encoding: 223 223 223
Width: 1400
Flags: W
Fore
977.337 1221 m 1,0,1
 992.727 1345 992.727 1345 958.185 1394.5 c 128,-1,2
 923.652 1444 923.652 1444 822.848 1444 c 0,3,4
 724.747 1444 724.747 1444 670.239 1384.5 c 128,-1,5
 615.6 1325 615.6 1325 592.2 1190 c 2,29,-1
 378.9 -29 l 2,30,31
 342 -238 342 -238 230.4 -298 c 0,32,33
 56.7002 -389 56.7002 -389 -140.4 -389 c 1,34,35
 -130.5 -333 -130.5 -333 -119.7 -277 c 17,0,1
 -47.7002 -277 -47.7002 -277 -5.40039 -219.5 c 128,-1,2
 36.9004 -162 36.9004 -162 59.4004 -33 c 2,3,-1
 266.4 1147 l 2,4,-1
 301.5 1348 301.5 1348 445.521 1452 c 128,-1,13
 589.542 1556 589.542 1556 831.643 1556 c 0,14,15
 1068.34 1556 1068.34 1556 1170.94 1450.5 c 128,-1,16
 1273.53 1345 1273.53 1345 1257.77 1116 c 1,17,-1
 1237.97 1116 l 2,18,19
 1098.47 1116 1098.47 1116 1018.95 1070.5 c 128,-1,20
 939.447 1025 939.447 1025 923.877 936 c 0,21,22
 916.884 896 916.884 896 931.716 862.5 c 0,23,24
 947.925 825.909 947.925 825.909 1010.59 768 c 2,24,-1
 1078.77 705 l 2,25,26
 1214.79 579.298 1214.79 579.298 1245.95 498 c 0,27,28
 1276.24 419 1276.24 419 1257.34 311 c 0,28,29
 1229.35 151 1229.35 151 1101.55 61 c 128,-1,30
 973.755 -29 973.755 -29 772.157 -29 c 0,31,32
 700.157 -29 700.157 -29 624.032 -14 c 128,-1,33
 547.906 1 547.906 1 463.154 31 c 1,34,-1
 508.29 289 l 1,35,-1
 617.19 289 l 1,36,37
 610.171 182 610.171 182 645.698 133 c 128,-1,38
 681.228 84 681.228 84 765.827 84 c 0,39,40
 834.228 84 834.228 84 884.225 128 c 128,-1,41
 934.218 172 934.218 172 946.818 244 c 0,42,43
 965.188 349 965.188 349 838.055 466 c 0,44,45
 836.285 467.631 836.285 467.631 813.278 489 c 2,46,-1
 744.375 553 l 2,47,48
 665.898 625.891 665.898 625.891 638.753 705.5 c 0,49,50
 611.985 784 611.985 784 630.355 889 c 0,50,51
 653.797 1023 653.797 1023 740.231 1105.5 c 128,-1,52
 826.663 1188 826.663 1188 977.337 1221 c 1,0,1
EndSplineSet
EndChar
StartChar: ae
Encoding: 230 230 230
Width: 1717
Flags: W
AnchorPoint: "below" 773.703 4.5 basechar 0
AnchorPoint: "above" 963.882 1096.5 basechar 0
Fore
1318.5 831 m 0,0,1
 1318.5 979 1318.5 979 1206.9 979 c 0,2,3
 1121.4 979 1121.4 979 1074.15 894.5 c 128,-1,4
 1026.9 810 1026.9 810 984.6 581 c 2,5,-1
 974.7 519 l 1,6,7
 1274.4 519 1274.4 519 1312.2 762 c 0,8,9
 1318.5 799 1318.5 799 1318.5 831 c 0,0,1
756.9 876 m 1,10,11
 754.2 936 754.2 936 702.9 936 c 0,12,13
 582.3 936 582.3 936 464.4 776 c 0,14,15
 409.5 702 409.5 702 378.9 527 c 128,-1,16
 348.3 352 348.3 352 348.3 288.5 c 128,-1,17
 348.3 225 348.3 225 357.3 198 c 0,18,19
 380.7 127 380.7 127 465.3 127 c 128,-1,20
 549.9 127 549.9 127 602.55 210 c 128,-1,21
 655.2 293 655.2 293 687.6 479 c 2,22,-1
 756.9 876 l 1,10,11
1023.3 1060 m 1,23,24
 1116.9 1092 1116.9 1092 1227.6 1092 c 0,25,26
 1399.5 1092 1399.5 1092 1518.75 1017.5 c 128,-1,27
 1638 943 1638 943 1638 808 c 0,28,29
 1638 781 1638 781 1632.6 752 c 0,30,31
 1575.9 428 1575.9 428 954 400 c 1,32,33
 947.7 366 947.7 366 947.7 334 c 0,34,35
 947.7 84 947.7 84 1133.1 84 c 0,36,37
 1236.6 84 1236.6 84 1311.3 145 c 128,-1,38
 1386 206 1386 206 1423.8 322 c 1,39,-1
 1573.2 322 l 1,40,41
 1503 141 1503 141 1372.95 56 c 128,-1,42
 1242.9 -29 1242.9 -29 1030.95 -29 c 128,-1,43
 819 -29 819 -29 709.2 82 c 1,44,45
 576.9 -29 576.9 -29 352.8 -29 c 0,46,47
 179.1 -29 179.1 -29 101.7 98 c 0,48,49
 50.4004 183 50.4004 183 50.4004 310 c 0,50,51
 50.4004 613 50.4004 613 265.05 852.5 c 128,-1,52
 479.7 1092 479.7 1092 753.3 1092 c 0,53,54
 948.6 1092 948.6 1092 1023.3 1060 c 1,23,24
EndSplineSet
AlternateSubs2: "'aalt' Access All Alternates" ae.alt
Substitution2: "'salt' Stylistic Alternatives" ae.alt
EndChar
StartChar: eth
Encoding: 240 240 240
Width: 1229
Flags: W
Fore
905.04 1337 m 1,0,1
 1048.18 1188 1048.18 1188 1103.37 986.5 c 128,-1,2
 1158.57 785 1158.57 785 1118.69 557 c 0,3,4
 1070.58 282 1070.58 282 900.27 126.5 c 128,-1,5
 729.971 -29 729.971 -29 476.171 -29 c 0,6,7
 228.671 -29 228.671 -29 108.051 117.5 c 128,-1,8
 -12.5713 264 -12.5713 264 30.1152 508 c 0,9,10
 70.3516 738 70.3516 738 240.318 889 c 128,-1,11
 410.284 1040 410.284 1040 629.884 1040 c 0,12,13
 667.684 1040 667.684 1040 705.335 1034 c 128,-1,14
 742.985 1028 742.985 1028 780.485 1016 c 1,15,16
 772.606 1079 772.606 1079 752.979 1134 c 128,-1,17
 733.351 1189 733.351 1189 700.146 1241 c 1,18,-1
 386.981 1092 l 1,19,-1
 359.476 1192 l 1,20,-1
 633.493 1323 l 1,21,22
 593.341 1361 593.341 1361 529.914 1392 c 128,-1,23
 466.487 1423 466.487 1423 380.511 1446 c 1,24,-1
 424.955 1556 l 1,25,26
 547.98 1539 547.98 1539 646.895 1502.5 c 128,-1,27
 745.811 1466 745.811 1466 818.087 1411 c 1,28,-1
 1142.03 1565 l 1,29,-1
 1166.31 1462 l 1,30,-1
 905.04 1337 l 1,0,1
775.718 891 m 1,31,32
 736.742 910 736.742 910 704.566 919 c 128,-1,33
 672.391 928 672.391 928 643.591 928 c 0,34,35
 543.69 928 543.69 928 484.684 832.5 c 128,-1,36
 425.678 737 425.678 737 385.615 508 c 0,37,38
 344.68 274 344.68 274 370.359 179 c 128,-1,39
 396.04 84 396.04 84 495.939 84 c 0,40,41
 595.84 84 595.84 84 653.684 178 c 128,-1,42
 711.528 272 711.528 272 752.814 508 c 0,43,44
 771.534 615 771.534 615 776.99 710.5 c 128,-1,45
 782.448 806 782.448 806 775.718 891 c 1,31,32
EndSplineSet
EndChar
StartChar: divide
Encoding: 247 247 247
Width: 1544
Flags: W
CounterMasks: 1 00
Fore
638.1 1012 m 0,0,1
 638.1 1073 638.1 1073 677.7 1117 c 128,-1,2
 717.3 1161 717.3 1161 772.2 1161 c 0,3,4
 828 1161 828 1161 867.6 1117 c 128,-1,5
 907.2 1073 907.2 1073 907.2 1012 c 0,6,7
 907.2 950 907.2 950 867.6 906 c 128,-1,8
 828 862 828 862 772.2 862 c 0,9,10
 717.3 862 717.3 862 677.7 906 c 128,-1,11
 638.1 950 638.1 950 638.1 1012 c 0,0,1
638.1 272 m 0,12,13
 638.1 334 638.1 334 677.7 378 c 128,-1,14
 717.3 422 717.3 422 772.2 422 c 0,15,16
 828 422 828 422 867.6 378 c 128,-1,17
 907.2 334 907.2 334 907.2 272 c 0,18,19
 907.2 211 907.2 211 867.6 167 c 128,-1,20
 828 123 828 123 772.2 123 c 0,21,22
 717.3 123 717.3 123 677.7 167 c 128,-1,23
 638.1 211 638.1 211 638.1 272 c 0,12,13
195.3 756 m 1,24,-1
 1349.1 756 l 1,25,-1
 1349.1 528 l 1,26,-1
 195.3 528 l 1,27,-1
 195.3 756 l 1,24,-1
EndSplineSet
EndChar
StartChar: oslash
Encoding: 248 248 248
Width: 1229
Flags: W
AnchorPoint: "below" 522.968 0 basechar 0
AnchorPoint: "above" 714.005 1092 basechar 0
Fore
413.044 416 m 1,0,-1
 828.696 801 l 1,1,2
 829.142 891 829.142 891 796.339 935 c 128,-1,3
 763.536 979 763.536 979 694.236 979 c 0,4,5
 595.236 979 595.236 979 536.68 883.5 c 128,-1,6
 478.122 788 478.122 788 437.011 553 c 2,7,-1
 413.044 416 l 1,0,-1
403.203 262 m 1,8,9
 401.133 173 401.133 173 434.749 128.5 c 128,-1,10
 468.362 84 468.362 84 537.663 84 c 0,11,12
 635.763 84 635.763 84 693.608 178 c 128,-1,13
 751.452 272 751.452 272 792.739 508 c 2,14,-1
 817.406 649 l 1,15,-1
 403.203 262 l 1,8,9
1102.99 913 m 1,16,17
 1149.79 841 1149.79 841 1163.24 745.5 c 128,-1,18
 1176.68 650 1176.68 650 1156.04 532 c 0,19,20
 1110.2 270 1110.2 270 940.5 120.5 c 128,-1,21
 770.794 -29 770.794 -29 517.895 -29 c 0,22,23
 417.994 -29 417.994 -29 338.581 -4.5 c 128,-1,24
 259.167 20 259.167 20 195.915 70 c 1,25,-1
 11.0244 -102 l 1,26,-1
 -49.5312 -16 l 1,27,-1
 126.584 147 l 1,28,29
 81.2061 222 81.2061 222 68.3867 318.5 c 128,-1,30
 55.5693 415 55.5693 415 76.0381 532 c 0,31,32
 122.047 795 122.047 795 291.576 943.5 c 128,-1,33
 461.105 1092 461.105 1092 714.005 1092 c 0,34,35
 818.405 1092 818.405 1092 899.081 1067 c 128,-1,36
 979.758 1042 979.758 1042 1035.99 993 c 1,37,-1
 1216.58 1161 l 1,38,-1
 1278.93 1075 l 1,39,-1
 1102.99 913 l 1,16,17
EndSplineSet
EndChar
StartChar: thorn
Encoding: 254 254 254
Width: 1288
Flags: W
Fore
501.021 584 m 2,0,-1
 482.652 479 l 2,1,2
 465.228 379.4 465.228 379.4 465.228 309.34 c 0,3,4
 465.228 248.56 465.228 248.56 478.341 210 c 0,5,6
 506.574 127 506.574 127 601.974 127 c 0,7,8
 700.074 127 700.074 127 755.523 215 c 0,9,10
 810.963 303 810.963 303 851.031 532 c 0,11,12
 875.79 673.56 875.79 673.56 875.79 761.05 c 0,13,14
 875.79 815.09 875.79 815.09 866.349 848.5 c 0,15,16
 841.599 936 841.599 936 743.499 936 c 0,17,18
 648.099 936 648.099 936 590.832 853 c 128,-1,19
 533.565 770 533.565 770 501.021 584 c 2,0,-1
331.479 1436 m 1,20,-1
 194.679 1436 l 1,21,-1
 215.667 1556 l 1,22,-1
 671.067 1556 l 1,23,-1
 561.204 928 l 1,24,25
 616.221 1011 616.221 1011 691.713 1051.5 c 0,26,27
 767.196 1092 767.196 1092 867.996 1092 c 0,28,29
 1072.3 1092 1072.3 1092 1163.59 942.5 c 0,30,31
 1224.45 842.84 1224.45 842.84 1224.45 693.63 c 0,32,33
 1224.45 619.01 1224.45 619.01 1209.23 532 c 0,34,35
 1163.57 271 1163.57 271 1019.88 121 c 0,36,37
 876.186 -29 876.186 -29 671.886 -29 c 0,38,39
 571.086 -29 571.086 -29 509.769 11.5 c 0,40,41
 448.452 52 448.452 52 422.478 135 c 1,42,-1
 324.333 -426 l 1,43,-1
 5.7334 -426 l 1,44,-1
 331.479 1436 l 1,20,-1
EndSplineSet
EndChar
StartChar: dcroat
Encoding: 273 273 273
Width: 1288
Flags: W
Fore
741.33 479 m 2,0,-1
 759.699 584 l 2,1,2
 776.997 682.86 776.997 682.86 776.997 752.63 c 0,3,4
 776.997 814.12 776.997 814.12 763.56 853 c 0,5,6
 734.877 936 734.877 936 640.377 936 c 0,7,8
 541.377 936 541.377 936 486.018 848.5 c 128,-1,9
 430.659 761 430.659 761 390.6 532 c 0,10,11
 365.976 391.22 365.976 391.22 365.976 303.73 c 0,12,13
 365.976 248.9 365.976 248.9 375.642 215 c 0,14,15
 400.752 127 400.752 127 498.852 127 c 0,16,17
 593.352 127 593.352 127 651.069 210 c 0,18,19
 708.786 293 708.786 293 741.33 479 c 2,0,-1
1190.09 1223 m 1,20,-1
 976.131 0 l 1,21,-1
 657.531 0 l 1,22,-1
 681.147 135 l 1,23,24
 626.13 52 626.13 52 550.197 11.5 c 0,25,26
 474.255 -29 474.255 -29 373.455 -29 c 0,27,28
 170.055 -29 170.055 -29 79.749 121 c 0,29,30
 19.7637 220.63 19.7637 220.63 19.7637 369.22 c 0,31,32
 19.7637 444.35 19.7637 444.35 35.0996 532 c 0,33,34
 80.9365 794 80.9365 794 223.551 943 c 0,35,36
 366.165 1092 366.165 1092 569.565 1092 c 0,37,38
 670.365 1092 670.365 1092 732.132 1051.5 c 128,-1,39
 793.899 1011 793.899 1011 819.882 928 c 1,40,-1
 871.488 1223 l 1,41,-1
 579.888 1223 l 1,42,-1
 600.876 1343 l 1,43,-1
 892.476 1343 l 1,44,-1
 908.748 1436 l 1,45,-1
 771.948 1436 l 1,46,-1
 792.945 1556 l 1,47,-1
 1248.34 1556 l 1,48,-1
 1211.08 1343 l 1,49,-1
 1365.88 1343 l 1,50,-1
 1344.89 1223 l 1,51,-1
 1190.09 1223 l 1,20,-1
EndSplineSet
EndChar
StartChar: Hbar
Encoding: 294 294 294
Width: 1741
Flags: W
AnchorPoint: "above" 1016.55 1465 basechar 0
Fore
-44.0996 0 m 1,0,-1
 -23.4004 121 l 1,1,-1
 148.5 121 l 1,2,-1
 312.3 1053 l 1,3,-1
 140.4 1053 l 1,4,-1
 163.8 1190 l 1,5,-1
 335.7 1190 l 1,6,-1
 368.1 1372 l 1,7,-1
 196.2 1372 l 1,8,-1
 216.9 1493 l 1,9,-1
 908.1 1493 l 1,10,-1
 887.4 1372 l 1,11,-1
 714.6 1372 l 1,12,-1
 682.2 1190 l 1,13,-1
 1216.8 1190 l 1,14,-1
 1249.2 1372 l 1,15,-1
 1077.3 1372 l 1,16,-1
 1098 1493 l 1,17,-1
 1789.2 1493 l 1,18,-1
 1768.5 1372 l 1,19,-1
 1595.7 1372 l 1,20,-1
 1563.3 1190 l 1,21,-1
 1736.1 1190 l 1,22,-1
 1712.7 1053 l 1,23,-1
 1539.9 1053 l 1,24,-1
 1376.1 121 l 1,25,-1
 1548.9 121 l 1,26,-1
 1528.2 0 l 1,27,-1
 837 0 l 1,28,-1
 857.7 121 l 1,29,-1
 1029.6 121 l 1,30,-1
 1136.7 733 l 1,31,-1
 602.1 733 l 1,32,-1
 495 121 l 1,33,-1
 667.8 121 l 1,34,-1
 647.1 0 l 1,35,-1
 -44.0996 0 l 1,0,-1
626.4 870 m 1,36,-1
 1161 870 l 1,37,-1
 1193.4 1053 l 1,38,-1
 658.8 1053 l 1,39,-1
 626.4 870 l 1,36,-1
EndSplineSet
EndChar
StartChar: hbar
Encoding: 295 295 295
Width: 1340
Flags: W
AnchorPoint: "below" 543.395 0 basechar 0
AnchorPoint: "above" 435.153 1465 basechar 0
Fore
62.793 0 m 1,0,-1
 272.025 1196 l 1,1,-1
 129.825 1196 l 1,2,-1
 153.792 1333 l 1,3,-1
 295.992 1333 l 1,4,-1
 314.01 1436 l 1,5,-1
 171.81 1436 l 1,6,-1
 192.807 1556 l 1,7,-1
 653.607 1556 l 1,8,-1
 614.592 1333 l 1,9,-1
 937.692 1333 l 1,10,-1
 913.725 1196 l 1,11,-1
 590.625 1196 l 1,12,-1
 541.116 913 l 1,13,14
 615.339 1008 615.339 1008 696.483 1050 c 0,15,16
 777.627 1092 777.627 1092 890.127 1092 c 0,17,18
 1051.24 1092 1051.24 1092 1115.13 986.5 c 0,19,20
 1156.05 918.93 1156.05 918.93 1156.05 810.54 c 0,21,22
 1156.05 749.7 1156.05 749.7 1143.15 676 c 2,23,-1
 1046.06 121 l 1,24,-1
 1182.86 121 l 1,25,-1
 1161.69 0 l 1,26,-1
 706.293 0 l 1,27,-1
 826.308 686 l 2,28,29
 838.566 756.1 838.566 756.1 838.566 803.95 c 0,30,31
 838.566 848.26 838.566 848.26 828.054 873.5 c 0,32,33
 806.193 926 806.193 926 729.693 926 c 0,34,35
 633.393 926 633.393 926 574.659 847.5 c 128,-1,36
 515.925 769 515.925 769 486.009 598 c 2,37,-1
 381.393 0 l 1,38,-1
 62.793 0 l 1,0,-1
EndSplineSet
EndChar
StartChar: dotlessi
Encoding: 305 305 305
Width: 700
Flags: W
AnchorPoint: "above" 447.3 1092 basechar 0
Fore
445.689 121 m 1,0,-1
 582.489 121 l 1,1,-1
 561.321 0 l 1,2,-1
 105.921 0 l 1,3,-1
 270.711 942 l 1,4,-1
 134.811 942 l 1,5,-1
 155.979 1063 l 1,6,-1
 610.479 1063 l 1,7,-1
 445.689 121 l 1,0,-1
EndSplineSet
EndChar
StartChar: kgreenlandic
Encoding: 312 312 312
Width: 1277
Flags: W
Fore
424.782 0 m 1,0,-1
 106.182 0 l 1,1,-1
 270.45 939 l 1,2,-1
 134.55 939 l 1,3,-1
 155.718 1060 l 1,4,-1
 610.218 1060 l 1,5,-1
 522.045 556 l 1,6,-1
 975.15 939 l 1,7,-1
 860.85 939 l 1,8,-1
 882.018 1060 l 1,9,-1
 1141.22 1060 l 1,10,-1
 1120.05 939 l 1,11,-1
 830.763 695 l 1,12,-1
 1133.55 121 l 1,13,-1
 1237.05 121 l 1,14,-1
 1215.88 0 l 1,15,-1
 863.982 0 l 1,16,-1
 601.173 499 l 1,17,-1
 496.683 411 l 1,18,-1
 424.782 0 l 1,0,-1
EndSplineSet
EndChar
StartChar: Lslash
Encoding: 321 321 321
Width: 1308
Flags: W
Fore
-32.4941 0 m 1,0,-1
 -11.3262 121 l 1,1,-1
 161.474 121 l 1,2,-1
 236.349 549 l 1,3,-1
 20.6318 422 l 1,4,-1
 -21.9004 539 l 1,5,-1
 263.99 707 l 1,6,-1
 380.326 1372 l 1,7,-1
 207.526 1372 l 1,8,-1
 228.693 1493 l 1,9,-1
 919.89 1493 l 1,10,-1
 898.727 1372 l 1,11,-1
 726.826 1372 l 1,12,-1
 650.901 938 l 1,13,-1
 992.061 1139 l 1,14,-1
 1034.59 1022 l 1,15,-1
 622.911 778 l 1,16,-1
 510.772 137 l 1,17,-1
 1039.98 137 l 1,18,-1
 1081.26 373 l 1,19,-1
 1202.76 373 l 1,20,-1
 1137.51 0 l 1,21,-1
 -32.4941 0 l 1,0,-1
EndSplineSet
EndChar
StartChar: lslash
Encoding: 322 322 322
Width: 709
Flags: W
Fore
407.061 121 m 1,0,-1
 542.961 121 l 1,1,-1
 521.793 0 l 1,2,-1
 66.3926 0 l 1,3,-1
 180.63 653 l 1,4,-1
 24.3359 557 l 1,5,-1
 -13.0947 662 l 1,6,-1
 205.47 795 l 1,7,-1
 317.61 1436 l 1,8,-1
 181.71 1436 l 1,9,-1
 202.707 1556 l 1,10,-1
 658.107 1556 l 1,11,-1
 560.664 999 l 1,12,-1
 717.129 1096 l 1,13,-1
 756.36 991 l 1,14,-1
 535.995 858 l 1,15,-1
 407.061 121 l 1,0,-1
EndSplineSet
EndChar
StartChar: Eng
Encoding: 330 330 330
Width: 1607
Flags: W
Fore
724.5 -173 m 0,0,1
 724.5 -305 724.5 -305 838.8 -305 c 0,2,3
 926.1 -305 926.1 -305 973.8 -230.5 c 128,-1,4
 1021.5 -156 1021.5 -156 1057.5 49 c 2,5,-1
 1210.5 927 l 2,6,7
 1237.5 1080 1237.5 1080 1237.5 1158 c 128,-1,8
 1237.5 1236 1237.5 1236 1226.7 1273 c 0,9,10
 1198.8 1370 1198.8 1370 1089 1370 c 0,11,12
 953.1 1370 953.1 1370 865.8 1245.5 c 128,-1,13
 778.5 1121 778.5 1121 729 841 c 2,14,-1
 603.9 121 l 1,15,-1
 775.8 121 l 1,16,-1
 754.2 0 l 1,17,-1
 63 0 l 1,18,-1
 84.5996 121 l 1,19,-1
 255.6 121 l 1,20,-1
 474.3 1372 l 1,21,-1
 338.4 1372 l 1,22,-1
 359.1 1493 l 1,23,-1
 843.3 1493 l 1,24,-1
 816.3 1339 l 1,25,26
 905.4 1436 905.4 1436 1005.3 1478.5 c 128,-1,27
 1105.2 1521 1105.2 1521 1249.2 1521 c 0,28,29
 1452.6 1521 1452.6 1521 1531.8 1380 c 0,30,31
 1581.3 1292 1581.3 1292 1581.3 1180 c 128,-1,32
 1581.3 1068 1581.3 1068 1563.3 965 c 2,33,-1
 1401.3 41 l 2,34,35
 1359 -202 1359 -202 1228.95 -314 c 128,-1,36
 1098.9 -426 1098.9 -426 858.6 -426 c 0,37,38
 711 -426 711 -426 566.1 -358 c 1,39,-1
 607.5 -123 l 1,40,-1
 727.2 -123 l 1,41,42
 724.5 -150 724.5 -150 724.5 -173 c 0,0,1
EndSplineSet
Substitution2: "'locl' Localized Forms in Latin - Sami" Eng.alt
EndChar
StartChar: eng
Encoding: 331 331 331
Width: 1340
Flags: W
Fore
764.811 -125 m 2,0,-1
 906.687 686 l 2,1,2
 918.954 756.1 918.954 756.1 918.954 803.96 c 0,3,4
 918.954 848.26 918.954 848.26 908.442 873.5 c 0,5,6
 886.581 926 886.581 926 810.081 926 c 0,7,8
 713.781 926 713.781 926 655.047 847.5 c 128,-1,9
 596.313 769 596.313 769 566.397 598 c 2,10,-1
 461.781 0 l 1,11,-1
 143.181 0 l 1,12,-1
 307.98 942 l 1,13,-1
 172.08 942 l 1,14,-1
 193.248 1063 l 1,15,-1
 647.748 1063 l 1,16,-1
 621.504 913 l 1,17,18
 695.727 1008 695.727 1008 776.871 1050 c 128,-1,19
 858.015 1092 858.015 1092 970.515 1092 c 0,20,21
 1131.62 1092 1131.62 1092 1195.51 986.5 c 0,22,23
 1236.44 918.93 1236.44 918.93 1236.44 810.54 c 0,24,25
 1236.44 749.7 1236.44 749.7 1223.54 676 c 2,26,-1
 1083.41 -125 l 2,27,28
 1054.9 -288 1054.9 -288 936.342 -371.5 c 128,-1,29
 817.785 -455 817.785 -455 615.285 -455 c 0,30,31
 561.285 -455 561.285 -455 501.831 -445 c 0,32,33
 442.377 -435 442.377 -435 380.007 -416 c 1,34,-1
 419.544 -190 l 1,35,-1
 521.064 -191 l 1,36,37
 516.492 -220.99 516.492 -220.99 516.492 -244.72 c 0,38,39
 516.492 -284.31 516.492 -284.31 529.209 -306.5 c 0,40,41
 549.549 -342 549.549 -342 608.949 -342 c 0,42,43
 674.649 -342 674.649 -342 708.975 -295 c 0,44,45
 743.292 -248 743.292 -248 764.811 -125 c 2,0,-1
EndSplineSet
EndChar
StartChar: OE
Encoding: 338 338 338
Width: 2175
Flags: W
AnchorPoint: "below" 1088.01 0 basechar 0
AnchorPoint: "above" 1344.29 1465 basechar 0
Fore
939.078 121 m 1,0,-1
 1157.92 1372 l 1,1,-1
 1043.62 1372 l 2,2,3
 806.026 1372 806.026 1372 657.96 1215 c 128,-1,4
 509.895 1058 509.895 1058 455.663 748 c 0,5,6
 400.73 434 400.73 434 493.053 277.5 c 128,-1,7
 585.373 121 585.373 121 824.773 121 c 2,8,-1
 939.078 121 l 1,0,-1
1950.21 0 m 1,9,-1
 761.307 0 l 2,10,11
 575.007 0 575.007 0 457.604 26 c 128,-1,12
 340.203 52 340.203 52 259.274 109 c 1,13,14
 133.02 195 133.02 195 86.0098 361 c 128,-1,15
 39.001 527 39.001 527 77.6631 748 c 0,16,17
 116.15 968 116.15 968 220.978 1132.5 c 128,-1,18
 325.806 1297 325.806 1297 482.325 1384 c 1,19,20
 582.472 1442 582.472 1442 707.533 1467.5 c 128,-1,21
 832.594 1493 832.594 1493 1022.49 1493 c 2,22,-1
 2195.19 1493 l 1,23,-1
 2133.61 1141 l 1,24,-1
 2010.31 1141 l 1,25,-1
 2047.92 1356 l 1,26,-1
 1503.42 1356 l 1,27,-1
 1419.63 877 l 1,28,-1
 1749.93 877 l 1,29,-1
 1783.17 1067 l 1,30,-1
 1906.47 1067 l 1,31,-1
 1816.2 551 l 1,32,-1
 1692.9 551 l 1,33,-1
 1726.14 741 l 1,34,-1
 1395.84 741 l 1,35,-1
 1290.18 137 l 1,36,-1
 1850.88 137 l 1,37,-1
 1888.49 352 l 1,38,-1
 2011.79 352 l 1,39,-1
 1950.21 0 l 1,9,-1
EndSplineSet
EndChar
StartChar: oe
Encoding: 339 339 339
Width: 1894
Flags: W
AnchorPoint: "above" 1074.55 1092 basechar 0
AnchorPoint: "below" 883.519 0 basechar 0
Fore
1132.2 400 m 1,0,1
 1126.8 366 1126.8 366 1126.8 295 c 0,2,3
 1127.7 84 1127.7 84 1312.2 84 c 0,4,5
 1415.7 84 1415.7 84 1490.4 145 c 128,-1,6
 1565.1 206 1565.1 206 1602.9 322 c 1,7,-1
 1752.3 322 l 1,8,9
 1682.1 141 1682.1 141 1552.05 56 c 128,-1,10
 1422 -29 1422 -29 1210.5 -29 c 128,-1,11
 999 -29 999 -29 890.1 81 c 1,12,13
 734.4 -29 734.4 -29 499.5 -29 c 128,-1,14
 264.6 -29 264.6 -29 147.6 120 c 0,15,16
 63 228 63 228 63 394 c 0,17,18
 63 458 63 458 75.5996 532 c 0,19,20
 121.5 795 121.5 795 291.15 943.5 c 128,-1,21
 460.8 1092 460.8 1092 697.5 1092 c 0,22,23
 933.3 1092 933.3 1092 1051.2 980 c 1,24,25
 1200.6 1092 1200.6 1092 1389.6 1092 c 128,-1,26
 1578.6 1092 1578.6 1092 1688.4 1024 c 0,27,28
 1842.3 927 1842.3 927 1811.7 752 c 0,29,30
 1755 428 1755 428 1132.2 400 c 1,0,1
1491.3 762 m 0,31,32
 1504.8 837 1504.8 837 1490.4 894 c 0,33,34
 1470.6 979 1470.6 979 1385.1 979 c 0,35,36
 1300.5 979 1300.5 979 1251.9 893 c 0,37,38
 1201.5 799 1201.5 799 1152.9 519 c 1,39,40
 1447.2 510 1447.2 510 1491.3 762 c 0,31,32
411.3 181 m 0,41,42
 435.6 84 435.6 84 537.3 84 c 0,43,44
 638.1 84 638.1 84 695.7 180 c 128,-1,45
 753.3 276 753.3 276 790.2 488 c 0,46,47
 828 699 828 699 828 774.5 c 128,-1,48
 828 850 828 850 819 884 c 0,49,50
 795.6 979 795.6 979 693.9 979 c 128,-1,51
 592.2 979 592.2 979 533.7 882.5 c 128,-1,52
 475.2 786 475.2 786 439.2 577 c 0,53,54
 402.3 368 402.3 368 402.3 291.5 c 128,-1,55
 402.3 215 402.3 215 411.3 181 c 0,41,42
EndSplineSet
EndChar
StartChar: Tbar
Encoding: 358 358 358
Width: 1371
Flags: W
Fore
203.4 0 m 1,0,-1
 224.1 121 l 1,1,-1
 402.3 121 l 1,2,-1
 496.8 659 l 1,3,-1
 274.5 659 l 1,4,-1
 307.8 851 l 1,5,-1
 530.1 851 l 1,6,-1
 618.3 1356 l 1,7,-1
 250.2 1356 l 1,8,-1
 209.7 1120 l 1,9,-1
 86.4004 1120 l 1,10,-1
 151.2 1493 l 1,11,-1
 1483.2 1493 l 1,12,-1
 1418.4 1120 l 1,13,-1
 1296.9 1120 l 1,14,-1
 1337.4 1356 l 1,15,-1
 966.6 1356 l 1,16,-1
 878.4 851 l 1,17,-1
 1100.7 851 l 1,18,-1
 1067.4 659 l 1,19,-1
 845.1 659 l 1,20,-1
 750.6 121 l 1,21,-1
 929.7 121 l 1,22,-1
 909 0 l 1,23,-1
 203.4 0 l 1,0,-1
EndSplineSet
EndChar
StartChar: tbar
Encoding: 359 359 359
Width: 851
Flags: W
Fore
228.6 942 m 1,0,-1
 90 942 l 1,1,-1
 110.7 1063 l 1,2,-1
 249.3 1063 l 1,3,-1
 306.9 1393 l 1,4,-1
 625.5 1393 l 1,5,-1
 567.9 1063 l 1,6,-1
 833.4 1063 l 1,7,-1
 812.7 942 l 1,8,-1
 547.2 942 l 1,9,-1
 498.6 665 l 1,10,-1
 664.2 665 l 1,11,-1
 630 473 l 1,12,-1
 464.4 473 l 1,13,-1
 432.9 291 l 2,14,15
 417.6 202 417.6 202 417.6 157 c 0,16,17
 417.6 130 417.6 130 422.1 118 c 0,18,19
 436.5 84 436.5 84 488.7 84 c 0,20,21
 546.3 84 546.3 84 581.4 127 c 128,-1,22
 616.5 170 616.5 170 634.5 260 c 1,23,-1
 768.6 260 l 1,24,25
 732.6 100 732.6 100 649.8 36 c 0,26,27
 568.8 -29 568.8 -29 396 -29 c 0,28,29
 198.9 -29 198.9 -29 140.4 40 c 0,30,31
 102.6 84 102.6 84 102.6 176 c 0,32,33
 102.6 226 102.6 226 114.3 291 c 2,34,-1
 145.8 473 l 1,35,-1
 12.5996 473 l 1,36,-1
 46.7998 665 l 1,37,-1
 180 665 l 1,38,-1
 228.6 942 l 1,0,-1
EndSplineSet
EndChar
StartChar: longs
Encoding: 383 383 383
Width: 792
Flags: W
Fore
1015.2 1290 m 1,0,-1
 914.4 1290 l 1,1,2
 916.2 1305 916.2 1305 916.2 1318 c 0,3,4
 916.2 1375 916.2 1375 893.7 1406 c 0,5,6
 866.7 1444 866.7 1444 804.6 1444 c 0,7,8
 732.6 1444 732.6 1444 690.3 1386.5 c 128,-1,9
 648 1329 648 1329 625.5 1200 c 2,29,-1
 410.4 -29 l 2,30,31
 373.5 -238 373.5 -238 261.9 -298 c 0,32,33
 88.2002 -389 88.2002 -389 -108.9 -389 c 1,34,35
 -99 -333 -99 -333 -88.2002 -277 c 17,0,1
 -16.2002 -277 -16.2002 -277 26.0996 -219.5 c 128,-1,2
 68.4004 -162 68.4004 -162 90.9004 -33 c 2,3,-1
 261.9 942 l 25,4,-1
 119.7 942 l 1,30,-1
 140.4 1063 l 1,31,-1
 282.6 1063 l 1,32,-1
 306 1196 l 2,33,34
 336.6 1373 336.6 1373 454.5 1464.5 c 128,-1,35
 572.4 1556 572.4 1556 769.5 1556 c 0,36,37
 846 1556 846 1556 917.1 1546.5 c 128,-1,38
 988.2 1537 988.2 1537 1055.7 1518 c 1,39,-1
 1015.2 1290 l 1,0,-1
EndSplineSet
EndChar
StartChar: uni0180
Encoding: 384 384 384
Width: 1288
Flags: W
AnchorPoint: "below" 472.132 0 basechar 0
AnchorPoint: "above" 414.321 1465 basechar 0
Fore
296.748 1436 m 1,0,-1
 159.948 1436 l 1,1,-1
 180.945 1556 l 1,2,-1
 636.345 1556 l 1,3,-1
 597.33 1333 l 1,4,-1
 920.43 1333 l 1,5,-1
 896.463 1196 l 1,6,-1
 573.363 1196 l 9,7,-1
 526.482 928 l 17,8,9
 581.499 1011 581.499 1011 656.982 1051.5 c 128,-1,10
 732.465 1092 732.465 1092 833.265 1092 c 0,11,12
 1037.57 1092 1037.57 1092 1128.86 942.5 c 0,13,14
 1189.72 842.84 1189.72 842.84 1189.72 693.63 c 0,15,16
 1189.72 619.01 1189.72 619.01 1174.5 532 c 0,17,18
 1128.84 271 1128.84 271 985.149 121 c 128,-1,19
 841.455 -29 841.455 -29 637.155 -29 c 0,20,21
 536.355 -29 536.355 -29 475.047 11.5 c 128,-1,22
 413.73 52 413.73 52 387.747 135 c 1,23,-1
 364.131 0 l 1,24,-1
 45.5312 0 l 1,25,-1
 254.763 1196 l 1,26,-1
 112.563 1196 l 1,27,-1
 136.53 1333 l 1,28,-1
 278.73 1333 l 1,29,-1
 296.748 1436 l 1,0,-1
447.93 479 m 2,30,31
 430.506 379.4 430.506 379.4 430.506 309.34 c 0,32,33
 430.506 248.56 430.506 248.56 443.619 210 c 0,34,35
 471.852 127 471.852 127 567.252 127 c 0,36,37
 665.352 127 665.352 127 720.792 215 c 128,-1,38
 776.241 303 776.241 303 816.3 532 c 0,39,40
 841.068 673.57 841.068 673.57 841.068 761.06 c 0,41,42
 841.068 815.09 841.068 815.09 831.618 848.5 c 0,43,44
 806.877 936 806.877 936 708.777 936 c 0,45,46
 613.377 936 613.377 936 556.11 853 c 128,-1,47
 498.834 770 498.834 770 466.299 584 c 2,48,-1
 447.93 479 l 2,30,31
EndSplineSet
EndChar
StartChar: uni0181
Encoding: 385 385 385
Width: 1557
Flags: W
Fore
388.894 1493 m 9,0,-1
 1013.49 1493 l 18,1,2
 1262.79 1493 1262.79 1493 1366.4 1401 c 0,3,4
 1473.08 1306 1473.08 1306 1441.24 1124 c 0,5,6
 1417.98 991 1417.98 991 1319.72 913 c 0,7,8
 1220.58 835 1220.58 835 1049.69 815 c 1,9,10
 1252.19 815 1252.19 815 1339.19 695 c 0,11,12
 1429.88 596 1429.88 596 1401.18 432 c 0,13,14
 1362.34 210 1362.34 210 1192.77 105 c 0,15,16
 1024.11 0 1024.11 0 702.807 0 c 2,17,-1
 -44.1943 0 l 1,18,-1
 -23.0264 121 l 1,19,-1
 148.873 121 l 1,20,-1
 367.727 1372 l 0,21,22
 191.326 1372 191.326 1372 113.656 1283 c 0,23,24
 34.7373 1192 34.7373 1192 2.19727 1006 c 1,25,-1
 -176.003 1006 l 1,26,-1
 -113.373 1364 l 1,27,28
 -26.6016 1433 -26.6016 1433 194.221 1476 c 0,29,30
 282.693 1493 282.693 1493 388.894 1493 c 9,0,-1
626.405 870 m 1,31,-1
 744.306 870 l 2,32,33
 899.105 870 899.105 870 984.654 932 c 0,34,35
 1070.37 995 1070.37 995 1092.94 1124 c 0,36,37
 1115.68 1254 1115.68 1254 1053.11 1313 c 0,38,39
 991.422 1372 991.422 1372 832.127 1372 c 2,40,-1
 714.227 1372 l 1,41,-1
 626.405 870 l 1,31,-1
495.373 121 m 1,42,-1
 624.073 121 l 2,43,44
 795.974 121 795.974 121 892.069 197 c 128,-1,45
 988.164 273 988.164 273 1015.98 432 c 0,46,47
 1043.97 592 1043.97 592 974.088 671 c 128,-1,48
 904.212 750 904.212 750 734.113 750 c 2,49,-1
 605.413 750 l 1,50,-1
 495.373 121 l 1,42,-1
EndSplineSet
EndChar
StartChar: uni0183
Encoding: 387 387 387
Width: 1288
Flags: W
Fore
447.929 479 m 2,0,1
 415.39 293 415.39 293 443.169 210 c 0,2,3
 471.85 127 471.85 127 567.249 127 c 0,4,5
 665.35 127 665.35 127 721.245 215 c 0,6,7
 776.239 303 776.239 303 816.301 532 c 128,-1,8
 856.362 761 856.362 761 831.982 848 c 0,9,10
 806.877 936 806.877 936 708.777 936 c 0,11,12
 613.377 936 613.377 936 555.657 853 c 0,13,14
 498.838 770 498.838 770 466.297 584 c 2,15,-1
 447.929 479 l 2,0,1
1175.45 1556 m 1,16,-1
 1125.05 1268 l 1,17,-1
 1016.15 1268 l 1,18,-1
 1045.55 1436 l 1,19,-1
 615.349 1436 l 1,20,-1
 526.479 928 l 1,21,22
 581.498 1011 581.498 1011 657.071 1052 c 0,23,24
 732.469 1092 732.469 1092 833.269 1092 c 0,25,26
 1037.57 1092 1037.57 1092 1129.23 942 c 0,27,28
 1220.16 793 1220.16 793 1174.5 532 c 128,-1,29
 1128.84 271 1128.84 271 985.599 121 c 0,30,31
 841.458 -29 841.458 -29 637.157 -29 c 0,32,33
 536.357 -29 536.357 -29 475.131 12 c 0,34,35
 413.729 52 413.729 52 387.749 135 c 1,36,-1
 364.132 0 l 1,37,-1
 -91.2686 0 l 1,38,-1
 -70.1006 121 l 1,39,-1
 66.6992 121 l 1,40,-1
 296.749 1436 l 1,41,-1
 159.949 1436 l 1,42,-1
 180.942 1556 l 1,43,-1
 1175.45 1556 l 1,16,-1
EndSplineSet
EndChar
StartChar: uni0184
Encoding: 388 388 388
Width: 1575
Flags: W
Fore
626.405 870 m 1,0,-1
 745.205 870 l 2,1,2
 929.105 870 929.105 870 1052.43 852.375 c 0,3,4
 1064.16 850.698 1064.16 850.698 1072.73 849 c 0,5,6
 1244.33 814.987 1244.33 814.987 1353.64 697.868 c 0,7,8
 1354.97 696.44 1354.97 696.44 1356.29 695 c 0,9,10
 1446.97 596 1446.97 596 1418.28 432 c 0,11,12
 1379.44 209.997 1379.44 209.997 1210.32 105 c 128,-1,13
 1041.19 0 1041.19 0 703.706 0 c 2,14,-1
 -44.1943 0 l 1,15,-1
 -23.0264 121 l 1,16,-1
 148.873 121 l 1,17,-1
 273.607 834 l 1,18,-1
 15.3066 834 l 1,19,-1
 36.4756 955 l 1,20,-1
 735.394 1493 l 1,21,-1
 626.405 870 l 1,0,-1
495.373 121 m 1,22,-1
 624.974 121 l 2,23,24
 806.531 121 806.531 121 903.312 192.523 c 0,25,26
 906.309 194.733 906.309 194.733 909.171 197 c 0,27,28
 1005.26 273.005 1005.26 273.005 1033.08 432 c 0,29,30
 1061.07 592 1061.07 592 991.188 671 c 0,31,32
 924.605 746.282 924.605 746.282 749.654 749.852 c 0,33,34
 742.386 750 742.386 750 735.013 750 c 2,35,-1
 605.413 750 l 1,36,-1
 495.373 121 l 1,22,-1
EndSplineSet
EndChar
StartChar: uni0185
Encoding: 389 389 389
Width: 1288
Flags: W
Fore
447.842 479 m 2,0,1
 415.303 293 415.303 293 443.531 210 c 128,-1,2
 471.762 127 471.762 127 567.162 127 c 0,3,4
 665.262 127 665.262 127 720.706 215 c 128,-1,5
 776.152 303 776.152 303 816.213 532 c 128,-1,6
 856.275 761 856.275 761 831.532 848.5 c 128,-1,7
 806.791 936 806.791 936 708.69 936 c 0,8,9
 613.291 936 613.291 936 556.02 853 c 128,-1,10
 498.749 770 498.749 770 466.211 584 c 2,11,-1
 447.842 479 l 2,0,1
42.6855 1008 m 1,12,-1
 63.6797 1128 l 1,13,-1
 636.43 1557 l 1,14,-1
 526.391 928 l 1,15,16
 581.411 1011 581.411 1011 656.896 1051.5 c 128,-1,17
 732.381 1092 732.381 1092 833.182 1092 c 0,18,19
 1037.48 1092 1037.48 1092 1128.78 942.5 c 128,-1,20
 1220.08 793 1220.08 793 1174.41 532 c 128,-1,21
 1128.75 271 1128.75 271 985.059 121 c 128,-1,22
 841.37 -29 841.37 -29 637.07 -29 c 0,23,24
 536.271 -29 536.271 -29 474.956 11.5 c 128,-1,25
 413.642 52 413.642 52 387.66 135 c 1,26,-1
 364.044 0 l 1,27,-1
 -91.3564 0 l 1,28,-1
 -70.1875 121 l 1,29,-1
 66.6123 121 l 1,30,-1
 220.886 1008 l 1,31,-1
 42.6855 1008 l 1,12,-1
EndSplineSet
EndChar
StartChar: uni0186
Encoding: 390 390 390
Width: 1467
Flags: W
AnchorPoint: "above" 785.57 1465 basechar 0
Fore
133.294 1065 m 1,0,1
 226.807 1296 226.807 1296 384.1 1408 c 128,-1,2
 541.394 1520 541.394 1520 773.593 1520 c 0,3,4
 1113.79 1520 1113.79 1520 1274.87 1311.5 c 128,-1,5
 1435.94 1103 1435.94 1103 1373.49 746 c 0,6,7
 1310.86 388 1310.86 388 1076.83 179.5 c 128,-1,8
 842.807 -29 842.807 -29 502.606 -29 c 0,9,10
 382.907 -29 382.907 -29 258.905 3 c 128,-1,11
 134.903 35 134.903 35 1.375 100 c 1,12,-1
 65.5791 467 l 1,13,-1
 179.879 467 l 1,14,15
 182.089 279 182.089 279 258.433 185.5 c 128,-1,16
 334.775 92 334.775 92 486.876 92 c 0,17,18
 683.076 92 683.076 92 806.554 252.5 c 128,-1,19
 930.033 413 930.033 413 988.29 746 c 128,-1,20
 1046.55 1079 1046.55 1079 979.137 1239 c 128,-1,21
 911.727 1399 911.727 1399 713.725 1399 c 0,22,23
 579.624 1399 579.624 1399 480.055 1316 c 128,-1,24
 380.485 1233 380.485 1233 312.394 1065 c 1,25,-1
 133.294 1065 l 1,0,1
EndSplineSet
EndChar
StartChar: uni0187
Encoding: 391 391 391
Width: 1467
Flags: W
AnchorPoint: "above" 908.388 1465 basechar 0
Fore
1299.92 426 m 1,0,1
 1206.41 195 1206.41 195 1049.12 83 c 0,2,3
 891.825 -29 891.825 -29 659.625 -29 c 0,4,5
 319.425 -29 319.425 -29 158.889 180 c 0,6,7
 -2.72363 388 -2.72363 388 59.7305 745 c 0,8,9
 122.36 1103 122.36 1103 356.923 1312 c 0,10,11
 590.412 1520 590.412 1520 930.609 1520 c 0,12,13
 1050.31 1520 1050.31 1520 1174.31 1488 c 0,14,15
 1224.24 1475 1224.24 1475 1275.99 1457 c 1,16,17
 1313.33 1583 1313.33 1583 1401 1652 c 0,18,19
 1489.57 1721 1489.57 1721 1581.37 1721 c 0,20,21
 1635.37 1721 1635.37 1721 1694.83 1711 c 0,22,23
 1754.28 1701 1754.28 1701 1816.65 1682 c 1,24,-1
 1777.29 1457 l 1,25,-1
 1675.59 1457 l 1,26,27
 1689.59 1537 1689.59 1537 1667.81 1572 c 0,28,29
 1647.11 1608 1647.11 1608 1587.71 1608 c 0,30,31
 1522.01 1608 1522.01 1608 1487.68 1561 c 0,32,33
 1453.37 1514 1453.37 1514 1431.85 1391 c 2,34,-1
 1367.64 1024 l 1,35,-1
 1253.34 1024 l 1,36,37
 1251.13 1212 1251.13 1212 1174.88 1306 c 0,38,39
 1098.44 1399 1098.44 1399 946.341 1399 c 0,40,41
 750.143 1399 750.143 1399 626.577 1238 c 0,42,43
 503.188 1078 503.188 1078 444.931 745 c 0,44,45
 386.675 412 386.675 412 454.084 252 c 0,46,47
 521.494 92 521.494 92 719.494 92 c 0,48,49
 853.594 92 853.594 92 953.613 175 c 0,50,51
 1052.73 258 1052.73 258 1120.82 426 c 1,52,-1
 1299.92 426 l 1,0,1
EndSplineSet
EndChar
StartChar: uni0188
Encoding: 392 392 392
Width: 1122
Flags: W
AnchorPoint: "above" 664.077 1092 basechar 0
Fore
973.026 332 m 1,0,1
 906.984 150 906.984 150 785.938 60 c 0,2,3
 664.168 -29 664.168 -29 482.367 -29 c 0,4,5
 226.768 -29 226.768 -29 112.084 118 c 0,6,7
 -2.59863 265 -2.59863 265 44.1104 532 c 0,8,9
 90.2949 796 90.2949 796 254.787 944 c 0,10,11
 419.277 1092 419.277 1092 665.878 1092 c 0,12,13
 764.878 1092 764.878 1092 862.004 1071 c 1,14,-1
 871.102 1123 l 2,15,16
 899.616 1286 899.616 1286 1018.71 1370 c 0,17,18
 1136.74 1453 1136.74 1453 1229.44 1453 c 0,19,20
 1283.44 1453 1283.44 1453 1342.88 1443 c 0,21,22
 1402.33 1433 1402.33 1433 1464.71 1414 c 1,23,-1
 1425.35 1189 l 1,24,-1
 1323.65 1189 l 1,25,26
 1337.64 1269 1337.64 1269 1314.96 1304 c 0,27,28
 1295.16 1340 1295.16 1340 1235.76 1340 c 0,29,30
 1170.06 1340 1170.06 1340 1135.74 1293 c 0,31,32
 1101.42 1246 1101.42 1246 1079.9 1123 c 2,33,-1
 1059.79 1008 l 1,34,-1
 1008.17 713 l 1,35,-1
 907.371 713 l 1,36,37
 916.596 848 916.596 848 871.438 914 c 0,38,39
 826.109 979 826.109 979 723.509 979 c 0,40,41
 590.309 979 590.309 979 517.016 879 c 0,42,43
 442.82 779 442.82 779 399.61 532 c 0,44,45
 357.449 291 357.449 291 394.33 188 c 0,46,47
 431.036 84 431.036 84 555.236 84 c 0,48,49
 651.536 84 651.536 84 720.332 148 c 0,50,51
 790.029 212 790.029 212 823.622 332 c 1,52,-1
 973.026 332 l 1,0,1
EndSplineSet
EndChar
StartChar: uni018A
Encoding: 394 394 394
Width: 1598
Flags: W
AnchorPoint: "above" 904.194 1465 basechar 0
Fore
388.894 1493 m 2,0,-1
 906.39 1493 l 2,1,2
 1268.19 1493 1268.19 1493 1426.3 1301 c 128,-1,3
 1584.41 1109 1584.41 1109 1521.26 748 c 0,4,5
 1457.76 385 1457.76 385 1231.4 192 c 0,6,7
 1006.11 0 1006.11 0 645.206 0 c 2,8,-1
 -44.1943 0 l 1,9,-1
 -23.0264 121 l 1,10,-1
 148.873 121 l 1,11,-1
 367.727 1372 l 17,12,13
 191.326 1372 191.326 1372 113.656 1283 c 0,14,15
 34.7373 1192 34.7373 1192 2.19727 1006 c 1,16,-1
 -176.003 1006 l 1,17,-1
 -113.373 1364 l 1,18,19
 -26.6016 1433 -26.6016 1433 194.221 1476 c 0,20,21
 282.693 1493 282.693 1493 388.894 1493 c 2,0,-1
495.373 121 m 1,22,-1
 620.474 121 l 2,23,24
 831.073 121 831.073 121 955.413 271 c 0,25,26
 1078.86 421 1078.86 421 1136.06 748 c 0,27,28
 1192.91 1073 1192.91 1073 1121.79 1222 c 0,29,30
 1050.82 1372 1050.82 1372 839.326 1372 c 2,31,-1
 714.227 1372 l 1,32,-1
 495.373 121 l 1,22,-1
EndSplineSet
EndChar
StartChar: uni018B
Encoding: 395 395 395
Width: 1575
Flags: W
Fore
1061.52 1356 m 1,0,-1
 396.428 1356 l 1,1,-1
 355.141 1120 l 1,2,-1
 233.641 1120 l 1,3,-1
 298.894 1493 l 1,4,-1
 1603.89 1493 l 1,5,-1
 1582.72 1372 l 1,6,-1
 1410.82 1372 l 1,7,-1
 1191.98 121 l 1,8,-1
 1363.88 121 l 1,9,-1
 1342.71 0 l 1,10,-1
 594.807 0 l 2,11,12
 257.307 0 257.307 0 125.374 105 c 0,13,14
 -7.45703 210 -7.45703 210 31.3809 432 c 0,15,16
 60.0713 596 60.0713 596 185.39 695 c 0,17,18
 187.365 696 187.365 696 189.515 698 c 0,19,20
 339.583 815 339.583 815 522.832 849 c 0,21,22
 532.181 851 532.181 851 544.057 852 c 0,23,24
 674.105 870 674.105 870 857.705 870 c 2,25,-1
 976.509 870 l 1,26,-1
 1061.52 1356 l 1,0,-1
845.474 121 m 1,27,-1
 955.512 750 l 1,28,-1
 825.913 750 l 2,29,-1
 811.513 750 l 0,30,31
 636.013 750 636.013 750 542.092 671 c 0,32,33
 444.571 592 444.571 592 416.58 432 c 0,34,35
 388.765 273 388.765 273 458.27 197 c 0,36,37
 462.969 193 l 0,38,39
 534.073 121 534.073 121 715.873 121 c 2,40,-1
 845.474 121 l 1,27,-1
EndSplineSet
EndChar
StartChar: uni018C
Encoding: 396 396 396
Width: 1288
Flags: W
Fore
709.829 479 m 2,0,-1
 728.197 584 l 2,1,2
 760.737 770 760.737 770 732.058 853 c 0,3,4
 704.277 936 704.277 936 608.877 936 c 0,5,6
 510.777 936 510.777 936 455.782 848 c 0,7,8
 400.062 761 400.062 761 360.001 532 c 128,-1,9
 319.939 303 319.939 303 345.045 215 c 0,10,11
 369.249 127 369.249 127 467.35 127 c 0,12,13
 562.749 127 562.749 127 619.569 210 c 0,14,15
 677.29 293 677.29 293 709.829 479 c 2,0,-1
1331.75 1436 m 1,16,-1
 1195.85 1436 l 1,17,-1
 965.799 121 l 1,18,-1
 1102.6 121 l 1,19,-1
 1081.43 0 l 1,20,-1
 626.032 0 l 1,21,-1
 649.648 135 l 1,22,23
 594.628 52 594.628 52 519.23 12 c 0,24,25
 443.657 -29 443.657 -29 342.857 -29 c 0,26,27
 138.558 -29 138.558 -29 47.7998 121 c 0,28,29
 -43.8594 271 -43.8594 271 1.80078 532 c 128,-1,30
 47.4609 793 47.4609 793 191.428 942 c 0,31,32
 334.669 1092 334.669 1092 538.969 1092 c 0,33,34
 639.769 1092 639.769 1092 701.171 1052 c 0,35,36
 762.398 1011 762.398 1011 788.378 928 c 1,37,-1
 877.249 1436 l 1,38,-1
 447.049 1436 l 1,39,-1
 417.657 1268 l 1,40,-1
 308.758 1268 l 1,41,-1
 359.143 1556 l 1,42,-1
 1352.75 1556 l 1,43,-1
 1331.75 1436 l 1,16,-1
EndSplineSet
EndChar
StartChar: uni018D
Encoding: 397 397 397
Width: 1229
Flags: W
Fore
866.54 41 m 8,0,1
 996.795 -53 996.795 -53 971.604 -197 c 0,2,3
 942.039 -366 942.039 -366 810.268 -435 c 0,4,-1
 798.418 -441 l 0,5,6
 671.297 -504 671.297 -504 475.996 -504 c 0,7,8
 385.996 -504 385.996 -504 277.57 -491 c 0,9,10
 171.844 -478 171.844 -478 71.6436 -454 c 1,11,-1
 108.906 -241 l 1,12,-1
 209.706 -241 l 1,13,14
 207.908 -277 207.908 -277 218.635 -298 c 0,15,16
 225.185 -312 225.185 -312 259.912 -345 c 1,17,18
 311.265 -391 311.265 -391 407.565 -391 c 0,19,20
 515.565 -391 515.565 -391 581.562 -343 c 1,21,-1
 615.985 -316 l 1,22,23
 657.208 -281 657.208 -281 665.403 -193 c 0,24,25
 694.094 -29 694.094 -29 559.094 -29 c 1,26,27
 304.394 -29 304.394 -29 188.26 120 c 0,28,29
 71.2266 269 71.2266 269 117.062 531 c 128,-1,30
 162.896 793 162.896 793 332.962 942 c 0,31,32
 502.304 1092 502.304 1092 755.203 1092 c 128,-1,33
 1008.11 1092 1008.11 1092 1124.96 942 c 0,34,35
 1242.9 793 1242.9 793 1197.06 531 c 0,36,37
 1151.05 268 1151.05 268 981.162 120 c 0,38,39
 880.09 31 880.09 31 866.54 41 c 8,0,1
735.435 979 m 0,40,41
 634.635 979 634.635 979 576.441 883 c 0,42,43
 519.146 787 519.146 787 474.361 531 c 128,-1,44
 429.576 275 429.576 275 453.457 180 c 0,45,46
 477.162 84 477.162 84 578.862 84 c 128,-1,47
 680.562 84 680.562 84 738.757 180 c 0,48,49
 797.125 277 797.125 277 841.562 531 c 128,-1,50
 885.996 785 885.996 785 861.566 882 c 128,-1,51
 837.135 979 837.135 979 735.435 979 c 0,40,41
EndSplineSet
EndChar
StartChar: uni018E
Encoding: 398 398 398
Width: 1404
Flags: W
AnchorPoint: "above" 788.996 1465 basechar 0
Fore
1179.81 0 m 1,0,-1
 -44.1943 0 l 1,1,-1
 17.3857 352 l 1,2,-1
 140.686 352 l 1,3,-1
 103.072 137 l 1,4,-1
 685.372 137 l 1,5,-1
 791.038 741 l 1,6,-1
 439.138 741 l 1,7,-1
 405.899 551 l 1,8,-1
 282.599 551 l 1,9,-1
 372.869 1067 l 1,10,-1
 496.169 1067 l 1,11,-1
 462.93 877 l 1,12,-1
 814.829 877 l 1,13,-1
 898.628 1356 l 1,14,-1
 333.428 1356 l 1,15,-1
 295.814 1141 l 1,16,-1
 171.614 1141 l 1,17,-1
 233.193 1493 l 1,18,-1
 1440.99 1493 l 1,19,-1
 1419.82 1372 l 1,20,-1
 1247.92 1372 l 1,21,-1
 1029.08 121 l 1,22,-1
 1200.98 121 l 1,23,-1
 1179.81 0 l 1,0,-1
EndSplineSet
EndChar
StartChar: uni018F
Encoding: 399 399 399
Width: 1605
Flags: W
AnchorPoint: "above" 929.655 1465 basechar 0
Fore
1154.27 830 m 1,0,1
 1201.33 1099 1201.33 1099 1132.05 1238 c 0,2,3
 1064.64 1398 1064.64 1398 866.638 1398 c 0,4,5
 732.538 1398 732.538 1398 632.518 1315 c 0,6,7
 533.396 1232 533.396 1232 465.131 1063 c 1,8,-1
 286.031 1063 l 1,9,10
 379.544 1294 379.544 1294 537.012 1407 c 0,11,12
 694.305 1519 694.305 1519 926.505 1519 c 0,13,14
 1266.71 1519 1266.71 1519 1427.25 1310 c 0,15,16
 1588.85 1102 1588.85 1102 1526.4 745 c 0,17,18
 1463.07 383 1463.07 383 1234.43 177 c 0,19,20
 1004.89 -29 1004.89 -29 666.495 -29 c 0,21,22
 327.195 -29 327.195 -29 170.633 177 c 0,23,24
 14.0713 383 14.0713 383 77.4004 745 c 2,25,-1
 92.2695 830 l 1,26,-1
 1154.27 830 l 1,0,1
1127.01 669 m 1,27,-1
 450.205 669 l 1,28,29
 401.045 388 401.045 388 461.304 254 c 0,30,31
 522.962 92 522.962 92 687.662 92 c 0,32,33
 859.562 92 859.562 92 971.433 253 c 0,34,35
 1079.07 395 1079.07 395 1127.01 669 c 1,27,-1
EndSplineSet
EndChar
StartChar: uni0190
Encoding: 400 400 400
Width: 1329
Flags: W
AnchorPoint: "above" 957.393 1465 basechar 0
AnchorPoint: "below" 701.1 0 basechar 0
Fore
335.7 1075 m 0,0,1
 335.7 866 335.7 866 576.9 815 c 1,2,3
 217.8 753 217.8 753 156.6 403 c 0,4,5
 148.5 356 148.5 356 148.5 314 c 0,6,7
 148.5 169 148.5 169 246.6 82 c 0,8,9
 372.6 -29 372.6 -29 714.6 -29 c 0,10,11
 927 -29 927 -29 1070.55 65.5 c 128,-1,12
 1214.1 160 1214.1 160 1274.4 265 c 1,13,-1
 1095.3 265 l 1,14,15
 980.1 88 980.1 88 778.5 88 c 0,16,17
 605.7 88 605.7 88 551.7 172 c 0,18,19
 515.7 228 515.7 228 515.7 295 c 0,20,21
 515.7 539 515.7 539 646.2 662 c 0,22,23
 739.8 750 739.8 750 990.9 750 c 2,24,-1
 1050.3 750 l 1,25,-1
 1071 870 l 1,26,-1
 1024.2 870 l 2,27,28
 783.9 870 783.9 870 729 938 c 0,29,30
 690.3 986 690.3 986 690.3 1065 c 0,31,32
 690.3 1098 690.3 1098 697.5 1137 c 0,33,34
 720 1268 720 1268 794.7 1335.5 c 128,-1,35
 869.4 1403 869.4 1403 1021.5 1403 c 0,36,37
 1173.6 1403 1173.6 1403 1220.4 1343.5 c 128,-1,38
 1267.2 1284 1267.2 1284 1267.2 1186 c 0,39,40
 1267.2 1169 1267.2 1169 1266.3 1151 c 1,41,-1
 1375.2 1151 l 1,42,-1
 1427.4 1450 l 1,43,44
 1201.5 1520 1201.5 1520 978.3 1520 c 0,45,46
 666.9 1520 666.9 1520 520.2 1423.5 c 128,-1,47
 373.5 1327 373.5 1327 342 1147 c 0,48,49
 335.7 1109 335.7 1109 335.7 1075 c 0,0,1
EndSplineSet
EndChar
StartChar: uni0191
Encoding: 401 401 401
Width: 1308
Flags: W
Fore
-22.0566 -426 m 0,0,1
 -169.657 -426 -169.657 -426 -314.361 -358 c 1,2,-1
 -273.249 -123 l 1,3,-1
 -156.249 -123 l 1,4,5
 -181.267 -266 -181.267 -266 -96.5146 -296 c 0,6,7
 -74.6895 -305 -74.6895 -305 -44.9893 -305 c 0,8,9
 42.3105 -305 42.3105 -305 89.6318 -230 c 0,10,11
 138.752 -155 138.752 -155 173.54 49 c 1,12,-1
 404.989 1372 l 1,13,-1
 233.089 1372 l 1,14,-1
 254.257 1493 l 1,15,-1
 1452.16 1493 l 1,16,-1
 1390.58 1141 l 1,17,-1
 1267.28 1141 l 1,18,-1
 1304.89 1356 l 1,19,-1
 750.49 1356 l 1,20,-1
 666.693 877 l 1,21,-1
 1007.79 877 l 1,22,-1
 1041.03 1067 l 1,23,-1
 1164.33 1067 l 1,24,-1
 1074.06 551 l 1,25,-1
 950.76 551 l 1,26,-1
 983.997 741 l 1,27,-1
 642.9 741 l 1,28,-1
 520.441 41 l 2,29,30
 474.432 -222 474.432 -222 324.688 -332 c 0,31,32
 196.643 -426 196.643 -426 -22.0566 -426 c 0,0,1
EndSplineSet
EndChar
StartChar: florin
Encoding: 402 402 402
Width: 792
Flags: W
Fore
1015.5 1290 m 1,0,-1
 914.697 1290 l 1,1,2
 915.525 1305 915.525 1305 915.993 1318 c 0,3,4
 916.065 1375 916.065 1375 894.49 1406 c 0,5,6
 866.938 1444 866.938 1444 804.839 1444 c 0,7,8
 732.839 1444 732.839 1444 690.291 1386 c 0,9,10
 647.919 1329 647.919 1329 625.353 1200 c 2,11,-1
 601.385 1063 l 1,12,-1
 841.685 1063 l 1,13,-1
 820.518 942 l 1,14,-1
 580.218 942 l 1,15,-1
 410.348 -29 l 2,16,17
 379.383 -206 379.383 -206 261.588 -298 c 0,18,19
 143.969 -389 143.969 -389 -53.1318 -389 c 0,20,21
 -129.632 -389 -129.632 -389 -200.956 -380 c 0,22,23
 -272.107 -370 -272.107 -370 -338.983 -351 c 1,24,-1
 -299.097 -123 l 1,25,-1
 -198.297 -123 l 1,26,27
 -199.12 -138 -199.12 -138 -199.595 -151 c 0,28,29
 -199.667 -208 -199.667 -208 -178.09 -239 c 0,30,31
 -150.538 -277 -150.538 -277 -88.4385 -277 c 0,32,33
 -16.4385 -277 -16.4385 -277 25.9336 -220 c 0,34,35
 68.4805 -162 68.4805 -162 91.0479 -33 c 2,36,-1
 261.617 942 l 1,37,-1
 119.417 942 l 1,38,-1
 140.585 1063 l 1,39,-1
 282.784 1063 l 1,40,-1
 306.052 1196 l 2,41,42
 337.017 1373 337.017 1373 454.637 1464 c 0,43,44
 572.432 1556 572.432 1556 769.531 1556 c 0,45,46
 846.031 1556 846.031 1556 917.181 1546 c 0,47,48
 988.506 1537 988.506 1537 1055.38 1518 c 1,49,-1
 1015.5 1290 l 1,0,-1
EndSplineSet
EndChar
StartChar: uni0193
Encoding: 403 403 403
Width: 1574
Flags: W
AnchorPoint: "above" 926.388 1465 basechar 0
Fore
1318.04 1435 m 1,0,1
 1366.76 1590 1366.76 1590 1446.9 1652 c 0,2,3
 1535.47 1721 1535.47 1721 1627.27 1721 c 0,4,5
 1681.27 1721 1681.27 1721 1740.73 1711 c 128,-1,6
 1800.18 1701 1800.18 1701 1862.55 1682 c 1,7,-1
 1823.19 1457 l 1,8,-1
 1721.49 1457 l 1,9,10
 1735.49 1537 1735.49 1537 1712.81 1572 c 0,11,12
 1693.01 1608 1693.01 1608 1633.61 1608 c 0,13,14
 1567.91 1608 1567.91 1608 1533.58 1561 c 128,-1,15
 1499.26 1514 1499.26 1514 1477.75 1391 c 2,16,-1
 1413.54 1024 l 1,17,-1
 1299.24 1024 l 1,18,19
 1293.38 1222 1293.38 1222 1214.27 1310 c 0,20,21
 1135.34 1399 1135.34 1399 963.441 1399 c 0,22,23
 754.643 1399 754.643 1399 629.077 1242 c 0,24,25
 504.236 1084 504.236 1084 444.931 745 c 0,26,27
 386.15 409 386.15 409 451.934 250 c 0,28,29
 517.895 92 517.895 92 715.895 92 c 0,30,31
 791.494 92 791.494 92 859.618 111 c 128,-1,32
 927.738 130 927.738 130 987.489 168 c 1,33,-1
 1059.22 578 l 1,34,-1
 897.216 578 l 1,35,-1
 918.207 698 l 1,36,-1
 1402.41 698 l 1,37,-1
 1302.17 125 l 1,38,39
 1137.32 47 1137.32 47 980.37 9 c 0,40,41
 822.525 -29 822.525 -29 665.025 -29 c 0,42,43
 319.425 -29 319.425 -29 158.539 178 c 0,44,45
 -3.24805 385 -3.24805 385 59.7305 745 c 0,46,47
 122.885 1106 122.885 1106 357.098 1313 c 0,48,49
 590.412 1520 590.412 1520 936.009 1520 c 0,50,51
 1148.41 1520 1148.41 1520 1213.91 1488 c 0,52,-1
 1318.04 1435 l 1,0,1
EndSplineSet
EndChar
StartChar: uni0194
Encoding: 404 404 404
Width: 1420
Flags: W
AnchorPoint: "above" 885.15 1465 basechar 0
Fore
616.93 710 m 0,0,-1
 302.92 1386 l 1,1,-1
 137.32 1386 l 1,2,-1
 156.039 1493 l 1,3,-1
 768.76 1493 l 1,4,-1
 750.04 1386 l 1,5,-1
 699.82 1386 l 1,6,-1
 866.914 966 l 1,7,-1
 1220.07 1386 l 1,8,-1
 1040.88 1386 l 1,9,-1
 1059.6 1493 l 1,10,-1
 1565.71 1493 l 1,11,-1
 1546.99 1386 l 1,12,-1
 1373.11 1386 l 1,13,-1
 916.794 855 l 0,14,15
 1291.46 90 1291.46 90 1098.1 -44 c 0,16,17
 891.326 -188 891.326 -188 547.131 -188 c 16,18,19
 180.741 -188 180.741 -188 151.559 12 c 0,20,21
 124.97 193 124.97 193 616.93 710 c 0,0,-1
673.311 595 m 1,22,23
 320.719 212.406 320.719 212.406 299.716 80 c 24,24,25
 275.969 -69.7031 275.969 -69.7031 568.299 -67 c 16,26,27
 828.315 -64.5957 828.315 -64.5957 840.59 85 c 16,28,29
 850.207 202.221 850.207 202.221 673.311 595 c 1,22,23
EndSplineSet
EndChar
StartChar: uni0195
Encoding: 405 405 405
Width: 1922
Flags: W
Fore
1085.4 346 m 18,0,1
 1045.8 120 1045.8 120 1183.5 121 c 24,2,3
 1274.4 121 1274.4 121 1350 233 c 128,-1,5
 1425.6 345 1425.6 345 1458 530 c 0,6,7
 1485.9 691 1485.9 691 1465.2 787 c 0,8,9
 1439.1 908 1439.1 908 1416.6 935 c 1,10,-1
 1423.8 979 l 1,11,-1
 1539.9 979 l 1,12,13
 1687.5 915 1687.5 915 1757.7 786 c 0,14,15
 1828.8 656 1828.8 656 1803.6 514 c 0,16,17
 1784.7 406 1784.7 406 1722.6 307 c 0,18,19
 1661.4 208 1661.4 208 1565.1 135 c 0,20,21
 1478.7 68 1478.7 68 1375.2 33 c 0,22,23
 1270.8 -3 1270.8 -3 1161 -3 c 8,24,25
 705.6 -3 705.6 -3 767.7 348 c 10,26,-1
 826.2 686 l 18,27,28
 850.5 823 850.5 823 828.9 874 c 0,29,30
 806.4 926 806.4 926 729.9 926 c 0,31,32
 633.6 926 633.6 926 575.1 848 c 0,33,34
 516.6 769 516.6 769 486 598 c 2,35,-1
 381.6 0 l 1,38,-1
 63 0 l 1,39,-1
 314.1 1436 l 1,42,-1
 171.9 1436 l 1,43,-1
 193.5 1556 l 1,44,-1
 654.3 1556 l 1,45,-1
 541.8 913 l 1,46,47
 615.6 1008 615.6 1008 696.6 1050 c 128,-1,48
 777.6 1092 777.6 1092 890.1 1092 c 0,49,50
 1049.4 1092 1049.4 1092 1115.1 986 c 0,51,52
 1179 881 1179 881 1143 676 c 10,53,-1
 1085.4 346 l 18,0,1
EndSplineSet
EndChar
StartChar: uni0196
Encoding: 406 406 406
Width: 862
Flags: W
AnchorPoint: "above" 556.796 1465 basechar 0
Fore
186.661 337 m 2,0,-1
 367.727 1372 l 1,1,-1
 195.826 1372 l 1,2,-1
 216.993 1493 l 1,3,-1
 908.19 1493 l 1,4,-1
 887.026 1372 l 1,5,-1
 714.227 1372 l 1,6,-1
 535.61 351 l 2,7,8
 512.693 220 512.693 220 537.296 160 c 0,9,10
 562.625 99 562.625 99 648.125 99 c 1,11,-1
 630.807 0 l 1,12,-1
 450.807 0 l 2,13,14
 269.906 0 269.906 0 240.805 24 c 0,15,16
 145.55 102 145.55 102 186.661 337 c 2,0,-1
EndSplineSet
EndChar
StartChar: uni0197
Encoding: 407 407 407
Width: 862
Flags: W
AnchorPoint: "above" 556.796 1465 basechar 0
Fore
623.081 851 m 1,0,-1
 846.281 851 l 1,1,-1
 812.692 659 l 1,2,-1
 589.493 659 l 1,3,-1
 495.373 121 l 1,4,-1
 668.174 121 l 1,5,-1
 647.007 0 l 1,6,-1
 -44.1943 0 l 1,7,-1
 -23.0264 121 l 1,8,-1
 148.873 121 l 1,9,-1
 242.993 659 l 1,10,-1
 18.8926 659 l 1,11,-1
 52.4814 851 l 1,12,-1
 276.581 851 l 1,13,-1
 367.727 1372 l 1,14,-1
 195.826 1372 l 1,15,-1
 216.993 1493 l 1,16,-1
 908.19 1493 l 1,17,-1
 887.026 1372 l 1,18,-1
 714.227 1372 l 1,19,-1
 623.081 851 l 1,0,-1
EndSplineSet
EndChar
StartChar: uni0198
Encoding: 408 408 408
Width: 1602
Flags: W
Fore
1414.63 1332 m 2,0,-1
 899.078 911 l 1,1,-1
 1416.98 121 l 1,2,-1
 1549.28 121 l 1,3,-1
 1528.11 0 l 1,4,-1
 1072.71 0 l 1,5,-1
 601.039 725 l 1,6,-1
 495.373 121 l 1,7,-1
 668.174 121 l 1,8,-1
 647.007 0 l 1,9,-1
 -44.1943 0 l 1,10,-1
 -23.0264 121 l 1,11,-1
 148.873 121 l 1,12,-1
 367.727 1372 l 1,13,-1
 195.826 1372 l 1,14,-1
 216.993 1493 l 1,15,-1
 908.19 1493 l 1,16,-1
 887.026 1372 l 1,17,-1
 714.227 1372 l 1,18,-1
 618.882 827 l 1,19,-1
 1283.92 1372 l 2,20,21
 1428.95 1491 1428.95 1491 1556.19 1493 c 0,22,23
 1602.99 1493 1602.99 1493 1669.82 1484 c 0,24,25
 1729.27 1474 1729.27 1474 1791.65 1455 c 1,26,-1
 1752.28 1230 l 1,27,-1
 1650.58 1230 l 1,28,29
 1664.58 1310 1664.58 1310 1642.08 1346 c 0,30,31
 1620.83 1384 1620.83 1384 1562.7 1381 c 0,32,33
 1468.4 1377 1468.4 1377 1414.63 1332 c 2,0,-1
EndSplineSet
EndChar
StartChar: uni0199
Encoding: 409 409 409
Width: 1277
Flags: W
Fore
453.6 412 m 1,33,-1
 381.6 0 l 1,36,-1
 63 0 l 1,37,-1
 277.2 1226 l 2,0,1
 306 1389 306 1389 423.9 1472 c 0,2,3
 542.7 1556 542.7 1556 745.2 1556 c 0,4,5
 799.2 1556 799.2 1556 858.6 1546 c 128,-1,6
 918 1536 918 1536 981 1517 c 1,7,-1
 941.4 1292 l 1,8,-1
 839.7 1292 l 1,9,10
 853.2 1372 853.2 1372 831.6 1408 c 0,11,12
 810.9 1443 810.9 1443 751.5 1443 c 0,13,14
 685.8 1443 685.8 1443 651.6 1396 c 0,15,16
 617.4 1347 617.4 1347 595.8 1226 c 2,17,-1
 478.8 557 l 1,6,-1
 932.4 942 l 1,7,-1
 818.1 942 l 1,8,-1
 838.8 1063 l 1,9,-1
 1098 1063 l 1,10,-1
 1077.3 942 l 1,11,-1
 787.5 696 l 1,12,-1
 1089.9 121 l 1,13,-1
 1193.4 121 l 1,14,-1
 1172.7 0 l 1,15,-1
 820.8 0 l 1,16,-1
 558 500 l 1,17,-1
 453.6 412 l 1,33,-1
EndSplineSet
EndChar
StartChar: uni019A
Encoding: 410 410 410
Width: 700
Flags: W
Fore
402.3 121 m 1,0,-1
 539.1 121 l 1,1,-1
 518.4 0 l 1,2,-1
 63 0 l 1,3,-1
 146.7 479 l 1,6,-1
 10.7998 479 l 1,7,-1
 31.5 600 l 1,8,-1
 167.4 600 l 1,9,-1
 314.1 1436 l 1,10,-1
 178.2 1436 l 1,11,-1
 198.9 1556 l 1,12,-1
 653.4 1556 l 1,13,-1
 486 600 l 1,14,-1
 622.8 600 l 1,15,-1
 602.1 479 l 1,16,-1
 465.3 479 l 1,17,-1
 402.3 121 l 1,0,-1
EndSplineSet
EndChar
StartChar: uni019B
Encoding: 411 411 411
Width: 1292
Flags: W
Fore
994.014 121 m 1,0,-1
 1104.71 121 l 1,1,-1
 1083.55 0 l 1,2,-1
 724.448 0 l 1,3,-1
 745.617 121 l 1,4,-1
 870.718 121 l 1,5,-1
 764.109 700 l 1,6,-1
 387.418 121 l 1,7,-1
 503.518 121 l 1,8,-1
 482.349 0 l 1,9,-1
 -66.6514 0 l 1,10,-1
 -45.4824 121 l 1,11,-1
 59.8174 121 l 1,12,-1
 685.36 1109 l 1,13,-1
 685.535 1110 l 1,14,-1
 262.726 859 l 1,15,-1
 225.293 964 l 1,16,-1
 655.279 1220 l 1,17,18
 614.147 1345 614.147 1345 560.17 1376 c 0,19,20
 524.419 1398 524.419 1398 445.568 1400 c 0,21,22
 387.068 1400 387.068 1400 349.096 1363 c 0,23,24
 312.022 1326 312.022 1326 295.853 1249 c 1,25,-1
 194.152 1249 l 1,26,-1
 232.814 1470 l 1,27,28
 303.263 1492 303.263 1492 356.312 1502 c 0,29,30
 420.512 1514 420.512 1514 456.337 1513 c 0,31,32
 659.737 1513 659.737 1513 742.676 1272 c 1,33,-1
 955.521 1398 l 1,34,-1
 994.752 1293 l 1,35,-1
 773.832 1162 l 1,36,-1
 774.383 1160 l 1,37,-1
 994.014 121 l 1,0,-1
EndSplineSet
EndChar
StartChar: uni019C
Encoding: 412 412 412
Width: 1950
Flags: W
Fore
754.683 174 m 1,0,1
 669.539 68 669.539 68 583.653 19.5 c 128,-1,2
 497.769 -29 497.769 -29 394.269 -29 c 0,3,4
 229.568 -29 229.568 -29 166.226 74.5 c 128,-1,5
 102.882 178 102.882 178 139.444 387 c 2,6,-1
 311.763 1372 l 1,7,-1
 174.963 1372 l 1,8,-1
 196.132 1493 l 1,9,-1
 765.832 1493 l 1,10,-1
 744.663 1372 l 1,11,-1
 630.362 1372 l 1,12,-1
 467.317 440 l 2,13,14
 432.504 241 432.504 241 450.855 189 c 128,-1,15
 469.21 137 469.21 137 543.909 137 c 0,16,17
 628.51 137 628.51 137 687.993 209.5 c 128,-1,18
 747.476 282 747.476 282 770.918 416 c 2,19,-1
 938.16 1372 l 1,20,-1
 823.862 1372 l 1,21,-1
 845.031 1493 l 1,22,-1
 1392.23 1493 l 1,23,-1
 1371.06 1372 l 1,24,-1
 1256.76 1372 l 1,25,-1
 1093.72 440 l 2,26,27
 1058.9 241 1058.9 241 1077.71 189 c 128,-1,28
 1096.51 137 1096.51 137 1170.31 137 c 0,29,30
 1255.81 137 1255.81 137 1315.3 209.5 c 128,-1,31
 1374.78 282 1374.78 282 1398.22 416 c 2,32,-1
 1565.46 1372 l 1,33,-1
 1451.16 1372 l 1,34,-1
 1472.33 1493 l 1,35,-1
 2041.13 1493 l 1,36,-1
 2019.96 1372 l 1,37,-1
 1884.06 1372 l 1,38,-1
 1665.21 121 l 1,39,-1
 1801.11 121 l 1,40,-1
 1779.94 0 l 1,41,-1
 1325.44 0 l 1,42,-1
 1351.68 150 l 1,43,44
 1279.61 57 1279.61 57 1200.09 14 c 128,-1,45
 1120.57 -29 1120.57 -29 1021.57 -29 c 0,46,47
 904.572 -29 904.572 -29 840.328 20.5 c 128,-1,48
 776.088 70 776.088 70 754.683 174 c 1,0,1
EndSplineSet
EndChar
StartChar: uni019D
Encoding: 413 413 413
Width: 1684
Flags: W
Fore
-319.761 -358 m 1,0,-1
 -278.649 -123 l 1,1,-1
 -161.649 -123 l 1,2,3
 -186.666 -266 -186.666 -266 -101.914 -296 c 0,4,5
 -80.0898 -305 -80.0898 -305 -50.3896 -305 c 0,6,7
 36.9102 -305 36.9102 -305 84.2314 -230 c 0,8,9
 132.277 -156 132.277 -156 168.14 49 c 2,10,-1
 399.589 1372 l 1,11,-1
 227.689 1372 l 1,12,-1
 248.857 1493 l 1,13,-1
 669.157 1493 l 1,14,-1
 1295.14 436 l 1,15,-1
 1458.89 1372 l 1,16,-1
 1287.89 1372 l 1,17,-1
 1309.06 1493 l 1,18,-1
 1778.86 1493 l 1,19,-1
 1757.69 1372 l 1,20,-1
 1585.79 1372 l 1,21,-1
 1345.77 0 l 1,22,-1
 1109.97 0 l 1,23,-1
 475.23 1079 l 1,24,-1
 293.642 41 l 2,25,26
 243.782 -244 243.782 -244 126.588 -348 c 0,27,28
 40.043 -426 40.043 -426 -86.8574 -426 c 0,29,30
 -102.157 -426 -102.157 -426 -174.782 -409 c 0,31,32
 -247.409 -392 -247.409 -392 -319.761 -358 c 1,0,-1
EndSplineSet
EndChar
StartChar: uni019E
Encoding: 414 414 414
Width: 1340
Flags: W
AnchorPoint: "above" 730.382 1092 basechar 0
Fore
140.4 0 m 1,0,-1
 305.1 942 l 1,1,-1
 169.2 942 l 1,2,-1
 190.8 1063 l 1,3,-1
 645.3 1063 l 1,4,-1
 619.2 913 l 1,5,6
 693 1008 693 1008 774.45 1050 c 128,-1,7
 855.9 1092 855.9 1092 968.4 1092 c 0,8,9
 1129.5 1092 1129.5 1092 1192.5 986 c 0,10,11
 1256.4 880 1256.4 880 1221.3 676 c 2,12,-1
 1049.4 -305 l 1,13,-1
 1185.3 -305 l 1,14,-1
 1163.7 -426 l 1,15,-1
 709.2 -426 l 1,16,-1
 904.5 686 l 2,17,18
 927.9 823 927.9 823 906.3 874 c 0,19,20
 883.8 926 883.8 926 807.3 926 c 0,21,22
 711 926 711 926 652.5 848 c 0,23,24
 594 769 594 769 564.3 598 c 2,25,-1
 459 0 l 1,26,-1
 140.4 0 l 1,0,-1
EndSplineSet
EndChar
StartChar: uni019F
Encoding: 415 415 415
Width: 1605
Flags: W
AnchorPoint: "above" 929.574 1465 basechar 0
Fore
666.407 -29 m 0,0,1
 327.106 -29 327.106 -29 170.546 177 c 0,2,3
 13.9834 383 13.9834 383 77.3125 745 c 0,4,5
 140.643 1107 140.643 1107 369.817 1313.5 c 0,6,7
 598.993 1520 598.993 1520 937.395 1520 c 0,8,9
 1276.7 1520 1276.7 1520 1433.25 1314 c 0,10,11
 1589.81 1108 1589.81 1108 1526.31 745 c 0,12,13
 1462.99 383 1462.99 383 1233.9 177 c 0,14,15
 1004.8 -29 1004.8 -29 666.407 -29 c 0,0,1
687.576 92 m 0,16,17
 859.476 92 859.476 92 971.343 253 c 0,18,19
 1069.96 394.938 1069.96 394.938 1126.65 669 c 1,20,-1
 450.418 669 l 1,21,22
 411.788 397.589 411.788 397.589 460.854 254.5 c 0,23,24
 516.576 92 516.576 92 687.576 92 c 0,16,17
478.887 830 m 1,25,-1
 1154.51 830 l 1,26,27
 1191.83 1098.34 1191.83 1098.34 1143.66 1238 c 0,28,29
 1088.13 1399 1088.13 1399 916.227 1399 c 0,30,31
 745.225 1399 745.225 1399 632.646 1236.5 c 0,32,33
 535.121 1095.73 535.121 1095.73 478.887 830 c 1,25,-1
EndSplineSet
EndChar
StartChar: uni01A2
Encoding: 418 418 418
Width: 2212
Flags: W
Fore
693.673 -29 m 0,0,1
 354.373 -29 354.373 -29 197.811 177 c 0,2,3
 41.249 383 41.249 383 104.578 745 c 0,4,5
 167.906 1107 167.906 1107 397.083 1313.5 c 0,6,7
 626.259 1520 626.259 1520 964.656 1520 c 0,8,9
 1193.48 1520 1193.48 1520 1339.19 1426.31 c 1,10,11
 1421.7 1459.33 1421.7 1459.33 1498.76 1476 c 0,12,13
 1577.33 1493 1577.33 1493 1652.03 1493 c 0,14,15
 1892.33 1493 1892.33 1493 1982.99 1381 c 0,16,17
 2073.64 1269 2073.64 1269 2031.14 1026 c 2,18,-1
 1811.41 -230 l 1,19,-1
 1983.31 -230 l 1,20,-1
 1962.14 -351 l 1,21,-1
 1270.04 -351 l 1,22,-1
 1291.21 -230 l 1,23,-1
 1463.11 -230 l 1,24,-1
 1681.43 1018 l 2,25,26
 1717.3 1223 1717.3 1223 1695.68 1297.5 c 0,27,28
 1674.06 1372 1674.06 1372 1586.76 1372 c 0,29,30
 1518.36 1372 1518.36 1372 1476.02 1328 c 0,31,32
 1468.85 1320.55 1468.85 1320.55 1462.28 1311.68 c 1,33,34
 1616.72 1105.96 1616.72 1105.96 1553.58 745 c 0,35,36
 1490.25 383 1490.25 383 1261.16 177 c 0,37,38
 1032.08 -29 1032.08 -29 693.673 -29 c 0,0,1
714.841 92 m 0,39,40
 886.741 92 886.741 92 998.604 253 c 0,41,42
 1110.47 414 1110.47 414 1168.38 745 c 0,43,44
 1226.46 1077 1226.46 1077 1170.93 1238 c 0,45,46
 1115.39 1399 1115.39 1399 943.488 1399 c 0,47,48
 772.49 1399 772.49 1399 659.912 1236.5 c 0,49,50
 547.334 1074 547.334 1074 489.778 745 c 0,51,52
 432.396 417 432.396 417 488.118 254.5 c 0,53,54
 543.841 92 543.841 92 714.841 92 c 0,39,40
EndSplineSet
EndChar
StartChar: uni01A3
Encoding: 419 419 419
Width: 1738
Flags: W
Fore
1025.95 1026.6 m 1,23,24
 1161.91 1063 1161.91 1063 1265.31 1063 c 0,27,28
 1467.81 1063 1467.81 1063 1557.15 979.5 c 128,-1,30
 1646.46 895.818 1646.46 895.818 1617.97 733 c 2,31,-1
 1436.39 -305 l 1,32,-1
 1583.99 -305 l 1,33,-1
 1562.82 -426 l 1,34,-1
 1095.72 -426 l 1,35,-1
 1299.38 733 l 2,1,2
 1320.97 855.791 1320.97 855.791 1303.05 902.896 c 128,-1,4
 1285.14 950 1285.14 950 1226.16 950 c 128,-1,6
 1167.18 950 1167.18 950 1135.54 922.526 c 1,7,8
 1234.16 776.907 1234.16 776.907 1189.82 523.453 c 128,-1,10
 1145.47 270 1145.47 270 975.771 120.5 c 128,-1,12
 806.071 -29 806.071 -29 553.172 -29 c 128,-1,14
 300.271 -29 300.271 -29 182.875 120.5 c 128,-1,16
 65.4785 270 65.4785 270 111.401 532.5 c 128,-1,18
 157.323 795 157.323 795 326.853 943.5 c 128,-1,20
 496.382 1092 496.382 1092 749.28 1092 c 0,21,22
 917.712 1092 917.712 1092 1025.95 1026.6 c 1,23,24
446.809 181 m 128,-1,52
 471.24 84 471.24 84 572.49 84 c 128,-1,38
 673.74 84 673.74 84 731.484 180 c 128,-1,40
 789.228 276 789.228 276 834.014 532 c 128,-1,42
 878.799 788 878.799 788 855.006 883.5 c 128,-1,44
 831.212 979 831.212 979 729.512 979 c 128,-1,46
 627.812 979 627.812 979 569.531 882.5 c 128,-1,48
 511.249 786 511.249 786 466.813 532 c 128,-1,50
 422.378 278 422.378 278 446.809 181 c 128,-1,52
EndSplineSet
EndChar
StartChar: uni01A4
Encoding: 420 420 420
Width: 1386
Flags: W
Fore
388.894 1493 m 2,0,-1
 981.99 1493 l 2,1,2
 1206.09 1493 1206.09 1493 1317.57 1374 c 0,3,4
 1429.24 1256 1429.24 1256 1394.42 1057 c 0,5,6
 1359.43 857 1359.43 857 1206.32 738 c 0,7,8
 1052.12 618 1052.12 618 828.92 618 c 2,9,-1
 582.319 618 l 1,10,-1
 495.373 121 l 1,11,-1
 712.273 121 l 1,12,-1
 691.106 0 l 1,13,-1
 -44.1943 0 l 1,14,-1
 -23.0264 121 l 1,15,-1
 148.873 121 l 1,16,-1
 367.727 1372 l 1,17,18
 191.326 1372 191.326 1372 113.656 1283 c 0,19,20
 34.7373 1192 34.7373 1192 2.19727 1006 c 1,21,-1
 -176.003 1006 l 1,22,-1
 -113.373 1364 l 1,23,24
 -26.6016 1433 -26.6016 1433 194.221 1476 c 0,25,26
 282.693 1493 282.693 1493 388.894 1493 c 2,0,-1
603.487 739 m 1,27,-1
 704.288 739 l 2,28,29
 821.288 739 821.288 739 906.705 826 c 0,30,31
 991.053 912 991.053 912 1016.42 1057 c 0,32,33
 1041.62 1201 1041.62 1201 987.183 1286 c 0,34,35
 932.922 1372 932.922 1372 815.026 1372 c 2,36,-1
 714.227 1372 l 1,37,-1
 603.487 739 l 1,27,-1
EndSplineSet
EndChar
StartChar: uni01A5
Encoding: 421 421 421
Width: 1288
Flags: W
Fore
510.3 584 m 2,0,-1
 491.4 479 l 2,1,2
 459 293 459 293 486.9 210 c 0,3,4
 515.7 127 515.7 127 611.1 127 c 0,5,6
 709.2 127 709.2 127 765 215 c 0,7,8
 819.9 303 819.9 303 859.95 532 c 128,-1,10
 900 761 900 761 875.7 848 c 0,11,12
 850.5 936 850.5 936 752.4 936 c 0,13,14
 657 936 657 936 599.4 853 c 0,15,16
 542.7 770 542.7 770 510.3 584 c 2,0,-1
285.3 1123 m 2,18,19
 314.1 1288 314.1 1288 432 1370 c 0,20,21
 551.7 1453 551.7 1453 754.2 1453 c 0,22,23
 808.2 1453 808.2 1453 867.6 1443 c 128,-1,25
 927 1433 927 1433 989.1 1414 c 1,26,-1
 949.5 1189 l 1,27,-1
 847.8 1189 l 1,28,29
 861.3 1267 861.3 1267 840.6 1304 c 0,30,31
 819.9 1340 819.9 1340 760.5 1340 c 0,32,33
 694.8 1340 694.8 1340 660.15 1293 c 128,-1,35
 625.5 1246 625.5 1246 603.9 1123 c 2,36,-1
 570.6 928 l 1,37,38
 625.5 1011 625.5 1011 701.1 1052 c 0,39,40
 775.8 1092 775.8 1092 876.6 1092 c 0,41,42
 1080.9 1092 1080.9 1092 1172.7 942 c 0,43,44
 1263.6 793 1263.6 793 1218.15 532 c 128,-1,46
 1172.7 271 1172.7 271 1029.6 121 c 0,47,48
 885.6 -29 885.6 -29 681.3 -29 c 0,49,50
 580.5 -29 580.5 -29 519.3 12 c 0,51,52
 457.2 52 457.2 52 431.1 135 c 1,53,-1
 333 -426 l 1,56,-1
 14.4004 -426 l 1,57,-1
 285.3 1123 l 2,18,19
EndSplineSet
EndChar
StartChar: uni01A6
Encoding: 422 422 422
Width: 1531
Flags: W
Fore
393.181 1372 m 1,0,-1
 221.28 1372 l 1,1,-1
 242.449 1493 l 1,2,-1
 930.051 1493 l 1,3,-1
 908.883 1372 l 1,4,-1
 739.681 1372 l 1,5,-1
 709.939 1202 l 1,6,-1
 958.338 1202 l 2,7,8
 1192.34 1202 1192.34 1202 1301.41 1097.5 c 0,9,10
 1384.79 1017.6 1384.79 1017.6 1384.79 886.562 c 0,11,12
 1384.79 846.207 1384.79 846.207 1376.89 801 c 0,13,14
 1322.43 489.744 1322.43 489.744 949.788 438 c 1,15,16
 1027.61 425 1027.61 425 1074.09 379.369 c 128,-1,17
 1120.56 333.737 1120.56 333.737 1146.6 246 c 2,18,-1
 1270.02 -170 l 1,19,-1
 1407.72 -170 l 1,20,-1
 1386.55 -291 l 1,21,-1
 944.649 -291 l 1,22,-1
 809.351 160 l 2,23,24
 765.351 306.667 765.351 306.667 731.632 341.833 c 128,-1,25
 697.913 377 697.913 377 620.513 377 c 2,26,-1
 565.613 377 l 1,27,-1
 517.228 121 l 1,28,-1
 690.027 121 l 1,29,-1
 668.86 0 l 1,30,-1
 -22.3398 0 l 1,31,-1
 -1.17285 121 l 1,32,-1
 170.728 121 l 1,33,-1
 393.181 1372 l 1,0,-1
586.605 497 m 1,34,-1
 704.506 497 l 2,35,36
 830.506 497 830.506 497 911.754 573 c 128,-1,37
 992.997 649 992.997 649 1017.67 790 c 0,38,39
 1025.32 833.75 1025.32 833.75 1025.32 871.146 c 0,40,41
 1025.32 954.271 1025.32 954.271 987.498 1006 c 0,42,43
 932.67 1081 932.67 1081 806.673 1081 c 2,44,-1
 688.772 1081 l 1,45,-1
 586.605 497 l 1,34,-1
EndSplineSet
EndChar
StartChar: uni01A7
Encoding: 423 423 423
Width: 1331
Flags: W
AnchorPoint: "above" 781.971 1465 basechar 0
Fore
1081.87 72 m 1,0,1
 938.853 21 938.853 21 804.881 -4 c 128,-1,2
 670.907 -29 670.907 -29 539.507 -29 c 0,3,4
 266.807 -29 266.807 -29 146.876 88 c 0,5,6
 27.1182 206 27.1182 206 66.6553 432 c 0,7,8
 100.419 625 100.419 625 203.363 735 c 0,9,10
 307.207 845 307.207 845 503.503 897 c 2,11,-1
 714.726 952 l 1,12,13
 906.525 1004 906.525 1004 961.722 1052 c 0,14,15
 1017.09 1101 1017.09 1101 1033.36 1194 c 0,16,17
 1051.21 1296 1051.21 1296 992.799 1348 c 0,18,19
 933.327 1399 933.327 1399 800.124 1399 c 0,20,21
 637.225 1399 637.225 1399 536.604 1328 c 0,22,23
 435.808 1256 435.808 1256 382.768 1102 c 1,24,-1
 268.468 1102 l 1,25,-1
 326.198 1432 l 1,26,27
 470.695 1476 470.695 1476 601.444 1498 c 0,28,29
 733.093 1520 733.093 1520 850.993 1520 c 0,30,31
 1090.39 1520 1090.39 1520 1201 1396 c 0,32,33
 1312.69 1273 1312.69 1273 1273.84 1051 c 0,34,35
 1241.66 867 1241.66 867 1144.23 768 c 0,36,37
 1046.65 668 1046.65 668 839.745 612 c 1,38,-1
 628.523 557 l 2,39,40
 466.201 514 466.201 514 407.954 464 c 128,-1,41
 349.706 414 349.706 414 333.961 324 c 0,42,43
 314.019 210 314.019 210 376.596 151 c 128,-1,44
 439.176 92 439.176 92 578.676 92 c 0,45,46
 750.576 92 750.576 92 862.295 175 c 128,-1,47
 974.016 258 974.016 258 1029.51 426 c 1,48,-1
 1143.81 426 l 1,49,-1
 1081.87 72 l 1,0,1
EndSplineSet
EndChar
StartChar: uni01A8
Encoding: 424 424 424
Width: 1037
Flags: W
AnchorPoint: "above" 618.255 1092 basechar 0
Fore
867.342 31 m 1,0,1
 750.493 1 750.493 1 647.97 -14 c 128,-1,2
 545.445 -29 545.445 -29 456.345 -29 c 0,3,4
 212.445 -29 212.445 -29 111.215 56 c 0,5,6
 11.0605 142 11.0605 142 42.5498 322 c 0,7,8
 66.8662 461 66.8662 461 152.512 539 c 128,-1,9
 238.157 617 238.157 617 435.53 670 c 2,10,-1
 572.502 707 l 2,11,12
 650.876 728 650.876 728 685.1 759 c 128,-1,13
 719.322 790 719.322 790 728.77 844 c 0,14,15
 740.315 910 740.315 910 696.764 944 c 0,16,17
 652.486 979 652.486 979 555.286 979 c 0,18,19
 440.087 979 440.087 979 369.265 924 c 0,20,21
 297.544 869 297.544 869 270.374 760 c 1,22,-1
 168.675 760 l 1,23,-1
 215.559 1028 l 1,24,25
 337.433 1061 337.433 1061 435.456 1076 c 0,26,27
 534.555 1092 534.555 1092 619.155 1092 c 0,28,29
 844.155 1092 844.155 1092 937.458 1008 c 0,30,31
 1030.59 923 1030.59 923 1000.32 750 c 0,32,33
 977.58 620 977.58 620 897.687 544 c 0,34,35
 817.616 467 817.616 467 661.943 426 c 2,36,-1
 524.071 389 l 2,37,38
 425.022 363 425.022 363 385.599 328 c 0,39,40
 347.077 293 347.077 293 335.88 229 c 0,41,42
 323.635 159 323.635 159 369.361 122 c 0,43,44
 414.014 84 414.014 84 511.214 84 c 0,45,46
 627.313 84 627.313 84 705.659 146 c 0,47,48
 784.181 209 784.181 209 817.599 328 c 1,49,-1
 919.296 328 l 1,50,-1
 867.342 31 l 1,0,1
EndSplineSet
EndChar
StartChar: uni01AA
Encoding: 426 426 426
Width: 610
Flags: W
Fore
847.918 1522.99 m 1,0,1
 832.431 1434.46 832.431 1434.46 775.877 1352.99 c 0,2,3
 732.126 1289.96 732.126 1289.96 636.401 1234.58 c 1,4,5
 635.32 1230.8 635.32 1230.8 634.136 1226.99 c 2,6,-1
 221.086 -100.012 l 2,7,8
 185.073 -215.712 185.073 -215.712 220.859 -286.512 c 0,9,10
 249.922 -344.012 249.922 -344.012 315.201 -344.012 c 0,11,12
 377.301 -344.012 377.301 -344.012 417.698 -306.012 c 128,-1,13
 458.096 -268.012 458.096 -268.012 478.941 -190.012 c 1,14,-1
 579.741 -190.012 l 1,15,-1
 539.855 -418.012 l 1,16,17
 466.331 -437.012 466.331 -437.012 391.77 -446.512 c 128,-1,18
 317.207 -456.012 317.207 -456.012 240.707 -456.012 c 0,19,20
 54.3359 -456.012 54.3359 -456.012 -42.0859 -364.512 c 0,21,22
 -148.904 -263.143 -148.904 -263.143 -96.8135 -96.0117 c 2,23,-1
 286.262 1133.07 l 1,24,25
 253.064 1131.02 253.064 1131.02 218.28 1130.99 c 0,26,27
 161.932 1130.94 161.932 1130.94 121.073 1142.37 c 0,28,29
 -8.81445 1178.69 -8.81445 1178.69 17.8291 1330.99 c 0,30,31
 56.7119 1553.25 56.7119 1553.25 370.392 1555.99 c 0,32,33
 486.846 1557.01 486.846 1557.01 573.308 1473.49 c 0,34,35
 631.022 1417.74 631.022 1417.74 643.859 1349.43 c 1,36,37
 670.517 1372.06 670.517 1372.06 691.4 1399.99 c 0,38,39
 724.298 1443.99 724.298 1443.99 748.918 1522.99 c 1,40,-1
 847.918 1522.99 l 1,0,1
314.19 1222.67 m 1,41,-1
 315.535 1226.99 l 2,42,43
 354.203 1351.05 354.203 1351.05 319.175 1396.99 c 0,44,45
 297.969 1424.8 297.969 1424.8 272.224 1426.99 c 0,46,47
 154.69 1434.23 154.69 1434.23 139.253 1345.99 c 0,48,49
 117.114 1219.44 117.114 1219.44 282.625 1220.99 c 0,50,51
 297.885 1221.13 297.885 1221.13 314.19 1222.67 c 1,41,-1
EndSplineSet
EndChar
StartChar: uni01AB
Encoding: 427 427 427
Width: 851
Flags: W
Fore
347.495 942 m 1,0,-1
 208.896 942 l 1,1,-1
 230.063 1063 l 1,2,-1
 368.663 1063 l 1,3,-1
 426.394 1393 l 1,4,-1
 744.994 1393 l 1,5,-1
 687.264 1063 l 1,6,-1
 952.767 1063 l 1,7,-1
 931.599 942 l 1,8,-1
 666.096 942 l 1,9,-1
 552.208 291 l 2,10,11
 527.892 152 527.892 152 541.743 118 c 0,12,13
 555.595 84 555.595 84 607.795 84 c 2,14,-1
 857.095 84 l 1,15,-1
 820.532 -125 l 2,16,17
 792.017 -288.003 792.017 -288.003 673.459 -371.5 c 0,18,19
 554.897 -455 554.897 -455 352.401 -455 c 0,20,21
 298.401 -455 298.401 -455 238.951 -445 c 0,22,23
 179.5 -435 179.5 -435 117.124 -416 c 1,24,-1
 156.485 -191 l 1,25,-1
 258.186 -191 l 1,26,27
 245.99 -271 245.99 -271 266.331 -306.5 c 0,28,29
 286.669 -342 286.669 -342 346.069 -342 c 0,30,31
 410.434 -342 410.434 -342 446.092 -295 c 0,32,33
 480.014 -250.289 480.014 -250.289 501.932 -125 c 2,34,-1
 518.728 -28.9932 l 1,35,36
 516.932 -29 516.932 -29 515.127 -29 c 0,37,38
 318.026 -29 318.026 -29 259.811 39.5 c 0,39,40
 201.594 108 201.594 108 233.607 291 c 2,41,-1
 347.495 942 l 1,0,-1
EndSplineSet
EndChar
StartChar: uni01AC
Encoding: 428 428 428
Width: 1371
Flags: W
AnchorPoint: "above" 817.796 1465 basechar 0
Fore
618.728 1356 m 0,0,1
 431.527 1356 431.527 1356 367.456 1283 c 0,2,3
 288.537 1192 288.537 1192 255.997 1006 c 1,4,-1
 77.7969 1006 l 1,5,-1
 140.427 1364 l 1,6,7
 227.198 1433 227.198 1433 448.021 1476 c 0,8,9
 536.493 1493 536.493 1493 642.693 1493 c 1,10,-1
 1483.29 1493 l 1,11,-1
 1418.04 1120 l 1,12,-1
 1296.54 1120 l 1,13,-1
 1337.82 1356 l 1,14,-1
 967.022 1356 l 1,15,-1
 750.974 121 l 1,16,-1
 930.078 121 l 1,17,-1
 908.91 0 l 1,18,-1
 203.307 0 l 1,19,-1
 224.474 121 l 1,20,-1
 402.674 121 l 1,21,-1
 618.728 1356 l 0,0,1
EndSplineSet
EndChar
StartChar: uni01AD
Encoding: 429 429 429
Width: 851
Flags: W
Fore
213.928 942 m 1,0,-1
 75.3271 942 l 1,1,-1
 96.4951 1063 l 1,2,-1
 235.096 1063 l 1,3,-1
 263.611 1226 l 2,4,5
 292.127 1389 292.127 1389 410.147 1472 c 0,6,7
 529.242 1556 529.242 1556 731.742 1556 c 0,8,9
 785.742 1556 785.742 1556 845.192 1546 c 0,10,11
 904.644 1536 904.644 1536 967.022 1517 c 1,12,-1
 927.657 1292 l 1,13,-1
 825.957 1292 l 1,14,15
 838.152 1372 838.152 1372 818.351 1408 c 0,16,17
 797.473 1443 797.473 1443 738.073 1443 c 0,18,19
 675.073 1443 675.073 1443 638.051 1396 c 0,20,21
 604.603 1354 604.603 1354 582.211 1226 c 2,22,-1
 553.695 1063 l 1,23,-1
 819.195 1063 l 1,24,-1
 798.027 942 l 1,25,-1
 532.527 942 l 1,26,-1
 418.64 291 l 2,27,28
 394.323 152 394.323 152 408.174 118 c 0,29,30
 422.027 84 422.027 84 474.228 84 c 0,31,32
 531.827 84 531.827 84 567.249 127 c 0,33,34
 602.673 170 602.673 170 620.217 260 c 1,35,-1
 754.317 260 l 1,36,37
 726.325 100 726.325 100 635.929 36 c 0,38,39
 554.357 -29 554.357 -29 381.558 -29 c 0,40,41
 184.458 -29 184.458 -29 126.329 40 c 0,42,43
 68.0254 108 68.0254 108 100.039 291 c 2,44,-1
 213.928 942 l 1,0,-1
EndSplineSet
EndChar
StartChar: uni01AE
Encoding: 430 430 430
Width: 1371
Flags: W
AnchorPoint: "above" 855.059 1465 basechar 0
Fore
425.941 41 m 2,0,-1
 655.99 1356 l 1,1,-1
 287.891 1356 l 1,2,-1
 246.604 1120 l 1,3,-1
 123.304 1120 l 1,4,-1
 188.558 1493 l 1,5,-1
 1520.56 1493 l 1,6,-1
 1455.3 1120 l 1,7,-1
 1333.8 1120 l 1,8,-1
 1375.09 1356 l 1,9,-1
 1004.29 1356 l 1,10,-1
 775.64 49 l 2,11,12
 739.777 -156 739.777 -156 761.032 -230 c 0,13,14
 783.011 -305 783.011 -305 870.311 -305 c 0,15,16
 938.709 -305 938.709 -305 980.604 -261 c 0,17,18
 1023.41 -217 1023.41 -217 1045.25 -123 c 1,19,-1
 1162.25 -123 l 1,20,-1
 1121.14 -358 l 1,21,22
 1036.89 -392 1036.89 -392 958.32 -409 c 128,-1,23
 879.743 -426 879.743 -426 805.043 -426 c 0,24,25
 564.743 -426 564.743 -426 474.537 -314 c 0,26,27
 383.43 -202 383.43 -202 425.941 41 c 2,0,-1
EndSplineSet
EndChar
StartChar: uni01B1
Encoding: 433 433 433
Width: 1640
Flags: W
Fore
617.366 1336 m 1,0,-1
 316.767 1336 l 1,1,-1
 294.898 1211 l 1,2,-1
 171.599 1211 l 1,3,-1
 225.656 1520 l 1,4,-1
 885.356 1520 l 1,5,-1
 851.593 1327 l 1,6,7
 705.594 1295 705.594 1295 607.002 1143 c 128,-1,8
 508.412 991 508.412 991 461.876 725 c 0,9,10
 410.269 430 410.269 430 473.328 276 c 0,11,12
 536.212 121 536.212 121 709.012 121 c 128,-1,13
 881.812 121 881.812 121 998.928 276 c 0,14,15
 1114.96 430 1114.96 430 1166.93 727 c 0,16,17
 1212.59 988 1212.59 988 1166.62 1142 c 0,18,19
 1120.49 1295 1120.49 1295 987.489 1327 c 1,20,-1
 1021.26 1520 l 1,21,-1
 1681.86 1520 l 1,22,-1
 1627.8 1211 l 1,23,-1
 1505.4 1211 l 1,24,-1
 1527.26 1336 l 1,25,-1
 1225.76 1336 l 1,26,27
 1422.97 1244 1422.97 1244 1504.78 1084 c 0,28,29
 1586.41 923 1586.41 923 1547.93 703 c 0,30,31
 1492.65 387 1492.65 387 1256.38 194 c 0,32,33
 1020.84 0 1020.84 0 687.844 0 c 128,-1,34
 354.844 0 354.844 0 186.282 194 c 0,35,36
 17.5469 387 17.5469 387 72.8281 703 c 0,37,38
 111.315 923 111.315 923 249.281 1084 c 0,39,40
 387.072 1244 387.072 1244 617.366 1336 c 1,0,-1
EndSplineSet
EndChar
StartChar: uni01B2
Encoding: 434 434 434
Width: 1640
Flags: W
Fore
711.373 121 m 1,0,1
 884.174 121 884.174 121 1000.75 275.5 c 128,-1,2
 1117.33 430 1117.33 430 1169.29 727 c 0,3,4
 1215.39 990.493 1215.39 990.493 1168.9 1141.5 c 0,5,6
 1128.74 1272 1128.74 1272 1074.74 1272 c 1,7,-1
 1092.22 1372 l 1,8,-1
 1200.22 1372 l 1,9,10
 1406.55 1281.94 1406.55 1281.94 1507.06 1083.5 c 0,11,12
 1588.78 923 1588.78 923 1550.29 703 c 0,13,14
 1495.01 387 1495.01 387 1259.11 193.5 c 128,-1,15
 1023.21 0 1023.21 0 690.206 0 c 1,16,-1
 510.206 0 l 2,17,18
 329.468 0 329.468 0 300.205 24 c 0,19,20
 204.969 102.108 204.969 102.108 246.061 337 c 2,21,-1
 427.127 1372 l 1,22,-1
 255.227 1372 l 1,23,-1
 276.394 1493 l 1,24,-1
 967.59 1493 l 1,25,-1
 946.422 1372 l 1,26,-1
 773.627 1372 l 1,27,-1
 598.859 373 l 2,28,29
 576.353 244.35 576.353 244.35 600.545 182 c 0,30,31
 624.214 121 624.214 121 711.373 121 c 1,0,1
EndSplineSet
EndChar
StartChar: uni01B3
Encoding: 435 435 435
Width: 1315
Flags: W
AnchorPoint: "above" 784.646 1472 basechar 0
Fore
1191.05 1372 m 2,0,1
 1277.55 1495 1277.55 1495 1432.17 1495 c 0,2,3
 1476 1495 1476 1495 1508.72 1485 c 0,4,5
 1568.17 1475 1568.17 1475 1630.55 1456 c 1,6,-1
 1591.18 1231 l 1,7,-1
 1489.48 1231 l 1,8,9
 1501.68 1311 1501.68 1311 1481.34 1346.5 c 128,-1,10
 1461 1382 1461 1382 1401.6 1382 c 0,11,12
 1334.74 1382 1334.74 1382 1301.58 1335 c 2,13,-1
 832.442 670 l 1,14,-1
 736.398 121 l 1,15,-1
 917.298 121 l 1,16,-1
 896.131 0 l 1,17,-1
 186.031 0 l 1,18,-1
 207.199 121 l 1,19,-1
 388.099 121 l 1,20,-1
 475.045 618 l 1,21,-1
 207.352 1372 l 1,22,-1
 93.0518 1372 l 1,23,-1
 114.219 1493 l 1,24,-1
 758.619 1493 l 1,25,-1
 737.452 1372 l 1,26,-1
 588.052 1372 l 1,27,-1
 790.909 803 l 1,28,-1
 1191.05 1372 l 2,0,1
EndSplineSet
EndChar
StartChar: uni01B4
Encoding: 436 436 436
Width: 1287
Flags: W
AnchorPoint: "above" 680.718 1092 basechar 0
Fore
1106.33 932 m 2,0,-1
 477.395 -240 l 1,1,2
 413.726 -357 413.726 -357 343.954 -406 c 128,-1,3
 274.182 -455 274.182 -455 170.682 -455 c 0,4,5
 126.581 -455 126.581 -455 74.5059 -444 c 128,-1,6
 22.4307 -433 22.4307 -433 -37.7959 -412 c 1,7,-1
 1.04199 -190 l 1,8,-1
 102.566 -191 l 1,9,10
 91.7959 -268 91.7959 -268 115.473 -305 c 128,-1,11
 139.149 -342 139.149 -342 199.45 -342 c 0,12,13
 257.95 -342 257.95 -342 300.161 -306.5 c 128,-1,14
 342.371 -271 342.371 -271 395.69 -172 c 1,15,-1
 416.563 -135 l 1,16,-1
 188.275 942 l 1,17,-1
 84.7754 942 l 1,18,-1
 105.944 1063 l 1,19,-1
 657.645 1063 l 1,20,-1
 636.476 942 l 1,21,-1
 522.176 942 l 1,22,-1
 655.138 313 l 1,23,-1
 991.979 942 l 2,24,25
 1072.85 1093.02 1072.85 1093.02 1226.12 1092 c 0,26,27
 1254.01 1092 1254.01 1092 1313.47 1082 c 128,-1,28
 1372.91 1072 1372.91 1072 1435.29 1053 c 1,29,-1
 1395.94 828 l 1,30,-1
 1294.24 828 l 1,31,32
 1306.43 908 1306.43 908 1286.09 943.5 c 128,-1,33
 1265.75 979 1265.75 979 1206.35 979 c 0,34,35
 1133.82 983.243 1133.82 983.243 1106.33 932 c 2,0,-1
EndSplineSet
EndChar
StartChar: uni01B5
Encoding: 437 437 437
Width: 1345
Flags: W
AnchorPoint: "above" 798.896 1465 basechar 0
Fore
-62.1943 0 m 1,0,-1
 -37.5273 141 l 1,1,-1
 395.093 659 l 1,2,-1
 195.293 659 l 1,3,-1
 228.881 851 l 1,4,-1
 555.581 851 l 1,5,-1
 976.923 1356 l 1,6,-1
 333.428 1356 l 1,7,-1
 294.415 1133 l 1,8,-1
 171.115 1133 l 1,9,-1
 234.094 1493 l 1,10,-1
 1400.49 1493 l 1,11,-1
 1375.83 1352 l 1,12,-1
 961.479 851 l 1,13,-1
 1180.18 851 l 1,14,-1
 1146.59 659 l 1,15,-1
 802.793 659 l 1,16,-1
 370.372 137 l 1,17,-1
 1048.98 137 l 1,18,-1
 1085.54 346 l 1,19,-1
 1208.83 346 l 1,20,-1
 1148.31 0 l 1,21,-1
 -62.1943 0 l 1,0,-1
EndSplineSet
EndChar
StartChar: uni01B6
Encoding: 438 438 438
Width: 1046
Flags: W
AnchorPoint: "below" 430.818 0 basechar 0
AnchorPoint: "above" 621 1092 basechar 0
Fore
114.3 479 m 1,0,-1
 135 600 l 1,1,-1
 395.1 600 l 1,2,-1
 621 869 l 1,3,4
 598.5 878 598.5 878 567 897 c 0,5,6
 455.4 965 455.4 965 381.6 965 c 0,7,8
 273.6 965 273.6 965 111.6 820 c 1,9,-1
 139.5 978 l 1,10,11
 301.5 1148 301.5 1148 442.8 1146 c 0,12,13
 513 1145 513 1145 632.7 1078 c 0,14,15
 761.4 1005 761.4 1005 811.8 1005 c 128,-1,16
 862.2 1005 862.2 1005 914.4 1028 c 128,-1,17
 966.6 1051 966.6 1051 988.2 1065 c 1,18,-1
 1077.3 1063 l 1,19,-1
 1056.6 944 l 1,20,-1
 767.7 600 l 1,21,-1
 935.1 600 l 1,22,-1
 914.4 479 l 1,23,-1
 665.1 479 l 1,24,-1
 426.6 195 l 1,25,26
 450 186 450 186 482.4 166 c 0,27,28
 594 98 594 98 667.8 98 c 0,29,30
 775.8 98 775.8 98 937.8 243 c 1,31,-1
 909.9 85 l 1,32,33
 747.9 -85 747.9 -85 606.6 -83 c 0,34,35
 536.4 -82 536.4 -82 416.7 -15 c 0,36,37
 288 58 288 58 237.6 58 c 128,-1,38
 187.2 58 187.2 58 135 35 c 128,-1,39
 82.7998 12 82.7998 12 61.2002 -2 c 1,40,-1
 -27.9004 0 l 1,41,-1
 -7.2002 121 l 1,42,-1
 293.4 479 l 1,43,-1
 114.3 479 l 1,0,-1
EndSplineSet
EndChar
StartChar: uni01B7
Encoding: 439 439 439
Width: 1046
Flags: W
Fore
675.988 839.25 m 1,0,1
 870.591 818.318 870.591 818.318 956.151 734 c 0,2,3
 1078.96 612.849 1078.96 612.849 1042.25 403 c 24,4,5
 1005.68 194 1005.68 194 837.225 82.5 c 128,-1,6
 668.769 -29 668.769 -29 386.168 -29 c 0,7,8
 279.969 -29 279.969 -29 170.518 -9 c 128,-1,9
 61.0664 11 61.0664 11 -55.2354 51 c 1,10,-1
 2.14551 379 l 1,11,-1
 111.046 379 l 1,12,13
 96.1035 237 96.1035 237 153.271 162.5 c 128,-1,14
 210.438 88 210.438 88 334.637 88 c 0,15,16
 471.438 88 471.438 88 560.92 172.5 c 128,-1,17
 650.402 257 650.402 257 677.519 412 c 0,18,19
 705.859 574 705.859 574 643.404 662 c 128,-1,20
 580.949 750 580.949 750 437.849 750 c 2,21,-1
 378.449 750 l 1,22,-1
 417.725 974.5 l 1,23,-1
 722.964 1356 l 1,24,-1
 335.964 1356 l 1,25,-1
 296.951 1133 l 1,26,-1
 173.651 1133 l 1,27,-1
 236.632 1493 l 1,28,-1
 1117.73 1493 l 1,29,-1
 1093.76 1356 l 1,30,-1
 675.988 839.25 l 1,0,1
EndSplineSet
EndChar
StartChar: uni01B8
Encoding: 440 440 440
Width: 1046
Flags: W
Fore
525.238 839.25 m 1,0,-1
 288.264 1356 l 1,1,-1
 312.231 1493 l 1,2,-1
 1193.33 1493 l 1,3,-1
 1130.35 1133 l 1,4,-1
 1007.05 1133 l 1,5,-1
 1046.06 1356 l 1,6,-1
 659.063 1356 l 1,7,-1
 830.824 974.5 l 1,8,-1
 791.549 750 l 1,9,-1
 732.149 750 l 2,10,11
 589.049 750 589.049 750 495.805 662 c 128,-1,12
 402.56 574 402.56 574 374.218 412 c 0,13,14
 347.103 257 347.103 257 407.02 172.5 c 128,-1,15
 466.938 88 466.938 88 603.737 88 c 0,16,17
 727.938 88 727.938 88 811.171 162.5 c 128,-1,18
 894.403 237 894.403 237 929.142 379 c 1,19,-1
 1038.04 379 l 1,20,-1
 980.667 51 l 1,21,22
 850.367 11 850.367 11 733.918 -9 c 128,-1,23
 617.469 -29 617.469 -29 511.269 -29 c 0,24,25
 228.668 -29 228.668 -29 99.2246 82.5 c 128,-1,26
 -30.2188 194 -30.2188 194 6.34375 403 c 24,27,28
 43.0557 612.849 43.0557 612.849 208.25 734 c 0,29,30
 323.31 818.318 323.31 818.318 525.238 839.25 c 1,0,-1
EndSplineSet
EndChar
StartChar: uni01B9
Encoding: 441 441 441
Width: 1046
Flags: W
Fore
528.998 452.25 m 1,0,1
 287.651 944 l 1,30,-1
 308.47 1063 l 1,29,-1
 1199.47 1063 l 1,28,-1
 1147.16 764 l 1,27,-1
 1040.06 764 l 1,26,-1
 1071.9 946 l 1,25,-1
 658.802 946 l 1,24,-1
 834.584 587.5 l 1,23,-1
 795.311 363 l 1,22,-1
 735.91 363 l 2,21,-1
 592.811 363 592.811 363 499.564 275 c 128,-1,20
 406.32 187 406.32 187 377.98 25 c 0,18,19
 350.864 -130 350.864 -130 410.781 -214.5 c 128,-1,17
 470.698 -299 470.698 -299 607.498 -299 c 0,15,16
 731.698 -299 731.698 -299 814.931 -224.5 c 128,-1,14
 898.165 -150 898.165 -150 932.904 -8 c 1,12,13
 1041.8 -8 l 1,11,-1
 984.429 -336 l 1,10,-1
 854.128 -376 854.128 -376 737.68 -396 c 128,-1,9
 621.23 -416 621.23 -416 515.03 -416 c 0,7,8
 232.431 -416 232.431 -416 102.986 -304.5 c 128,-1,6
 -26.458 -193 -26.458 -193 10.1055 16 c 24,4,5
 46.8164 225.849 46.8164 225.849 212.011 347 c 0,2,3
 327.071 431.318 327.071 431.318 528.998 452.25 c 1,0,1
EndSplineSet
EndChar
StartChar: uni01BB
Encoding: 443 443 443
Width: 1282
Flags: W
Fore
306.68 1124 m 1,0,-1
 198.68 1124 l 1,1,-1
 255.011 1446 l 1,2,3
 371.283 1483 371.283 1483 482.607 1502 c 0,4,5
 592.856 1520 592.856 1520 702.656 1520 c 0,6,7
 959.157 1520 959.157 1520 1082.86 1404 c 0,8,9
 1205.5 1287 1205.5 1287 1169.11 1079 c 0,10,11
 1147.24 954 1147.24 954 1072.52 851 c 1,12,-1
 1177.82 851 l 1,13,-1
 1144.23 659 l 1,14,-1
 871.53 659 l 1,15,16
 794.959 602 794.959 602 692.339 535 c 2,17,-1
 270.178 262 l 1,18,-1
 906.48 262 l 1,19,-1
 937.269 438 l 1,20,-1
 1060.57 438 l 1,21,-1
 983.943 0 l 1,22,-1
 -9.65625 0 l 1,23,-1
 33.0303 244 l 1,24,-1
 258.696 397 l 2,25,26
 478.262 546 478.262 546 592.53 659 c 1,27,-1
 192.931 659 l 1,28,-1
 226.52 851 l 1,29,-1
 733.219 851 l 1,30,31
 777.939 942 777.939 942 796.658 1049 c 0,32,33
 826.924 1222 826.924 1222 778.769 1312 c 0,34,35
 729.888 1403 729.888 1403 606.588 1403 c 0,36,37
 500.388 1403 500.388 1403 424.067 1332 c 0,38,39
 347.571 1260 347.571 1260 306.68 1124 c 1,0,-1
EndSplineSet
EndChar
StartChar: uni01BC
Encoding: 444 444 444
Width: 1389
Flags: W
Fore
942.291 840 m 0,0,1
 1112.37 809 1112.37 809 1180.93 707 c 0,2,3
 1249.48 605 1249.48 605 1214.14 403 c 0,4,5
 1177.58 194 1177.58 194 1009.12 82.5 c 0,6,7
 840.668 -29 840.668 -29 558.068 -29 c 0,8,9
 451.868 -29 451.868 -29 342.418 -9 c 0,10,11
 232.967 11 232.967 11 116.664 51 c 1,12,-1
 174.046 379 l 1,13,-1
 282.945 379 l 1,14,15
 268.004 237 268.004 237 325.171 162.5 c 0,16,17
 382.337 88 382.337 88 506.537 88 c 0,18,19
 643.337 88 643.337 88 732.819 172.5 c 0,20,21
 822.302 257 822.302 257 849.418 412 c 0,22,23
 877.759 574 877.759 574 815.305 662 c 0,24,25
 752.849 750 752.849 750 609.749 750 c 2,26,-1
 261.449 750 l 1,27,-1
 370.263 1372 l 1,28,-1
 198.362 1372 l 1,29,-1
 219.531 1493 l 1,30,-1
 1417.43 1493 l 1,31,-1
 1355.85 1141 l 1,32,-1
 1232.55 1141 l 1,33,-1
 1270.16 1356 l 1,34,-1
 715.764 1356 l 1,35,-1
 630.733 869.953 l 1,36,37
 784.192 868.817 784.192 868.817 942.291 840 c 0,0,1
EndSplineSet
EndChar
StartChar: uni01BD
Encoding: 445 445 445
Width: 1046
Flags: W
Fore
683.203 472 m 0,0,1
 910.62 418.734 910.62 418.734 963.369 366.75 c 0,2,3
 1086.17 245.599 1086.17 245.599 1046.01 16 c 0,4,5
 1009.44 -193 1009.44 -193 840.986 -304.5 c 0,6,7
 672.53 -416 672.53 -416 389.931 -416 c 0,8,9
 283.73 -416 283.73 -416 174.279 -396 c 0,10,11
 64.8281 -376 64.8281 -376 -51.4736 -336 c 1,12,-1
 5.90625 -8 l 1,13,-1
 114.806 -8 l 1,14,15
 99.8652 -150 99.8652 -150 157.031 -224.5 c 0,16,17
 214.198 -299 214.198 -299 338.398 -299 c 0,18,19
 475.198 -299 475.198 -299 564.682 -214.5 c 0,20,21
 654.164 -130 654.164 -130 681.28 25 c 0,22,23
 709.62 187 709.62 187 647.165 275 c 0,24,25
 584.71 363 584.71 363 441.61 363 c 2,26,-1
 204.91 363 l 1,27,-1
 306.202 942 l 1,28,-1
 170.303 942 l 1,29,-1
 191.47 1063 l 1,30,-1
 1185.07 1063 l 1,31,-1
 1134.51 774 l 1,32,-1
 1025.61 774 l 1,33,-1
 1055 942 l 1,34,-1
 624.803 942 l 1,35,-1
 544.528 483.149 l 1,36,37
 645.615 480.804 645.615 480.804 683.203 472 c 0,0,1
EndSplineSet
EndChar
StartChar: uni01BE
Encoding: 446 446 446
Width: 988
Flags: W
Fore
307.172 1393 m 1,0,-1
 625.771 1393 l 1,1,-1
 565.592 1049 l 1,2,-1
 698.791 1049 l 1,3,-1
 677.623 928 l 1,4,-1
 544.424 928 l 1,5,-1
 519.756 787 l 1,6,7
 542.784 778.699 542.784 778.699 609.285 702 c 0,8,9
 682.678 617.354 682.678 617.354 641.155 380 c 0,10,11
 601.969 156 601.969 156 497.497 63 c 128,-1,12
 393.028 -30 393.028 -30 159.028 -30 c 0,13,14
 94.2314 -30 94.2314 -30 37.6279 -14 c 128,-1,15
 -18.9658 2 -18.9658 2 -68.8252 36 c 1,16,-1
 -36.8867 234 l 1,17,-1
 64.8135 234 l 1,18,19
 54.0674 152 54.0674 152 72.957 118.5 c 0,20,21
 92.2139 83 92.2139 83 173.396 83 c 0,22,23
 264.814 83 264.814 83 295.919 130 c 0,24,25
 327.007 178.49 327.007 178.49 371.353 412 c 0,26,27
 411.343 622.566 411.343 622.566 377.988 666 c 0,28,29
 354.951 696 354.951 696 289.636 696 c 2,30,-1
 185.236 696 l 1,31,-1
 225.823 928 l 1,32,-1
 86.3232 928 l 1,33,-1
 107.491 1049 l 1,34,-1
 246.991 1049 l 1,35,-1
 307.172 1393 l 1,0,-1
EndSplineSet
EndChar
StartChar: uni01C0
Encoding: 448 448 448
Width: 543
Flags: W
Fore
499.144 1493 m 1,0,-1
 237.956 0 l 1,1,-1
 44.4561 0 l 1,2,-1
 305.644 1493 l 1,3,-1
 499.144 1493 l 1,0,-1
EndSplineSet
EndChar
StartChar: uni01C2
Encoding: 450 450 450
Width: 846
Flags: W
Fore
344.531 851 m 1,0,-1
 34.4814 851 l 1,1,-1
 62.8223 1013 l 1,2,-1
 372.873 1013 l 1,3,-1
 456.844 1493 l 1,4,-1
 650.344 1493 l 1,5,-1
 566.373 1013 l 1,6,-1
 876.423 1013 l 1,7,-1
 848.081 851 l 1,8,-1
 538.031 851 l 1,9,-1
 501.469 642 l 1,10,-1
 811.52 642 l 1,11,-1
 783.178 480 l 1,12,-1
 473.127 480 l 1,13,-1
 389.156 0 l 1,14,-1
 195.656 0 l 1,15,-1
 279.627 480 l 1,16,-1
 -30.4229 480 l 1,17,-1
 -2.08105 642 l 1,18,-1
 307.969 642 l 1,19,-1
 344.531 851 l 1,0,-1
EndSplineSet
EndChar
StartChar: uni01C3
Encoding: 451 451 451
Width: 543
Flags: W
Fore
275.743 216 m 1,0,-1
 237.956 0 l 1,1,-1
 44.4561 0 l 1,2,-1
 82.2432 216 l 1,3,-1
 275.743 216 l 1,0,-1
499.144 1493 m 1,4,-1
 313.53 432 l 1,5,-1
 120.03 432 l 1,6,-1
 305.644 1493 l 1,7,-1
 499.144 1493 l 1,4,-1
EndSplineSet
EndChar
StartChar: uni01E4
Encoding: 484 484 484
Width: 1650
Flags: W
Fore
1316.82 1024 m 1,0,1
 1310.96 1222 1310.96 1222 1231.95 1310.5 c 128,-1,2
 1152.93 1399 1152.93 1399 981.027 1399 c 0,3,4
 772.225 1399 772.225 1399 647.021 1241.5 c 128,-1,5
 521.818 1084 521.818 1084 462.512 745 c 0,6,7
 403.731 409 403.731 409 469.604 250.5 c 128,-1,8
 535.476 92 535.476 92 733.476 92 c 0,9,10
 809.076 92 809.076 92 877.199 111 c 128,-1,11
 945.324 130 945.324 130 1005.08 168 c 1,12,-1
 1030.09 311 l 1,13,-1
 697.987 311 l 1,14,-1
 718.98 431 l 1,15,-1
 1051.08 431 l 1,16,-1
 1076.8 578 l 1,17,-1
 914.796 578 l 1,18,-1
 935.793 698 l 1,19,-1
 1419.99 698 l 1,20,-1
 1373.28 431 l 1,21,-1
 1552.38 431 l 1,22,-1
 1531.39 311 l 1,23,-1
 1352.29 311 l 1,24,-1
 1319.75 125 l 1,25,26
 1154.91 47 1154.91 47 997.506 9 c 128,-1,27
 840.106 -29 840.106 -29 682.606 -29 c 0,28,29
 337.007 -29 337.007 -29 175.67 178 c 128,-1,30
 14.333 385 14.333 385 77.3125 745 c 0,31,32
 140.467 1106 140.467 1106 374.229 1313 c 128,-1,33
 607.993 1520 607.993 1520 953.595 1520 c 0,34,35
 1097.59 1520 1097.59 1520 1231.5 1488 c 128,-1,36
 1365.4 1456 1365.4 1456 1495.32 1391 c 1,37,-1
 1431.12 1024 l 1,38,-1
 1316.82 1024 l 1,0,1
EndSplineSet
EndChar
